# MagicaVoxel @ Ephtracy

# material
mtllib knight.mtl
usemtl palette

# normals
vn -1 0 0
vn 1 0 0
vn 0 0 1
vn 0 0 -1
vn 0 -1 0
vn 0 1 0

# texcoords
vt 0.0332031 0.5
vt 0.373047 0.5
vt 0.396484 0.5
vt 0.787109 0.5
vt 0.791016 0.5
vt 0.814453 0.5
vt 0.962891 0.5
vt 0.978516 0.5
vt 0.982422 0.5
vt 0.994141 0.5

# verts
v -6 3 1
v -6 3 -1
v -6 4 1
v -6 4 -1
v -6 5 -0
v -6 5 -1
v -6 5 -2
v -6 6 1
v -6 6 -0
v -6 8 1
v -6 8 -0
v -6 8 -2
v -6 10 1
v -6 10 -2
v -5 2 2
v -5 2 -2
v -5 3 1
v -5 3 -1
v -5 4 1
v -5 4 -1
v -5 5 -1
v -5 5 -2
v -5 6 1
v -5 6 -0
v -5 7 2
v -5 7 -0
v -4 0 1
v -4 0 -1
v -4 1 1
v -4 1 -1
v -4 2 1
v -4 2 -1
v -4 6 3
v -4 6 2
v -4 7 3
v -4 7 2
v -4 7 -0
v -4 7 -1
v -4 7 -2
v -4 8 2
v -4 8 1
v -4 8 -0
v -4 8 -1
v -4 8 -2
v -4 8 -3
v -4 9 2
v -4 9 1
v -4 9 -2
v -4 9 -3
v -4 9 -4
v -4 10 3
v -4 10 2
v -4 10 1
v -4 10 -2
v -4 10 -3
v -4 10 -4
v -4 13 3
v -4 13 -3
v -3 5 3
v -3 5 2
v -3 6 3
v -3 6 2
v -3 7 3
v -3 7 2
v -3 7 -2
v -3 7 -3
v -3 8 3
v -3 8 2
v -3 8 1
v -3 8 -2
v -3 8 -3
v -3 8 -4
v -3 9 3
v -3 9 2
v -3 9 1
v -3 9 -3
v -3 9 -4
v -3 10 3
v -3 10 2
v -3 10 -3
v -3 10 -4
v -3 11 -3
v -3 11 -4
v -3 13 3
v -3 13 -2
v -3 14 3
v -3 14 -2
v -2 6 -2
v -2 6 -3
v -2 7 -2
v -2 7 -3
v -2 11 -3
v -2 11 -4
v -2 13 4
v -2 13 3
v -2 13 -2
v -2 13 -3
v -2 13 -4
v -2 14 4
v -2 14 3
v -2 14 -2
v -2 14 -3
v -1 10 -6
v -1 10 -7
v -1 11 4
v -1 11 3
v -1 11 -5
v -1 11 -6
v -1 12 3
v -1 12 -4
v -1 12 -5
v -1 12 -6
v -1 12 -7
v -1 13 4
v -1 13 3
v -1 13 -3
v -1 13 -4
v -1 13 -5
v -1 13 -6
v -1 14 -3
v -1 14 -4
v -1 14 -5
v 1 2 2
v 1 2 -2
v 1 4 2
v 1 4 -2
v 2 0 1
v 2 0 -1
v 2 1 1
v 2 1 -1
v 2 2 1
v 2 2 -1
v 5 7 -0
v 5 7 -1
v 5 7 -2
v 5 8 -0
v 5 8 -1
v 5 8 -2
v -5 7 -0
v -5 7 -1
v -5 7 -2
v -5 8 -0
v -5 8 -1
v -5 8 -2
v -2 0 1
v -2 0 -1
v -2 1 1
v -2 1 -1
v -2 2 1
v -2 2 -1
v -1 2 2
v -1 2 -2
v -1 4 2
v -1 4 -2
v 0 10 -6
v 0 10 -7
v 0 11 -6
v 0 12 -6
v 0 12 -7
v 1 11 4
v 1 11 3
v 1 11 -5
v 1 11 -6
v 1 12 3
v 1 12 -4
v 1 12 -5
v 1 13 4
v 1 13 3
v 1 13 -3
v 1 13 -4
v 1 13 -5
v 1 13 -6
v 1 14 -3
v 1 14 -4
v 1 14 -5
v 2 6 -2
v 2 6 -3
v 2 7 -2
v 2 7 -3
v 2 11 -3
v 2 11 -4
v 2 13 4
v 2 13 3
v 2 13 -2
v 2 13 -3
v 2 13 -4
v 2 14 4
v 2 14 3
v 2 14 -2
v 2 14 -3
v 3 5 3
v 3 5 2
v 3 6 3
v 3 6 2
v 3 7 3
v 3 7 2
v 3 7 -2
v 3 7 -3
v 3 8 3
v 3 8 2
v 3 8 1
v 3 8 -2
v 3 8 -3
v 3 8 -4
v 3 9 3
v 3 9 2
v 3 9 1
v 3 9 -3
v 3 9 -4
v 3 10 3
v 3 10 2
v 3 10 -3
v 3 10 -4
v 3 11 -3
v 3 11 -4
v 3 13 3
v 3 13 -2
v 3 14 3
v 3 14 -2
v 4 0 1
v 4 0 -1
v 4 1 1
v 4 1 -1
v 4 2 1
v 4 2 -1
v 4 6 3
v 4 6 2
v 4 7 3
v 4 7 2
v 4 7 -0
v 4 7 -1
v 4 7 -2
v 4 8 2
v 4 8 1
v 4 8 -0
v 4 8 -1
v 4 8 -2
v 4 8 -3
v 4 9 2
v 4 9 1
v 4 9 -2
v 4 9 -3
v 4 9 -4
v 4 10 3
v 4 10 2
v 4 10 1
v 4 10 -2
v 4 10 -3
v 4 10 -4
v 4 13 3
v 4 13 -3
v 5 2 2
v 5 2 -2
v 5 3 1
v 5 3 -1
v 5 4 1
v 5 4 -1
v 5 5 -1
v 5 5 -2
v 5 6 1
v 5 6 -0
v 5 7 2
v 5 7 -0
v 6 3 1
v 6 3 -1
v 6 4 1
v 6 4 -1
v 6 5 -0
v 6 5 -1
v 6 5 -2
v 6 6 1
v 6 6 -0
v 6 8 1
v 6 8 -0
v 6 8 -2
v 6 10 1
v 6 10 -2
v -2 13 4
v -2 14 4
v -1 11 4
v -1 13 4
v 1 11 4
v 1 13 4
v 2 13 4
v 2 14 4
v -4 6 3
v -4 7 3
v -4 10 3
v -4 13 3
v -3 5 3
v -3 6 3
v -3 7 3
v -3 8 3
v -3 9 3
v -3 10 3
v -3 12 3
v -3 13 3
v -3 14 3
v -2 10 3
v -2 12 3
v -2 13 3
v -2 14 3
v -1 10 3
v -1 11 3
v -1 12 3
v -1 13 3
v 1 10 3
v 1 11 3
v 1 12 3
v 1 13 3
v 2 10 3
v 2 12 3
v 2 13 3
v 2 14 3
v 3 5 3
v 3 6 3
v 3 7 3
v 3 8 3
v 3 9 3
v 3 10 3
v 3 12 3
v 3 13 3
v 3 14 3
v 4 6 3
v 4 7 3
v 4 10 3
v 4 13 3
v -5 2 2
v -5 7 2
v -4 6 2
v -4 7 2
v -4 8 2
v -4 9 2
v -4 10 2
v -3 5 2
v -3 6 2
v -3 7 2
v -3 8 2
v -3 9 2
v -3 10 2
v -1 2 2
v -1 4 2
v -1 8 2
v -1 9 2
v 1 2 2
v 1 4 2
v 1 8 2
v 1 9 2
v 3 5 2
v 3 6 2
v 3 7 2
v 3 8 2
v 3 9 2
v 3 10 2
v 4 6 2
v 4 7 2
v 4 8 2
v 4 9 2
v 4 10 2
v 5 2 2
v 5 7 2
v -6 3 1
v -6 4 1
v -6 6 1
v -6 8 1
v -6 10 1
v -5 3 1
v -5 4 1
v -5 6 1
v -4 0 1
v -4 1 1
v -4 2 1
v -4 8 1
v -4 9 1
v -4 10 1
v -3 8 1
v -3 9 1
v -2 0 1
v -2 1 1
v -2 2 1
v 2 0 1
v 2 1 1
v 2 2 1
v 3 8 1
v 3 9 1
v 4 0 1
v 4 1 1
v 4 2 1
v 4 8 1
v 4 9 1
v 4 10 1
v 5 3 1
v 5 4 1
v 5 6 1
v 6 3 1
v 6 4 1
v 6 6 1
v 6 8 1
v 6 10 1
v -6 6 -0
v -6 8 -0
v -5 6 -0
v -5 7 -0
v -5 8 -0
v 5 6 -0
v 5 7 -0
v 5 8 -0
v 6 6 -0
v 6 8 -0
v -1 11 -5
v -1 12 -5
v 1 11 -5
v 1 12 -5
v -1 10 -6
v -1 11 -6
v 0 10 -6
v 0 11 -6
v -6 3 -1
v -6 4 -1
v -6 5 -1
v -5 3 -1
v -5 4 -1
v -5 5 -1
v -4 0 -1
v -4 1 -1
v -4 2 -1
v -2 0 -1
v -2 1 -1
v -2 2 -1
v 2 0 -1
v 2 1 -1
v 2 2 -1
v 4 0 -1
v 4 1 -1
v 4 2 -1
v 5 3 -1
v 5 4 -1
v 5 5 -1
v 6 3 -1
v 6 4 -1
v 6 5 -1
v -6 5 -2
v -6 8 -2
v -6 10 -2
v -5 2 -2
v -5 5 -2
v -5 7 -2
v -5 8 -2
v -4 7 -2
v -4 8 -2
v -4 9 -2
v -4 10 -2
v -3 7 -2
v -3 8 -2
v -3 13 -2
v -3 14 -2
v -2 6 -2
v -2 7 -2
v -2 13 -2
v -2 14 -2
v -1 2 -2
v -1 4 -2
v 1 2 -2
v 1 4 -2
v 2 6 -2
v 2 7 -2
v 2 13 -2
v 2 14 -2
v 3 7 -2
v 3 8 -2
v 3 13 -2
v 3 14 -2
v 4 7 -2
v 4 8 -2
v 4 9 -2
v 4 10 -2
v 5 2 -2
v 5 5 -2
v 5 7 -2
v 5 8 -2
v 6 5 -2
v 6 8 -2
v 6 10 -2
v -4 8 -3
v -4 9 -3
v -4 10 -3
v -4 13 -3
v -3 7 -3
v -3 8 -3
v -3 9 -3
v -3 10 -3
v -3 11 -3
v -2 6 -3
v -2 7 -3
v -2 8 -3
v -2 11 -3
v -2 13 -3
v -2 14 -3
v -1 13 -3
v -1 14 -3
v 1 13 -3
v 1 14 -3
v 2 6 -3
v 2 7 -3
v 2 8 -3
v 2 11 -3
v 2 13 -3
v 2 14 -3
v 3 7 -3
v 3 8 -3
v 3 9 -3
v 3 10 -3
v 3 11 -3
v 4 8 -3
v 4 9 -3
v 4 10 -3
v 4 13 -3
v -4 9 -4
v -4 10 -4
v -3 8 -4
v -3 9 -4
v -3 10 -4
v -3 11 -4
v -2 11 -4
v -2 13 -4
v -1 10 -4
v -1 12 -4
v -1 13 -4
v 1 10 -4
v 1 12 -4
v 1 13 -4
v 2 11 -4
v 2 13 -4
v 3 8 -4
v 3 9 -4
v 3 10 -4
v 3 11 -4
v 4 9 -4
v 4 10 -4
v -1 13 -5
v -1 14 -5
v 1 13 -5
v 1 14 -5
v -1 12 -6
v -1 13 -6
v 0 11 -6
v 0 12 -6
v 1 11 -6
v 1 13 -6
v -1 10 -7
v -1 12 -7
v 0 10 -7
v 0 12 -7
v -4 0 1
v -2 0 1
v 2 0 1
v 4 0 1
v -4 0 -1
v -2 0 -1
v 2 0 -1
v 4 0 -1
v -5 2 2
v -1 2 2
v 1 2 2
v 5 2 2
v -4 2 1
v -2 2 1
v 2 2 1
v 4 2 1
v -4 2 -1
v -2 2 -1
v 2 2 -1
v 4 2 -1
v -5 2 -2
v -1 2 -2
v 1 2 -2
v 5 2 -2
v -6 3 1
v -5 3 1
v 5 3 1
v 6 3 1
v -6 3 -1
v -5 3 -1
v 5 3 -1
v 6 3 -1
v -1 4 2
v 1 4 2
v -1 4 -2
v 1 4 -2
v -3 5 3
v 3 5 3
v -3 5 2
v 3 5 2
v -6 5 -1
v -5 5 -1
v 5 5 -1
v 6 5 -1
v -6 5 -2
v -5 5 -2
v 5 5 -2
v 6 5 -2
v -4 6 3
v -3 6 3
v 3 6 3
v 4 6 3
v -4 6 2
v -3 6 2
v 3 6 2
v 4 6 2
v -2 6 -2
v 2 6 -2
v -2 6 -3
v 2 6 -3
v -3 7 -2
v -2 7 -2
v 2 7 -2
v 3 7 -2
v -3 7 -3
v -2 7 -3
v 2 7 -3
v 3 7 -3
v -6 8 1
v -4 8 1
v 4 8 1
v 6 8 1
v -6 8 -0
v -5 8 -0
v -4 8 -0
v 4 8 -0
v 5 8 -0
v 6 8 -0
v -5 8 -1
v -4 8 -1
v 4 8 -1
v 5 8 -1
v -5 8 -2
v -4 8 -2
v -3 8 -2
v 3 8 -2
v 4 8 -2
v 5 8 -2
v -4 8 -3
v -3 8 -3
v -2 8 -3
v 2 8 -3
v 3 8 -3
v 4 8 -3
v -3 8 -4
v 3 8 -4
v -3 9 3
v 3 9 3
v -4 9 2
v -3 9 2
v -1 9 2
v 1 9 2
v 3 9 2
v 4 9 2
v -4 9 1
v -3 9 1
v 3 9 1
v 4 9 1
v -4 9 -3
v -3 9 -3
v 3 9 -3
v 4 9 -3
v -4 9 -4
v -3 9 -4
v 3 9 -4
v 4 9 -4
v -4 10 3
v -3 10 3
v 3 10 3
v 4 10 3
v -4 10 2
v -3 10 2
v 3 10 2
v 4 10 2
v -1 10 -6
v 0 10 -6
v -1 10 -7
v 0 10 -7
v -1 11 4
v 1 11 4
v -1 11 3
v 1 11 3
v -1 11 -5
v 1 11 -5
v -1 11 -6
v 0 11 -6
v 1 11 -6
v -1 12 -4
v 1 12 -4
v -1 12 -5
v 1 12 -5
v -2 13 4
v -1 13 4
v 1 13 4
v 2 13 4
v -2 13 3
v -1 13 3
v 1 13 3
v 2 13 3
v -6 6 1
v -5 6 1
v 5 6 1
v 6 6 1
v -6 6 -0
v -5 6 -0
v 5 6 -0
v 6 6 -0
v -4 7 3
v -3 7 3
v 3 7 3
v 4 7 3
v -5 7 2
v -4 7 2
v -3 7 2
v 3 7 2
v 4 7 2
v 5 7 2
v -5 7 -0
v -4 7 -0
v 4 7 -0
v 5 7 -0
v -5 7 -1
v -4 7 -1
v 4 7 -1
v 5 7 -1
v -5 7 -2
v -4 7 -2
v 4 7 -2
v 5 7 -2
v -3 8 3
v 3 8 3
v -4 8 2
v -3 8 2
v -1 8 2
v 1 8 2
v 3 8 2
v 4 8 2
v -4 8 1
v -3 8 1
v 3 8 1
v 4 8 1
v -6 10 1
v -4 10 1
v 4 10 1
v 6 10 1
v -6 10 -2
v -4 10 -2
v 4 10 -2
v 6 10 -2
v -4 10 -3
v -3 10 -3
v 3 10 -3
v 4 10 -3
v -4 10 -4
v -3 10 -4
v 3 10 -4
v 4 10 -4
v -3 11 -3
v -2 11 -3
v 2 11 -3
v 3 11 -3
v -3 11 -4
v -2 11 -4
v 2 11 -4
v 3 11 -4
v -1 12 -6
v 0 12 -6
v -1 12 -7
v 0 12 -7
v -4 13 3
v -3 13 3
v 3 13 3
v 4 13 3
v -3 13 -2
v -2 13 -2
v 2 13 -2
v 3 13 -2
v -4 13 -3
v -2 13 -3
v -1 13 -3
v 1 13 -3
v 2 13 -3
v 4 13 -3
v -2 13 -4
v -1 13 -4
v 1 13 -4
v 2 13 -4
v -1 13 -5
v 1 13 -5
v -1 13 -6
v 1 13 -6
v -2 14 4
v 2 14 4
v -3 14 3
v -2 14 3
v 2 14 3
v 3 14 3
v -3 14 -2
v -2 14 -2
v 2 14 -2
v 3 14 -2
v -2 14 -3
v -1 14 -3
v 1 14 -3
v 2 14 -3
v -1 14 -4
v 1 14 -4
v -1 14 -5
v 1 14 -5

# faces
f 3/1/1 2/1/1 1/1/1
f 4/1/1 2/1/1 3/1/1
f 5/3/1 4/3/1 3/3/1
f 6/3/1 4/3/1 5/3/1
f 8/3/1 5/3/1 3/3/1
f 9/1/1 6/1/1 5/1/1
f 9/3/1 5/3/1 8/3/1
f 9/1/1 7/1/1 6/1/1
f 11/1/1 7/1/1 9/1/1
f 12/1/1 7/1/1 11/1/1
f 13/6/1 11/6/1 10/6/1
f 13/6/1 12/6/1 11/6/1
f 14/6/1 12/6/1 13/6/1
f 17/4/1 16/4/1 15/4/1
f 18/4/1 16/4/1 17/4/1
f 19/4/1 17/4/1 15/4/1
f 20/4/1 16/4/1 18/4/1
f 21/4/1 16/4/1 20/4/1
f 22/4/1 16/4/1 21/4/1
f 23/4/1 19/4/1 15/4/1
f 25/4/1 23/4/1 15/4/1
f 25/4/1 24/4/1 23/4/1
f 26/4/1 24/4/1 25/4/1
f 29/9/1 28/9/1 27/9/1
f 30/9/1 28/9/1 29/9/1
f 31/3/1 30/3/1 29/3/1
f 32/3/1 30/3/1 31/3/1
f 35/5/1 34/5/1 33/5/1
f 36/5/1 34/5/1 35/5/1
f 40/4/1 38/4/1 37/4/1
f 40/4/1 39/4/1 38/4/1
f 40/4/1 37/4/1 36/4/1
f 41/4/1 39/4/1 40/4/1
f 42/4/1 39/4/1 41/4/1
f 43/4/1 39/4/1 42/4/1
f 44/4/1 39/4/1 43/4/1
f 48/5/1 45/5/1 44/5/1
f 49/5/1 45/5/1 48/5/1
f 52/8/1 47/8/1 46/8/1
f 53/8/1 47/8/1 52/8/1
f 54/8/1 49/8/1 48/8/1
f 55/5/1 50/5/1 49/5/1
f 55/8/1 49/8/1 54/8/1
f 56/5/1 50/5/1 55/5/1
f 57/8/1 54/8/1 53/8/1
f 57/8/1 53/8/1 52/8/1
f 57/8/1 55/8/1 54/8/1
f 57/8/1 52/8/1 51/8/1
f 58/8/1 55/8/1 57/8/1
f 61/5/1 60/5/1 59/5/1
f 62/5/1 60/5/1 61/5/1
f 67/5/1 64/5/1 63/5/1
f 68/5/1 64/5/1 67/5/1
f 70/5/1 66/5/1 65/5/1
f 71/5/1 66/5/1 70/5/1
f 74/4/1 69/4/1 68/4/1
f 75/4/1 69/4/1 74/4/1
f 76/8/1 72/8/1 71/8/1
f 77/8/1 72/8/1 76/8/1
f 78/1/1 74/1/1 73/1/1
f 79/1/1 74/1/1 78/1/1
f 82/5/1 81/5/1 80/5/1
f 83/5/1 81/5/1 82/5/1
f 86/8/1 85/8/1 84/8/1
f 87/8/1 85/8/1 86/8/1
f 90/5/1 89/5/1 88/5/1
f 91/5/1 89/5/1 90/5/1
f 97/5/1 93/5/1 92/5/1
f 98/5/1 93/5/1 97/5/1
f 99/8/1 95/8/1 94/8/1
f 100/8/1 95/8/1 99/8/1
f 101/8/1 97/8/1 96/8/1
f 102/8/1 97/8/1 101/8/1
f 108/2/1 104/2/1 103/2/1
f 109/8/1 106/8/1 105/8/1
f 111/2/1 108/2/1 107/2/1
f 112/2/1 104/2/1 108/2/1
f 112/2/1 108/2/1 111/2/1
f 113/2/1 104/2/1 112/2/1
f 114/8/1 109/8/1 105/8/1
f 115/8/1 109/8/1 114/8/1
f 117/2/1 111/2/1 110/2/1
f 117/2/1 112/2/1 111/2/1
f 118/2/1 112/2/1 117/2/1
f 119/2/1 112/2/1 118/2/1
f 120/3/1 117/3/1 116/3/1
f 121/2/1 118/2/1 117/2/1
f 121/3/1 117/3/1 120/3/1
f 122/2/1 118/2/1 121/2/1
f 125/4/1 124/4/1 123/4/1
f 126/4/1 124/4/1 125/4/1
f 129/9/1 128/9/1 127/9/1
f 130/9/1 128/9/1 129/9/1
f 131/3/1 130/3/1 129/3/1
f 132/3/1 130/3/1 131/3/1
f 136/1/1 134/1/1 133/1/1
f 136/1/1 135/1/1 134/1/1
f 137/1/1 135/1/1 136/1/1
f 138/1/1 135/1/1 137/1/1
f 139/1/2 140/1/2 142/1/2
f 140/1/2 141/1/2 142/1/2
f 142/1/2 141/1/2 143/1/2
f 143/1/2 141/1/2 144/1/2
f 145/9/2 146/9/2 147/9/2
f 147/9/2 146/9/2 148/9/2
f 147/3/2 148/3/2 149/3/2
f 149/3/2 148/3/2 150/3/2
f 151/4/2 152/4/2 153/4/2
f 153/4/2 152/4/2 154/4/2
f 155/2/2 156/2/2 157/2/2
f 157/2/2 156/2/2 158/2/2
f 158/2/2 156/2/2 159/2/2
f 160/8/2 161/8/2 164/8/2
f 162/2/2 163/2/2 166/2/2
f 160/8/2 164/8/2 167/8/2
f 167/8/2 164/8/2 168/8/2
f 165/2/2 166/2/2 170/2/2
f 166/2/2 163/2/2 171/2/2
f 170/2/2 166/2/2 171/2/2
f 171/2/2 163/2/2 172/2/2
f 169/3/2 170/3/2 173/3/2
f 170/2/2 171/2/2 174/2/2
f 173/3/2 170/3/2 174/3/2
f 174/2/2 171/2/2 175/2/2
f 176/5/2 177/5/2 178/5/2
f 178/5/2 177/5/2 179/5/2
f 180/5/2 181/5/2 185/5/2
f 185/5/2 181/5/2 186/5/2
f 182/8/2 183/8/2 187/8/2
f 187/8/2 183/8/2 188/8/2
f 184/8/2 185/8/2 189/8/2
f 189/8/2 185/8/2 190/8/2
f 191/5/2 192/5/2 193/5/2
f 193/5/2 192/5/2 194/5/2
f 195/5/2 196/5/2 199/5/2
f 199/5/2 196/5/2 200/5/2
f 197/5/2 198/5/2 202/5/2
f 202/5/2 198/5/2 203/5/2
f 200/4/2 201/4/2 206/4/2
f 206/4/2 201/4/2 207/4/2
f 203/8/2 204/8/2 208/8/2
f 208/8/2 204/8/2 209/8/2
f 205/1/2 206/1/2 210/1/2
f 210/1/2 206/1/2 211/1/2
f 212/5/2 213/5/2 214/5/2
f 214/5/2 213/5/2 215/5/2
f 216/8/2 217/8/2 218/8/2
f 218/8/2 217/8/2 219/8/2
f 220/9/2 221/9/2 222/9/2
f 222/9/2 221/9/2 223/9/2
f 222/3/2 223/3/2 224/3/2
f 224/3/2 223/3/2 225/3/2
f 226/5/2 227/5/2 228/5/2
f 228/5/2 227/5/2 229/5/2
f 230/4/2 231/4/2 233/4/2
f 231/4/2 232/4/2 233/4/2
f 229/4/2 230/4/2 233/4/2
f 233/4/2 232/4/2 234/4/2
f 234/4/2 232/4/2 235/4/2
f 235/4/2 232/4/2 236/4/2
f 236/4/2 232/4/2 237/4/2
f 237/5/2 238/5/2 241/5/2
f 241/5/2 238/5/2 242/5/2
f 239/8/2 240/8/2 245/8/2
f 245/8/2 240/8/2 246/8/2
f 241/8/2 242/8/2 247/8/2
f 242/5/2 243/5/2 248/5/2
f 247/8/2 242/8/2 248/8/2
f 248/5/2 243/5/2 249/5/2
f 246/8/2 247/8/2 250/8/2
f 245/8/2 246/8/2 250/8/2
f 247/8/2 248/8/2 250/8/2
f 244/8/2 245/8/2 250/8/2
f 250/8/2 248/8/2 251/8/2
f 252/4/2 253/4/2 254/4/2
f 254/4/2 253/4/2 255/4/2
f 252/4/2 254/4/2 256/4/2
f 255/4/2 253/4/2 257/4/2
f 257/4/2 253/4/2 258/4/2
f 258/4/2 253/4/2 259/4/2
f 252/4/2 256/4/2 260/4/2
f 252/4/2 260/4/2 262/4/2
f 260/4/2 261/4/2 262/4/2
f 262/4/2 261/4/2 263/4/2
f 264/1/2 265/1/2 266/1/2
f 266/1/2 265/1/2 267/1/2
f 266/3/2 267/3/2 268/3/2
f 268/3/2 267/3/2 269/3/2
f 266/3/2 268/3/2 271/3/2
f 268/1/2 269/1/2 272/1/2
f 271/3/2 268/3/2 272/3/2
f 269/1/2 270/1/2 272/1/2
f 272/1/2 270/1/2 274/1/2
f 274/1/2 270/1/2 275/1/2
f 273/6/2 274/6/2 276/6/2
f 274/6/2 275/6/2 276/6/2
f 276/6/2 275/6/2 277/6/2
f 281/8/3 279/8/3 278/8/3
f 282/8/3 281/8/3 280/8/3
f 283/8/3 279/8/3 281/8/3
f 283/8/3 281/8/3 282/8/3
f 284/8/3 279/8/3 283/8/3
f 285/8/3 279/8/3 284/8/3
f 291/5/3 287/5/3 286/5/3
f 292/5/3 287/5/3 291/5/3
f 295/8/3 289/8/3 288/8/3
f 296/8/3 289/8/3 295/8/3
f 297/8/3 289/8/3 296/8/3
f 299/1/3 295/1/3 294/1/3
f 299/7/3 296/7/3 295/7/3
f 300/1/3 297/1/3 296/1/3
f 300/7/3 296/7/3 299/7/3
f 301/8/3 298/8/3 297/8/3
f 301/1/3 297/1/3 300/1/3
f 302/8/3 298/8/3 301/8/3
f 303/10/3 300/10/3 299/10/3
f 303/1/3 299/1/3 294/1/3
f 304/10/3 300/10/3 303/10/3
f 305/1/3 301/1/3 300/1/3
f 305/10/3 300/10/3 304/10/3
f 306/1/3 301/1/3 305/1/3
f 307/1/3 304/1/3 303/1/3
f 307/1/3 303/1/3 294/1/3
f 308/1/3 304/1/3 307/1/3
f 311/1/3 307/1/3 294/1/3
f 311/10/3 308/10/3 307/10/3
f 311/10/3 309/10/3 308/10/3
f 312/1/3 310/1/3 309/1/3
f 312/10/3 309/10/3 311/10/3
f 313/1/3 310/1/3 312/1/3
f 315/5/3 293/5/3 292/5/3
f 315/5/3 291/5/3 290/5/3
f 315/5/3 292/5/3 291/5/3
f 316/5/3 293/5/3 315/5/3
f 317/5/3 293/5/3 316/5/3
f 318/5/3 293/5/3 317/5/3
f 319/1/3 311/1/3 294/1/3
f 320/7/3 312/7/3 311/7/3
f 320/1/3 311/1/3 319/1/3
f 321/1/3 313/1/3 312/1/3
f 321/7/3 312/7/3 320/7/3
f 322/8/3 314/8/3 313/8/3
f 322/1/3 313/1/3 321/1/3
f 323/8/3 314/8/3 322/8/3
f 324/5/3 317/5/3 316/5/3
f 325/5/3 317/5/3 324/5/3
f 326/8/3 321/8/3 320/8/3
f 326/8/3 322/8/3 321/8/3
f 327/8/3 322/8/3 326/8/3
f 330/4/3 329/4/3 328/4/3
f 331/4/3 329/4/3 330/4/3
f 335/4/3 330/4/3 328/4/3
f 336/4/3 330/4/3 335/4/3
f 337/4/3 332/4/3 331/4/3
f 338/4/3 332/4/3 337/4/3
f 339/8/3 334/8/3 333/8/3
f 340/8/3 334/8/3 339/8/3
f 341/4/3 335/4/3 328/4/3
f 342/4/3 335/4/3 341/4/3
f 343/4/3 339/4/3 338/4/3
f 344/4/3 339/4/3 343/4/3
f 346/4/3 335/4/3 342/4/3
f 347/1/3 344/1/3 343/1/3
f 348/1/3 344/1/3 347/1/3
f 349/4/3 346/4/3 345/4/3
f 349/4/3 335/4/3 346/4/3
f 352/4/3 348/4/3 347/4/3
f 353/4/3 348/4/3 352/4/3
f 355/4/3 350/4/3 349/4/3
f 356/4/3 352/4/3 351/4/3
f 357/4/3 352/4/3 356/4/3
f 358/8/3 354/8/3 353/8/3
f 359/8/3 354/8/3 358/8/3
f 360/4/3 355/4/3 349/4/3
f 360/4/3 349/4/3 345/4/3
f 360/4/3 356/4/3 355/4/3
f 361/4/3 356/4/3 360/4/3
f 367/1/3 363/1/3 362/1/3
f 368/3/3 364/3/3 363/3/3
f 368/1/3 363/1/3 367/1/3
f 369/3/3 364/3/3 368/3/3
f 373/6/3 366/6/3 365/6/3
f 374/6/3 366/6/3 373/6/3
f 375/6/3 366/6/3 374/6/3
f 376/6/3 374/6/3 373/6/3
f 377/6/3 374/6/3 376/6/3
f 378/9/3 371/9/3 370/9/3
f 379/3/3 372/3/3 371/3/3
f 379/9/3 371/9/3 378/9/3
f 380/3/3 372/3/3 379/3/3
f 386/9/3 382/9/3 381/9/3
f 387/3/3 383/3/3 382/3/3
f 387/9/3 382/9/3 386/9/3
f 388/3/3 383/3/3 387/3/3
f 389/6/3 385/6/3 384/6/3
f 390/6/3 385/6/3 389/6/3
f 395/1/3 393/1/3 392/1/3
f 396/3/3 394/3/3 393/3/3
f 396/1/3 393/1/3 395/1/3
f 397/3/3 394/3/3 396/3/3
f 398/6/3 390/6/3 389/6/3
f 398/6/3 391/6/3 390/6/3
f 399/6/3 391/6/3 398/6/3
f 402/1/3 401/1/3 400/1/3
f 403/1/3 401/1/3 402/1/3
f 404/1/3 401/1/3 403/1/3
f 408/1/3 406/1/3 405/1/3
f 408/1/3 407/1/3 406/1/3
f 409/1/3 407/1/3 408/1/3
f 412/2/3 411/2/3 410/2/3
f 413/2/3 411/2/3 412/2/3
f 416/2/3 415/2/3 414/2/3
f 417/2/3 415/2/3 416/2/3
f 418/1/4 419/1/4 421/1/4
f 419/3/4 420/3/4 422/3/4
f 421/1/4 419/1/4 422/1/4
f 422/3/4 420/3/4 423/3/4
f 424/9/4 425/9/4 427/9/4
f 425/3/4 426/3/4 428/3/4
f 427/9/4 425/9/4 428/9/4
f 428/3/4 426/3/4 429/3/4
f 430/9/4 431/9/4 433/9/4
f 431/3/4 432/3/4 434/3/4
f 433/9/4 431/9/4 434/9/4
f 434/3/4 432/3/4 435/3/4
f 436/1/4 437/1/4 439/1/4
f 437/3/4 438/3/4 440/3/4
f 439/1/4 437/1/4 440/1/4
f 440/3/4 438/3/4 441/3/4
f 442/1/4 443/1/4 446/1/4
f 446/1/4 443/1/4 447/1/4
f 443/6/4 444/6/4 448/6/4
f 447/1/4 443/1/4 448/1/4
f 446/4/4 447/4/4 449/4/4
f 445/4/4 446/4/4 449/4/4
f 448/6/4 444/6/4 450/6/4
f 450/6/4 444/6/4 451/6/4
f 451/6/4 444/6/4 452/6/4
f 445/4/4 449/4/4 453/4/4
f 449/4/4 450/4/4 453/4/4
f 453/4/4 450/4/4 454/4/4
f 445/4/4 453/4/4 457/4/4
f 457/4/4 453/4/4 458/4/4
f 455/8/4 456/8/4 459/8/4
f 459/8/4 456/8/4 460/8/4
f 445/4/4 457/4/4 461/4/4
f 461/4/4 457/4/4 462/4/4
f 462/4/4 457/4/4 464/4/4
f 464/4/4 457/4/4 465/4/4
f 463/4/4 464/4/4 465/4/4
f 465/4/4 466/4/4 469/4/4
f 467/8/4 468/8/4 471/8/4
f 471/8/4 468/8/4 472/8/4
f 469/4/4 470/4/4 473/4/4
f 465/4/4 469/4/4 473/4/4
f 473/4/4 470/4/4 474/4/4
f 463/4/4 465/4/4 477/4/4
f 465/4/4 473/4/4 477/4/4
f 477/4/4 473/4/4 478/4/4
f 478/4/4 473/4/4 479/4/4
f 475/6/4 476/6/4 480/6/4
f 474/6/4 475/6/4 480/6/4
f 478/1/4 479/1/4 481/1/4
f 479/1/4 480/1/4 481/1/4
f 480/6/4 476/6/4 482/6/4
f 481/1/4 480/1/4 482/1/4
f 482/6/4 476/6/4 483/6/4
f 484/5/4 485/5/4 489/5/4
f 489/5/4 485/5/4 490/5/4
f 486/8/4 487/8/4 491/8/4
f 491/8/4 487/8/4 492/8/4
f 488/5/4 489/5/4 494/5/4
f 494/5/4 489/5/4 495/5/4
f 492/8/4 487/8/4 496/8/4
f 496/8/4 487/8/4 497/8/4
f 497/8/4 498/8/4 499/8/4
f 499/8/4 498/8/4 500/8/4
f 493/5/4 494/5/4 503/5/4
f 494/8/4 495/8/4 504/8/4
f 503/5/4 494/5/4 504/5/4
f 504/8/4 495/8/4 505/8/4
f 501/8/4 502/8/4 507/8/4
f 507/8/4 502/8/4 508/8/4
f 504/5/4 505/5/4 509/5/4
f 509/5/4 505/5/4 510/5/4
f 506/8/4 507/8/4 513/8/4
f 510/5/4 511/5/4 514/5/4
f 514/5/4 511/5/4 515/5/4
f 512/8/4 513/8/4 516/8/4
f 513/8/4 507/8/4 517/8/4
f 516/8/4 513/8/4 517/8/4
f 518/5/4 519/5/4 521/5/4
f 521/5/4 519/5/4 522/5/4
f 522/5/4 523/5/4 524/5/4
f 520/8/4 521/8/4 526/8/4
f 524/5/4 525/5/4 526/5/4
f 522/5/4 524/5/4 526/5/4
f 521/8/4 522/8/4 526/8/4
f 526/5/4 525/5/4 527/5/4
f 527/5/4 525/5/4 528/5/4
f 520/8/4 526/8/4 529/8/4
f 526/8/4 527/8/4 529/8/4
f 529/8/4 527/8/4 530/8/4
f 529/5/4 530/5/4 532/5/4
f 530/5/4 531/5/4 532/5/4
f 532/5/4 531/5/4 533/5/4
f 520/8/4 529/8/4 534/8/4
f 534/8/4 529/8/4 535/8/4
f 529/5/4 532/5/4 536/5/4
f 535/8/4 529/8/4 536/8/4
f 536/5/4 532/5/4 537/5/4
f 535/5/4 536/5/4 538/5/4
f 538/5/4 536/5/4 539/5/4
f 540/2/4 541/2/4 542/2/4
f 542/2/4 541/2/4 543/2/4
f 544/2/4 545/2/4 547/2/4
f 546/2/4 547/2/4 548/2/4
f 547/2/4 545/2/4 549/2/4
f 548/2/4 547/2/4 549/2/4
f 550/2/4 551/2/4 552/2/4
f 552/2/4 551/2/4 553/2/4
f 558/9/5 555/9/5 554/9/5
f 559/9/5 555/9/5 558/9/5
f 560/9/5 557/9/5 556/9/5
f 561/9/5 557/9/5 560/9/5
f 566/4/5 563/4/5 562/4/5
f 567/4/5 563/4/5 566/4/5
f 568/4/5 565/4/5 564/4/5
f 569/4/5 565/4/5 568/4/5
f 570/4/5 566/4/5 562/4/5
f 571/4/5 563/4/5 567/4/5
f 572/4/5 568/4/5 564/4/5
f 573/4/5 565/4/5 569/4/5
f 574/4/5 570/4/5 562/4/5
f 574/4/5 571/4/5 570/4/5
f 575/4/5 563/4/5 571/4/5
f 575/4/5 571/4/5 574/4/5
f 576/4/5 573/4/5 572/4/5
f 576/4/5 572/4/5 564/4/5
f 577/4/5 565/4/5 573/4/5
f 577/4/5 573/4/5 576/4/5
f 582/1/5 579/1/5 578/1/5
f 583/1/5 579/1/5 582/1/5
f 584/1/5 581/1/5 580/1/5
f 585/1/5 581/1/5 584/1/5
f 588/4/5 587/4/5 586/4/5
f 589/4/5 587/4/5 588/4/5
f 592/5/5 591/5/5 590/5/5
f 593/5/5 591/5/5 592/5/5
f 598/1/5 595/1/5 594/1/5
f 599/1/5 595/1/5 598/1/5
f 600/1/5 597/1/5 596/1/5
f 601/1/5 597/1/5 600/1/5
f 606/5/5 603/5/5 602/5/5
f 607/5/5 603/5/5 606/5/5
f 608/5/5 605/5/5 604/5/5
f 609/5/5 605/5/5 608/5/5
f 612/5/5 611/5/5 610/5/5
f 613/5/5 611/5/5 612/5/5
f 618/5/5 615/5/5 614/5/5
f 619/5/5 615/5/5 618/5/5
f 620/5/5 617/5/5 616/5/5
f 621/5/5 617/5/5 620/5/5
f 626/6/5 623/6/5 622/6/5
f 627/6/5 623/6/5 626/6/5
f 628/6/5 623/6/5 627/6/5
f 629/6/5 625/6/5 624/6/5
f 630/6/5 625/6/5 629/6/5
f 631/6/5 625/6/5 630/6/5
f 632/9/5 628/9/5 627/9/5
f 633/9/5 628/9/5 632/9/5
f 634/9/5 630/9/5 629/9/5
f 635/9/5 630/9/5 634/9/5
f 636/6/5 633/6/5 632/6/5
f 637/6/5 633/6/5 636/6/5
f 640/6/5 635/6/5 634/6/5
f 641/6/5 635/6/5 640/6/5
f 642/5/5 638/5/5 637/5/5
f 643/5/5 638/5/5 642/5/5
f 646/5/5 640/5/5 639/5/5
f 647/5/5 640/5/5 646/5/5
f 648/8/5 645/8/5 644/8/5
f 648/8/5 646/8/5 645/8/5
f 648/8/5 644/8/5 643/8/5
f 649/8/5 646/8/5 648/8/5
f 653/1/5 651/1/5 650/1/5
f 654/1/5 651/1/5 653/1/5
f 655/1/5 651/1/5 654/1/5
f 656/1/5 651/1/5 655/1/5
f 658/8/5 653/8/5 652/8/5
f 659/8/5 653/8/5 658/8/5
f 660/8/5 657/8/5 656/8/5
f 661/8/5 657/8/5 660/8/5
f 666/5/5 663/5/5 662/5/5
f 667/5/5 663/5/5 666/5/5
f 668/5/5 665/5/5 664/5/5
f 669/5/5 665/5/5 668/5/5
f 674/8/5 671/8/5 670/8/5
f 675/8/5 671/8/5 674/8/5
f 676/8/5 673/8/5 672/8/5
f 677/8/5 673/8/5 676/8/5
f 680/2/5 679/2/5 678/2/5
f 681/2/5 679/2/5 680/2/5
f 684/8/5 683/8/5 682/8/5
f 685/8/5 683/8/5 684/8/5
f 688/2/5 687/2/5 686/2/5
f 689/2/5 687/2/5 688/2/5
f 690/2/5 687/2/5 689/2/5
f 693/2/5 692/2/5 691/2/5
f 694/2/5 692/2/5 693/2/5
f 699/8/5 696/8/5 695/8/5
f 700/8/5 696/8/5 699/8/5
f 701/8/5 698/8/5 697/8/5
f 702/8/5 698/8/5 701/8/5
f 703/3/6 704/3/6 707/3/6
f 707/3/6 704/3/6 708/3/6
f 705/3/6 706/3/6 709/3/6
f 709/3/6 706/3/6 710/3/6
f 711/5/6 712/5/6 716/5/6
f 716/5/6 712/5/6 717/5/6
f 713/5/6 714/5/6 718/5/6
f 718/5/6 714/5/6 719/5/6
f 715/4/6 716/4/6 721/4/6
f 721/4/6 716/4/6 722/4/6
f 719/4/6 720/4/6 723/4/6
f 723/4/6 720/4/6 724/4/6
f 721/9/6 722/9/6 725/9/6
f 725/9/6 722/9/6 726/9/6
f 723/9/6 724/9/6 727/9/6
f 727/9/6 724/9/6 728/9/6
f 725/4/6 726/4/6 729/4/6
f 729/4/6 726/4/6 730/4/6
f 727/4/6 728/4/6 731/4/6
f 731/4/6 728/4/6 732/4/6
f 733/5/6 734/5/6 736/5/6
f 736/5/6 734/5/6 737/5/6
f 737/5/6 734/5/6 738/5/6
f 738/5/6 734/5/6 739/5/6
f 735/4/6 736/4/6 741/4/6
f 741/4/6 736/4/6 742/4/6
f 739/4/6 740/4/6 743/4/6
f 743/4/6 740/4/6 744/4/6
f 745/6/6 746/6/6 749/6/6
f 749/6/6 746/6/6 750/6/6
f 747/6/6 748/6/6 751/6/6
f 751/6/6 748/6/6 752/6/6
f 753/5/6 754/5/6 757/5/6
f 757/5/6 754/5/6 758/5/6
f 755/5/6 756/5/6 759/5/6
f 759/5/6 756/5/6 760/5/6
f 761/5/6 762/5/6 765/5/6
f 765/5/6 762/5/6 766/5/6
f 763/5/6 764/5/6 767/5/6
f 767/5/6 764/5/6 768/5/6
f 769/2/6 770/2/6 771/2/6
f 771/2/6 770/2/6 772/2/6
f 773/8/6 774/8/6 777/8/6
f 775/8/6 776/8/6 780/8/6
f 777/8/6 778/8/6 781/8/6
f 773/8/6 777/8/6 781/8/6
f 781/8/6 778/8/6 782/8/6
f 779/8/6 780/8/6 785/8/6
f 780/8/6 776/8/6 786/8/6
f 785/8/6 780/8/6 786/8/6
f 782/5/6 783/5/6 787/5/6
f 787/5/6 783/5/6 788/5/6
f 784/5/6 785/5/6 789/5/6
f 789/5/6 785/5/6 790/5/6
f 791/2/6 792/2/6 793/2/6
f 793/2/6 792/2/6 794/2/6
f 795/8/6 796/8/6 798/8/6
f 798/8/6 796/8/6 799/8/6
f 797/8/6 798/8/6 801/8/6
f 799/8/6 800/8/6 801/8/6
f 798/8/6 799/8/6 801/8/6
f 801/8/6 800/8/6 802/8/6
f 802/8/6 800/8/6 803/8/6
f 803/8/6 800/8/6 804/8/6
f 802/8/6 803/8/6 805/8/6
f 805/8/6 803/8/6 806/8/6
f 806/8/6 803/8/6 807/8/6
f 807/8/6 803/8/6 808/8/6
f 806/3/6 807/3/6 809/3/6
f 809/3/6 807/3/6 810/3/6
f 809/2/6 810/2/6 811/2/6
f 811/2/6 810/2/6 812/2/6
