# MagicaVoxel @ Ephtracy

# material
mtllib demon.mtl
usemtl palette

# normals
vn -1 0 0
vn 1 0 0
vn 0 0 1
vn 0 0 -1
vn 0 -1 0
vn 0 1 0

# texcoords
vt 0.154297 0.5
vt 0.162109 0.5
vt 0.556641 0.5
vt 0.654297 0.5
vt 0.794922 0.5
vt 0.861328 0.5
vt 0.869141 0.5
vt 0.962891 0.5
vt 0.982422 0.5
vt 0.994141 0.5

# verts
v -7 4 3
v -7 4 1
v -7 4 -0
v -7 6 3
v -7 6 1
v -7 6 -0
v -6 4 -0
v -6 4 -1
v -6 6 1
v -6 6 -0
v -6 7 1
v -6 7 -1
v -5 3 1
v -5 3 -2
v -5 4 1
v -5 4 -1
v -5 7 -1
v -5 7 -2
v -4 0 1
v -4 0 -1
v -4 3 1
v -4 3 -1
v -4 4 -2
v -4 4 -3
v -4 5 2
v -4 5 1
v -4 6 3
v -4 6 2
v -4 6 1
v -4 7 1
v -4 7 -2
v -4 7 -3
v -4 8 3
v -4 8 1
v -4 8 -2
v -4 9 -1
v -4 9 -3
v -4 10 -0
v -4 10 -1
v -4 10 -2
v -4 10 -3
v -4 11 -0
v -4 11 -2
v -3 4 2
v -3 4 1
v -3 4 -3
v -3 4 -4
v -3 5 3
v -3 5 2
v -3 5 1
v -3 6 3
v -3 6 2
v -3 7 -2
v -3 7 -3
v -3 7 -4
v -3 8 2
v -3 8 1
v -3 8 -1
v -3 8 -2
v -3 8 -3
v -3 9 -1
v -3 10 -0
v -3 10 -1
v -3 11 2
v -3 11 -0
v -2 3 2
v -2 3 1
v -2 3 -2
v -2 3 -3
v -2 4 2
v -2 4 1
v -2 4 -2
v -2 4 -3
v -2 5 4
v -2 5 3
v -2 7 4
v -2 7 3
v -2 8 3
v -2 8 2
v -2 8 -1
v -2 8 -2
v -2 9 3
v -2 9 2
v -2 10 3
v -2 10 2
v -2 10 -1
v -2 11 3
v -2 11 2
v -2 11 1
v -2 11 -0
v -2 11 -1
v -2 11 -2
v -2 12 1
v -2 12 -1
v -1 8 4
v -1 8 3
v -1 9 4
v -1 9 3
v 1 9 3
v 1 9 2
v 1 10 3
v 1 10 2
v 1 11 3
v 1 11 2
v 2 1 1
v 2 1 -1
v 2 2 1
v 2 2 -1
v 2 7 3
v 2 7 2
v 2 8 3
v 2 8 2
v 3 0 1
v 3 0 -1
v 3 1 1
v 3 1 -1
v 3 9 -1
v 3 9 -3
v 3 10 -1
v 3 10 -2
v 3 10 -3
v 3 11 -1
v 3 11 -2
v 5 4 3
v 5 4 2
v 5 4 1
v 5 6 3
v 5 6 2
v 5 6 1
v -5 4 3
v -5 4 2
v -5 4 1
v -5 6 3
v -5 6 2
v -5 6 1
v -3 0 1
v -3 0 -1
v -3 1 1
v -3 1 -1
v -3 9 -1
v -3 9 -3
v -3 10 -1
v -3 10 -2
v -3 10 -3
v -3 11 -1
v -3 11 -2
v -2 1 1
v -2 1 -1
v -2 2 1
v -2 2 -1
v -2 7 3
v -2 7 2
v -2 8 3
v -2 8 2
v -1 9 3
v -1 9 2
v -1 10 3
v -1 10 2
v -1 11 3
v -1 11 2
v 1 8 4
v 1 8 3
v 1 9 4
v 1 9 3
v 2 3 2
v 2 3 1
v 2 3 -2
v 2 3 -3
v 2 4 2
v 2 4 1
v 2 4 -2
v 2 4 -3
v 2 5 4
v 2 5 3
v 2 7 4
v 2 7 3
v 2 8 3
v 2 8 2
v 2 8 -1
v 2 8 -2
v 2 9 3
v 2 9 2
v 2 10 3
v 2 10 2
v 2 10 -1
v 2 11 3
v 2 11 2
v 2 11 1
v 2 11 -0
v 2 11 -1
v 2 11 -2
v 2 12 1
v 2 12 -1
v 3 4 2
v 3 4 1
v 3 4 -3
v 3 4 -4
v 3 5 3
v 3 5 2
v 3 5 1
v 3 6 3
v 3 6 2
v 3 7 -2
v 3 7 -3
v 3 7 -4
v 3 8 2
v 3 8 1
v 3 8 -1
v 3 8 -2
v 3 8 -3
v 3 9 -1
v 3 10 -0
v 3 10 -1
v 3 11 2
v 3 11 -0
v 4 0 1
v 4 0 -1
v 4 3 1
v 4 3 -1
v 4 4 -2
v 4 4 -3
v 4 5 2
v 4 5 1
v 4 6 3
v 4 6 2
v 4 6 1
v 4 7 1
v 4 7 -2
v 4 7 -3
v 4 8 3
v 4 8 1
v 4 8 -2
v 4 9 -1
v 4 9 -3
v 4 10 -0
v 4 10 -1
v 4 10 -2
v 4 10 -3
v 4 11 -0
v 4 11 -2
v 5 3 1
v 5 3 -2
v 5 4 1
v 5 4 -1
v 5 7 -1
v 5 7 -2
v 6 4 -0
v 6 4 -1
v 6 6 1
v 6 6 -0
v 6 7 1
v 6 7 -1
v 7 4 3
v 7 4 1
v 7 4 -0
v 7 6 3
v 7 6 1
v 7 6 -0
v -2 5 4
v -2 7 4
v -1 8 4
v -1 9 4
v 1 8 4
v 1 9 4
v 2 5 4
v 2 7 4
v -7 4 3
v -7 6 3
v -5 4 3
v -5 6 3
v -4 6 3
v -4 8 3
v -3 5 3
v -3 6 3
v -2 5 3
v -2 7 3
v -2 8 3
v -2 9 3
v -2 10 3
v -2 11 3
v -1 8 3
v -1 9 3
v -1 10 3
v -1 11 3
v 1 8 3
v 1 9 3
v 1 10 3
v 1 11 3
v 2 5 3
v 2 7 3
v 2 8 3
v 2 9 3
v 2 10 3
v 2 11 3
v 3 5 3
v 3 6 3
v 4 6 3
v 4 8 3
v 5 4 3
v 5 6 3
v 7 4 3
v 7 6 3
v -4 5 2
v -4 6 2
v -3 4 2
v -3 5 2
v -3 6 2
v -3 8 2
v -3 11 2
v -2 3 2
v -2 4 2
v -2 7 2
v -2 8 2
v -2 9 2
v -2 10 2
v -2 11 2
v -1 9 2
v -1 10 2
v -1 11 2
v 1 9 2
v 1 10 2
v 1 11 2
v 2 3 2
v 2 4 2
v 2 7 2
v 2 8 2
v 2 9 2
v 2 10 2
v 2 11 2
v 3 4 2
v 3 5 2
v 3 6 2
v 3 8 2
v 3 11 2
v 4 5 2
v 4 6 2
v -6 6 1
v -6 7 1
v -5 3 1
v -5 4 1
v -5 6 1
v -4 0 1
v -4 3 1
v -4 4 1
v -4 5 1
v -4 6 1
v -4 7 1
v -3 0 1
v -3 1 1
v -3 4 1
v -3 5 1
v -2 1 1
v -2 2 1
v -2 3 1
v -2 4 1
v -2 11 1
v -2 12 1
v 2 1 1
v 2 2 1
v 2 3 1
v 2 4 1
v 2 11 1
v 2 12 1
v 3 0 1
v 3 1 1
v 3 4 1
v 3 5 1
v 4 0 1
v 4 3 1
v 4 4 1
v 4 5 1
v 4 6 1
v 4 7 1
v 5 3 1
v 5 4 1
v 5 6 1
v 6 6 1
v 6 7 1
v -4 10 -0
v -4 11 -0
v -3 10 -0
v -3 11 -0
v 3 10 -0
v 3 11 -0
v 4 10 -0
v 4 11 -0
v -4 9 -1
v -4 10 -1
v -3 9 -1
v -3 10 -1
v 3 9 -1
v 3 10 -1
v 4 9 -1
v 4 10 -1
v -7 4 -0
v -7 6 -0
v -6 4 -0
v -6 6 -0
v 6 4 -0
v 6 6 -0
v 7 4 -0
v 7 6 -0
v -6 4 -1
v -6 7 -1
v -5 4 -1
v -5 7 -1
v -4 0 -1
v -4 3 -1
v -3 0 -1
v -3 1 -1
v -3 8 -1
v -3 9 -1
v -3 10 -1
v -3 11 -1
v -2 1 -1
v -2 2 -1
v -2 8 -1
v -2 10 -1
v -2 11 -1
v -2 12 -1
v 2 1 -1
v 2 2 -1
v 2 8 -1
v 2 10 -1
v 2 11 -1
v 2 12 -1
v 3 0 -1
v 3 1 -1
v 3 8 -1
v 3 9 -1
v 3 10 -1
v 3 11 -1
v 4 0 -1
v 4 3 -1
v 5 4 -1
v 5 7 -1
v 6 4 -1
v 6 7 -1
v -5 3 -2
v -5 7 -2
v -4 3 -2
v -4 4 -2
v -4 7 -2
v -4 8 -2
v -4 10 -2
v -4 11 -2
v -3 4 -2
v -3 7 -2
v -3 8 -2
v -3 10 -2
v -3 11 -2
v -2 3 -2
v -2 4 -2
v -2 8 -2
v -2 11 -2
v 2 3 -2
v 2 4 -2
v 2 8 -2
v 2 11 -2
v 3 4 -2
v 3 7 -2
v 3 8 -2
v 3 10 -2
v 3 11 -2
v 4 3 -2
v 4 4 -2
v 4 7 -2
v 4 8 -2
v 4 10 -2
v 4 11 -2
v 5 3 -2
v 5 7 -2
v -4 4 -3
v -4 7 -3
v -4 9 -3
v -4 10 -3
v -3 4 -3
v -3 7 -3
v -3 8 -3
v -3 9 -3
v -3 10 -3
v -2 3 -3
v -2 4 -3
v 2 3 -3
v 2 4 -3
v 3 4 -3
v 3 7 -3
v 3 8 -3
v 3 9 -3
v 3 10 -3
v 4 4 -3
v 4 7 -3
v 4 9 -3
v 4 10 -3
v -3 4 -4
v -3 7 -4
v 3 4 -4
v 3 7 -4
v -4 0 1
v -3 0 1
v 3 0 1
v 4 0 1
v -4 0 -1
v -3 0 -1
v 3 0 -1
v 4 0 -1
v -3 1 1
v -2 1 1
v 2 1 1
v 3 1 1
v -3 1 -1
v -2 1 -1
v 2 1 -1
v 3 1 -1
v -2 2 1
v 2 2 1
v -2 2 -1
v 2 2 -1
v -2 3 2
v 2 3 2
v -5 3 1
v -4 3 1
v -2 3 1
v 2 3 1
v 4 3 1
v 5 3 1
v -4 3 -1
v 4 3 -1
v -5 3 -2
v -4 3 -2
v -2 3 -2
v 2 3 -2
v 4 3 -2
v 5 3 -2
v -2 3 -3
v 2 3 -3
v -7 4 3
v -5 4 3
v 5 4 3
v 7 4 3
v -6 4 2
v -5 4 2
v -3 4 2
v -2 4 2
v 2 4 2
v 3 4 2
v 5 4 2
v 6 4 2
v -7 4 1
v -6 4 1
v -5 4 1
v -3 4 1
v -2 4 1
v 2 4 1
v 3 4 1
v 5 4 1
v 6 4 1
v 7 4 1
v -7 4 -0
v -6 4 -0
v 6 4 -0
v 7 4 -0
v -6 4 -1
v -5 4 -1
v 5 4 -1
v 6 4 -1
v -4 4 -2
v -3 4 -2
v -2 4 -2
v 2 4 -2
v 3 4 -2
v 4 4 -2
v -4 4 -3
v -3 4 -3
v -2 4 -3
v 2 4 -3
v 3 4 -3
v 4 4 -3
v -3 4 -4
v 3 4 -4
v -2 5 4
v 2 5 4
v -3 5 3
v -2 5 3
v 2 5 3
v 3 5 3
v -4 5 2
v -3 5 2
v 3 5 2
v 4 5 2
v -4 5 1
v -3 5 1
v 3 5 1
v 4 5 1
v -4 6 3
v -3 6 3
v 3 6 3
v 4 6 3
v -4 6 2
v -3 6 2
v 3 6 2
v 4 6 2
v -1 8 4
v 1 8 4
v -2 8 3
v -1 8 3
v 1 8 3
v 2 8 3
v -2 8 2
v 2 8 2
v -4 9 -1
v -3 9 -1
v 3 9 -1
v 4 9 -1
v -4 9 -3
v -3 9 -3
v 3 9 -3
v 4 9 -3
v -4 10 -0
v -3 10 -0
v 3 10 -0
v 4 10 -0
v -4 10 -1
v -3 10 -1
v 3 10 -1
v 4 10 -1
v -7 6 3
v -5 6 3
v 5 6 3
v 7 6 3
v -6 6 2
v -5 6 2
v 5 6 2
v 6 6 2
v -7 6 1
v -6 6 1
v -5 6 1
v 5 6 1
v 6 6 1
v 7 6 1
v -7 6 -0
v -6 6 -0
v 6 6 -0
v 7 6 -0
v -2 7 4
v 2 7 4
v -2 7 3
v 2 7 3
v -2 7 2
v 2 7 2
v -6 7 1
v -4 7 1
v 4 7 1
v 6 7 1
v -6 7 -1
v -5 7 -1
v 5 7 -1
v 6 7 -1
v -5 7 -2
v -4 7 -2
v -3 7 -2
v 3 7 -2
v 4 7 -2
v 5 7 -2
v -4 7 -3
v -3 7 -3
v 3 7 -3
v 4 7 -3
v -3 7 -4
v 3 7 -4
v -4 8 3
v -2 8 3
v 2 8 3
v 4 8 3
v -3 8 2
v -2 8 2
v 2 8 2
v 3 8 2
v -4 8 1
v -3 8 1
v 3 8 1
v 4 8 1
v -3 8 -1
v -2 8 -1
v 2 8 -1
v 3 8 -1
v -4 8 -2
v -3 8 -2
v -2 8 -2
v 2 8 -2
v 3 8 -2
v 4 8 -2
v -3 8 -3
v 3 8 -3
v -1 9 4
v 1 9 4
v -1 9 3
v 1 9 3
v -1 9 2
v 1 9 2
v -4 10 -2
v -3 10 -2
v 3 10 -2
v 4 10 -2
v -4 10 -3
v -3 10 -3
v 3 10 -3
v 4 10 -3
v -2 11 3
v -1 11 3
v 1 11 3
v 2 11 3
v -3 11 2
v -2 11 2
v -1 11 2
v 1 11 2
v 2 11 2
v 3 11 2
v -2 11 1
v 2 11 1
v -4 11 -0
v -3 11 -0
v -2 11 -0
v 2 11 -0
v 3 11 -0
v 4 11 -0
v -3 11 -1
v -2 11 -1
v 2 11 -1
v 3 11 -1
v -4 11 -2
v -3 11 -2
v -2 11 -2
v 2 11 -2
v 3 11 -2
v 4 11 -2
v -2 12 1
v 2 12 1
v -2 12 -1
v 2 12 -1

# faces
f 4/6/1 2/6/1 1/6/1
f 5/7/1 3/7/1 2/7/1
f 5/6/1 2/6/1 4/6/1
f 6/7/1 3/7/1 5/7/1
f 10/5/1 8/5/1 7/5/1
f 11/5/1 10/5/1 9/5/1
f 12/5/1 8/5/1 10/5/1
f 12/5/1 10/5/1 11/5/1
f 15/5/1 14/5/1 13/5/1
f 16/5/1 14/5/1 15/5/1
f 17/5/1 14/5/1 16/5/1
f 18/5/1 14/5/1 17/5/1
f 21/3/1 20/3/1 19/3/1
f 22/3/1 20/3/1 21/3/1
f 28/6/1 26/6/1 25/6/1
f 29/6/1 26/6/1 28/6/1
f 30/6/1 28/6/1 27/6/1
f 30/6/1 29/6/1 28/6/1
f 31/3/1 24/3/1 23/3/1
f 32/3/1 24/3/1 31/3/1
f 33/6/1 30/6/1 27/6/1
f 34/3/1 31/3/1 30/3/1
f 34/6/1 30/6/1 33/6/1
f 35/3/1 31/3/1 34/3/1
f 39/2/1 37/2/1 36/2/1
f 40/2/1 37/2/1 39/2/1
f 41/2/1 37/2/1 40/2/1
f 42/2/1 39/2/1 38/2/1
f 42/2/1 40/2/1 39/2/1
f 43/2/1 40/2/1 42/2/1
f 49/5/1 45/5/1 44/5/1
f 50/5/1 45/5/1 49/5/1
f 51/6/1 49/6/1 48/6/1
f 52/6/1 49/6/1 51/6/1
f 54/5/1 47/5/1 46/5/1
f 55/5/1 47/5/1 54/5/1
f 59/5/1 54/5/1 53/5/1
f 60/5/1 54/5/1 59/5/1
f 61/6/1 58/6/1 57/6/1
f 61/6/1 57/6/1 56/6/1
f 62/6/1 61/6/1 56/6/1
f 63/6/1 61/6/1 62/6/1
f 64/6/1 62/6/1 56/6/1
f 65/6/1 62/6/1 64/6/1
f 70/3/1 67/3/1 66/3/1
f 71/3/1 67/3/1 70/3/1
f 72/3/1 69/3/1 68/3/1
f 73/3/1 69/3/1 72/3/1
f 76/6/1 75/6/1 74/6/1
f 77/6/1 75/6/1 76/6/1
f 82/6/1 79/6/1 78/6/1
f 83/6/1 79/6/1 82/6/1
f 84/8/1 83/8/1 82/8/1
f 85/8/1 83/8/1 84/8/1
f 86/6/1 81/6/1 80/6/1
f 87/10/1 85/10/1 84/10/1
f 88/10/1 85/10/1 87/10/1
f 91/6/1 81/6/1 86/6/1
f 92/6/1 81/6/1 91/6/1
f 93/6/1 90/6/1 89/6/1
f 93/6/1 91/6/1 90/6/1
f 94/6/1 91/6/1 93/6/1
f 97/6/1 96/6/1 95/6/1
f 98/6/1 96/6/1 97/6/1
f 101/8/1 100/8/1 99/8/1
f 102/8/1 100/8/1 101/8/1
f 103/10/1 102/10/1 101/10/1
f 104/10/1 102/10/1 103/10/1
f 107/3/1 106/3/1 105/3/1
f 108/3/1 106/3/1 107/3/1
f 111/6/1 110/6/1 109/6/1
f 112/6/1 110/6/1 111/6/1
f 115/3/1 114/3/1 113/3/1
f 116/3/1 114/3/1 115/3/1
f 119/2/1 118/2/1 117/2/1
f 120/2/1 118/2/1 119/2/1
f 121/2/1 118/2/1 120/2/1
f 122/2/1 120/2/1 119/2/1
f 123/2/1 120/2/1 122/2/1
f 127/6/1 125/6/1 124/6/1
f 128/7/1 126/7/1 125/7/1
f 128/6/1 125/6/1 127/6/1
f 129/7/1 126/7/1 128/7/1
f 130/6/2 131/6/2 133/6/2
f 131/7/2 132/7/2 134/7/2
f 133/6/2 131/6/2 134/6/2
f 134/7/2 132/7/2 135/7/2
f 136/3/2 137/3/2 138/3/2
f 138/3/2 137/3/2 139/3/2
f 140/2/2 141/2/2 142/2/2
f 142/2/2 141/2/2 143/2/2
f 143/2/2 141/2/2 144/2/2
f 142/2/2 143/2/2 145/2/2
f 145/2/2 143/2/2 146/2/2
f 147/3/2 148/3/2 149/3/2
f 149/3/2 148/3/2 150/3/2
f 151/6/2 152/6/2 153/6/2
f 153/6/2 152/6/2 154/6/2
f 155/8/2 156/8/2 157/8/2
f 157/8/2 156/8/2 158/8/2
f 157/10/2 158/10/2 159/10/2
f 159/10/2 158/10/2 160/10/2
f 161/6/2 162/6/2 163/6/2
f 163/6/2 162/6/2 164/6/2
f 165/3/2 166/3/2 169/3/2
f 169/3/2 166/3/2 170/3/2
f 167/3/2 168/3/2 171/3/2
f 171/3/2 168/3/2 172/3/2
f 173/6/2 174/6/2 175/6/2
f 175/6/2 174/6/2 176/6/2
f 177/6/2 178/6/2 181/6/2
f 181/6/2 178/6/2 182/6/2
f 181/8/2 182/8/2 183/8/2
f 183/8/2 182/8/2 184/8/2
f 179/6/2 180/6/2 185/6/2
f 183/10/2 184/10/2 186/10/2
f 186/10/2 184/10/2 187/10/2
f 185/6/2 180/6/2 190/6/2
f 190/6/2 180/6/2 191/6/2
f 188/6/2 189/6/2 192/6/2
f 189/6/2 190/6/2 192/6/2
f 192/6/2 190/6/2 193/6/2
f 194/5/2 195/5/2 199/5/2
f 199/5/2 195/5/2 200/5/2
f 198/6/2 199/6/2 201/6/2
f 201/6/2 199/6/2 202/6/2
f 196/5/2 197/5/2 204/5/2
f 204/5/2 197/5/2 205/5/2
f 203/5/2 204/5/2 209/5/2
f 209/5/2 204/5/2 210/5/2
f 207/6/2 208/6/2 211/6/2
f 206/6/2 207/6/2 211/6/2
f 206/6/2 211/6/2 212/6/2
f 212/6/2 211/6/2 213/6/2
f 206/6/2 212/6/2 214/6/2
f 214/6/2 212/6/2 215/6/2
f 216/3/2 217/3/2 218/3/2
f 218/3/2 217/3/2 219/3/2
f 222/6/2 223/6/2 225/6/2
f 225/6/2 223/6/2 226/6/2
f 224/6/2 225/6/2 227/6/2
f 225/6/2 226/6/2 227/6/2
f 220/3/2 221/3/2 228/3/2
f 228/3/2 221/3/2 229/3/2
f 224/6/2 227/6/2 230/6/2
f 227/3/2 228/3/2 231/3/2
f 230/6/2 227/6/2 231/6/2
f 231/3/2 228/3/2 232/3/2
f 233/2/2 234/2/2 236/2/2
f 236/2/2 234/2/2 237/2/2
f 237/2/2 234/2/2 238/2/2
f 235/2/2 236/2/2 239/2/2
f 236/2/2 237/2/2 239/2/2
f 239/2/2 237/2/2 240/2/2
f 241/5/2 242/5/2 243/5/2
f 243/5/2 242/5/2 244/5/2
f 244/5/2 242/5/2 245/5/2
f 245/5/2 242/5/2 246/5/2
f 247/5/2 248/5/2 250/5/2
f 249/5/2 250/5/2 251/5/2
f 250/5/2 248/5/2 252/5/2
f 251/5/2 250/5/2 252/5/2
f 253/6/2 254/6/2 256/6/2
f 254/7/2 255/7/2 257/7/2
f 256/6/2 254/6/2 257/6/2
f 257/7/2 255/7/2 258/7/2
f 263/6/3 262/6/3 261/6/3
f 264/6/3 262/6/3 263/6/3
f 265/6/3 260/6/3 259/6/3
f 266/6/3 260/6/3 265/6/3
f 269/6/3 268/6/3 267/6/3
f 270/6/3 268/6/3 269/6/3
f 274/6/3 272/6/3 271/6/3
f 275/6/3 274/6/3 273/6/3
f 276/6/3 272/6/3 274/6/3
f 276/6/3 274/6/3 275/6/3
f 277/6/3 272/6/3 276/6/3
f 281/6/3 278/6/3 277/6/3
f 282/8/3 279/8/3 278/8/3
f 282/6/3 278/6/3 281/6/3
f 283/10/3 280/10/3 279/10/3
f 283/8/3 279/8/3 282/8/3
f 284/10/3 280/10/3 283/10/3
f 291/6/3 286/6/3 285/6/3
f 292/8/3 287/8/3 286/8/3
f 292/6/3 286/6/3 291/6/3
f 293/10/3 288/10/3 287/10/3
f 293/8/3 287/8/3 292/8/3
f 294/10/3 288/10/3 293/10/3
f 295/6/3 290/6/3 289/6/3
f 295/6/3 291/6/3 290/6/3
f 296/6/3 291/6/3 295/6/3
f 297/6/3 291/6/3 296/6/3
f 298/6/3 291/6/3 297/6/3
f 301/6/3 300/6/3 299/6/3
f 302/6/3 300/6/3 301/6/3
f 306/6/3 304/6/3 303/6/3
f 307/6/3 304/6/3 306/6/3
f 311/5/3 306/5/3 305/5/3
f 313/6/3 309/6/3 308/6/3
f 314/6/3 309/6/3 313/6/3
f 315/6/3 309/6/3 314/6/3
f 316/6/3 309/6/3 315/6/3
f 320/6/3 318/6/3 317/6/3
f 320/6/3 319/6/3 318/6/3
f 321/6/3 319/6/3 320/6/3
f 322/6/3 319/6/3 321/6/3
f 323/3/3 311/3/3 310/3/3
f 324/5/3 306/5/3 311/5/3
f 324/3/3 311/3/3 323/3/3
f 325/7/3 313/7/3 312/7/3
f 326/7/3 313/7/3 325/7/3
f 330/5/3 306/5/3 324/5/3
f 331/5/3 306/5/3 330/5/3
f 333/6/3 329/6/3 328/6/3
f 333/6/3 328/6/3 327/6/3
f 333/6/3 327/6/3 326/6/3
f 334/6/3 329/6/3 333/6/3
f 335/6/3 332/6/3 331/6/3
f 336/6/3 332/6/3 335/6/3
f 341/5/3 338/5/3 337/5/3
f 343/5/3 340/5/3 339/5/3
f 344/4/3 341/4/3 340/4/3
f 344/5/3 340/5/3 343/5/3
f 345/4/3 341/4/3 344/4/3
f 346/5/3 338/5/3 341/5/3
f 346/4/3 341/4/3 345/4/3
f 347/5/3 338/5/3 346/5/3
f 348/3/3 343/3/3 342/3/3
f 348/3/3 345/3/3 344/3/3
f 348/3/3 344/3/3 343/3/3
f 349/3/3 345/3/3 348/3/3
f 350/3/3 345/3/3 349/3/3
f 351/3/3 345/3/3 350/3/3
f 352/3/3 350/3/3 349/3/3
f 353/3/3 350/3/3 352/3/3
f 354/3/3 350/3/3 353/3/3
f 355/3/3 350/3/3 354/3/3
f 359/3/3 354/3/3 353/3/3
f 360/3/3 354/3/3 359/3/3
f 362/6/3 357/6/3 356/6/3
f 363/6/3 357/6/3 362/6/3
f 365/3/3 361/3/3 360/3/3
f 365/3/3 359/3/3 358/3/3
f 365/3/3 360/3/3 359/3/3
f 366/3/3 361/3/3 365/3/3
f 368/3/3 365/3/3 364/3/3
f 368/3/3 367/3/3 366/3/3
f 368/3/3 366/3/3 365/3/3
f 369/3/3 367/3/3 368/3/3
f 370/3/3 367/3/3 369/3/3
f 371/3/3 367/3/3 370/3/3
f 374/5/3 370/5/3 369/5/3
f 375/4/3 372/4/3 371/4/3
f 375/5/3 370/5/3 374/5/3
f 375/4/3 371/4/3 370/4/3
f 376/5/3 373/5/3 372/5/3
f 376/4/3 372/4/3 375/4/3
f 377/5/3 373/5/3 376/5/3
f 378/5/3 373/5/3 377/5/3
f 381/2/3 380/2/3 379/2/3
f 382/2/3 380/2/3 381/2/3
f 385/2/3 384/2/3 383/2/3
f 386/2/3 384/2/3 385/2/3
f 389/2/3 388/2/3 387/2/3
f 390/2/3 388/2/3 389/2/3
f 393/2/3 392/2/3 391/2/3
f 394/2/3 392/2/3 393/2/3
f 395/7/4 396/7/4 397/7/4
f 397/7/4 396/7/4 398/7/4
f 399/7/4 400/7/4 401/7/4
f 401/7/4 400/7/4 402/7/4
f 403/5/4 404/5/4 405/5/4
f 405/5/4 404/5/4 406/5/4
f 407/3/4 408/3/4 409/3/4
f 409/3/4 408/3/4 410/3/4
f 410/3/4 408/3/4 415/3/4
f 415/3/4 408/3/4 416/3/4
f 412/6/4 413/6/4 417/6/4
f 411/6/4 412/6/4 417/6/4
f 413/2/4 414/2/4 418/2/4
f 417/6/4 413/6/4 418/6/4
f 418/2/4 414/2/4 419/2/4
f 416/3/4 408/3/4 422/3/4
f 419/6/4 420/6/4 425/6/4
f 425/6/4 420/6/4 426/6/4
f 421/3/4 422/3/4 428/3/4
f 423/6/4 424/6/4 429/6/4
f 429/6/4 424/6/4 430/6/4
f 424/2/4 425/2/4 431/2/4
f 430/6/4 424/6/4 431/6/4
f 431/2/4 425/2/4 432/2/4
f 427/3/4 428/3/4 433/3/4
f 422/3/4 408/3/4 434/3/4
f 433/3/4 428/3/4 434/3/4
f 428/3/4 422/3/4 434/3/4
f 435/5/4 436/5/4 437/5/4
f 437/5/4 436/5/4 438/5/4
f 439/5/4 440/5/4 441/5/4
f 441/5/4 440/5/4 442/5/4
f 442/5/4 440/5/4 443/5/4
f 441/3/4 442/3/4 447/3/4
f 443/3/4 444/3/4 448/3/4
f 448/3/4 444/3/4 449/3/4
f 445/2/4 446/2/4 450/2/4
f 450/2/4 446/2/4 451/2/4
f 441/3/4 447/3/4 452/3/4
f 452/3/4 447/3/4 453/3/4
f 454/6/4 455/6/4 458/6/4
f 458/6/4 455/6/4 459/6/4
f 456/3/4 457/3/4 460/3/4
f 456/3/4 460/3/4 465/3/4
f 465/3/4 460/3/4 466/3/4
f 461/3/4 462/3/4 467/3/4
f 467/3/4 462/3/4 468/3/4
f 463/2/4 464/2/4 469/2/4
f 469/2/4 464/2/4 470/2/4
f 465/5/4 466/5/4 471/5/4
f 466/5/4 467/5/4 471/5/4
f 471/5/4 467/5/4 472/5/4
f 473/3/4 474/3/4 477/3/4
f 477/3/4 474/3/4 478/3/4
f 475/2/4 476/2/4 480/2/4
f 480/2/4 476/2/4 481/2/4
f 482/3/4 483/3/4 484/3/4
f 484/3/4 483/3/4 485/3/4
f 478/5/4 479/5/4 487/5/4
f 487/5/4 479/5/4 488/5/4
f 486/3/4 487/3/4 491/3/4
f 491/3/4 487/3/4 492/3/4
f 489/2/4 490/2/4 493/2/4
f 493/2/4 490/2/4 494/2/4
f 495/5/4 496/5/4 497/5/4
f 497/5/4 496/5/4 498/5/4
f 503/3/5 500/3/5 499/3/5
f 504/3/5 500/3/5 503/3/5
f 505/3/5 502/3/5 501/3/5
f 506/3/5 502/3/5 505/3/5
f 511/3/5 508/3/5 507/3/5
f 512/3/5 508/3/5 511/3/5
f 513/3/5 510/3/5 509/3/5
f 514/3/5 510/3/5 513/3/5
f 517/3/5 516/3/5 515/3/5
f 518/3/5 516/3/5 517/3/5
f 523/3/5 520/3/5 519/3/5
f 524/3/5 520/3/5 523/3/5
f 527/5/5 522/5/5 521/5/5
f 528/5/5 526/5/5 525/5/5
f 529/5/5 527/5/5 521/5/5
f 530/3/5 528/3/5 527/3/5
f 530/5/5 527/5/5 529/5/5
f 531/3/5 528/3/5 530/3/5
f 532/3/5 528/3/5 531/3/5
f 533/5/5 526/5/5 528/5/5
f 533/3/5 528/3/5 532/3/5
f 534/5/5 526/5/5 533/5/5
f 535/3/5 532/3/5 531/3/5
f 536/3/5 532/3/5 535/3/5
f 541/6/5 538/6/5 537/6/5
f 542/6/5 538/6/5 541/6/5
f 547/6/5 540/6/5 539/6/5
f 548/6/5 540/6/5 547/6/5
f 549/6/5 541/6/5 537/6/5
f 550/7/5 542/7/5 541/7/5
f 550/6/5 541/6/5 549/6/5
f 551/7/5 542/7/5 550/7/5
f 552/5/5 544/5/5 543/5/5
f 553/5/5 544/5/5 552/5/5
f 554/5/5 546/5/5 545/5/5
f 555/5/5 546/5/5 554/5/5
f 556/7/5 548/7/5 547/7/5
f 557/6/5 540/6/5 548/6/5
f 557/7/5 548/7/5 556/7/5
f 558/6/5 540/6/5 557/6/5
f 559/7/5 550/7/5 549/7/5
f 560/5/5 551/5/5 550/5/5
f 560/7/5 550/7/5 559/7/5
f 561/7/5 558/7/5 557/7/5
f 561/5/5 557/5/5 556/5/5
f 562/7/5 558/7/5 561/7/5
f 563/5/5 551/5/5 560/5/5
f 564/5/5 551/5/5 563/5/5
f 565/5/5 561/5/5 556/5/5
f 566/5/5 561/5/5 565/5/5
f 573/3/5 568/3/5 567/3/5
f 574/4/5 569/4/5 568/4/5
f 574/3/5 568/3/5 573/3/5
f 575/4/5 569/4/5 574/4/5
f 576/4/5 571/4/5 570/4/5
f 577/3/5 572/3/5 571/3/5
f 577/4/5 571/4/5 576/4/5
f 578/3/5 572/3/5 577/3/5
f 579/5/5 576/5/5 575/5/5
f 579/5/5 575/5/5 574/5/5
f 579/5/5 577/5/5 576/5/5
f 580/5/5 577/5/5 579/5/5
f 584/6/5 582/6/5 581/6/5
f 585/6/5 582/6/5 584/6/5
f 588/6/5 584/6/5 583/6/5
f 588/6/5 586/6/5 585/6/5
f 588/6/5 585/6/5 584/6/5
f 589/6/5 586/6/5 588/6/5
f 591/6/5 588/6/5 587/6/5
f 592/6/5 588/6/5 591/6/5
f 593/6/5 590/6/5 589/6/5
f 594/6/5 590/6/5 593/6/5
f 599/6/5 596/6/5 595/6/5
f 600/6/5 596/6/5 599/6/5
f 601/6/5 598/6/5 597/6/5
f 602/6/5 598/6/5 601/6/5
f 606/6/5 604/6/5 603/6/5
f 607/6/5 604/6/5 606/6/5
f 609/6/5 606/6/5 605/6/5
f 609/6/5 608/6/5 607/6/5
f 609/6/5 607/6/5 606/6/5
f 610/6/5 608/6/5 609/6/5
f 615/2/5 612/2/5 611/2/5
f 616/2/5 612/2/5 615/2/5
f 617/2/5 614/2/5 613/2/5
f 618/2/5 614/2/5 617/2/5
f 623/2/5 620/2/5 619/2/5
f 624/2/5 620/2/5 623/2/5
f 625/2/5 622/2/5 621/2/5
f 626/2/5 622/2/5 625/2/5
f 627/6/6 628/6/6 631/6/6
f 631/6/6 628/6/6 632/6/6
f 629/6/6 630/6/6 633/6/6
f 633/6/6 630/6/6 634/6/6
f 627/6/6 631/6/6 635/6/6
f 631/7/6 632/7/6 636/7/6
f 635/6/6 631/6/6 636/6/6
f 636/7/6 632/7/6 637/7/6
f 633/7/6 634/7/6 638/7/6
f 634/6/6 630/6/6 639/6/6
f 638/7/6 634/7/6 639/7/6
f 639/6/6 630/6/6 640/6/6
f 635/7/6 636/7/6 641/7/6
f 641/7/6 636/7/6 642/7/6
f 639/7/6 640/7/6 643/7/6
f 643/7/6 640/7/6 644/7/6
f 645/6/6 646/6/6 647/6/6
f 647/6/6 646/6/6 648/6/6
f 647/1/6 648/1/6 649/1/6
f 649/1/6 648/1/6 650/1/6
f 651/5/6 652/5/6 655/5/6
f 655/5/6 652/5/6 656/5/6
f 653/5/6 654/5/6 657/5/6
f 657/5/6 654/5/6 658/5/6
f 656/5/6 652/5/6 659/5/6
f 659/5/6 652/5/6 660/5/6
f 653/5/6 657/5/6 663/5/6
f 663/5/6 657/5/6 664/5/6
f 660/3/6 661/3/6 665/3/6
f 665/3/6 661/3/6 666/3/6
f 662/3/6 663/3/6 667/3/6
f 667/3/6 663/3/6 668/3/6
f 666/5/6 667/5/6 669/5/6
f 669/5/6 667/5/6 670/5/6
f 671/6/6 672/6/6 675/6/6
f 675/6/6 672/6/6 676/6/6
f 673/6/6 674/6/6 677/6/6
f 677/6/6 674/6/6 678/6/6
f 671/6/6 675/6/6 679/6/6
f 679/6/6 675/6/6 680/6/6
f 678/6/6 674/6/6 681/6/6
f 681/6/6 674/6/6 682/6/6
f 679/3/6 680/3/6 683/3/6
f 681/3/6 682/3/6 686/3/6
f 679/3/6 683/3/6 687/3/6
f 683/5/6 684/5/6 688/5/6
f 687/3/6 683/3/6 688/3/6
f 688/5/6 684/5/6 689/5/6
f 685/5/6 686/5/6 690/5/6
f 686/3/6 682/3/6 691/3/6
f 690/5/6 686/5/6 691/5/6
f 691/3/6 682/3/6 692/3/6
f 688/5/6 689/5/6 693/5/6
f 689/5/6 690/5/6 693/5/6
f 690/5/6 691/5/6 693/5/6
f 693/5/6 691/5/6 694/5/6
f 695/6/6 696/6/6 697/6/6
f 697/6/6 696/6/6 698/6/6
f 697/6/6 698/6/6 699/6/6
f 699/6/6 698/6/6 700/6/6
f 701/2/6 702/2/6 705/2/6
f 705/2/6 702/2/6 706/2/6
f 703/2/6 704/2/6 707/2/6
f 707/2/6 704/2/6 708/2/6
f 709/10/6 710/10/6 714/10/6
f 714/10/6 710/10/6 715/10/6
f 711/10/6 712/10/6 716/10/6
f 716/10/6 712/10/6 717/10/6
f 714/6/6 715/6/6 719/6/6
f 717/6/6 718/6/6 719/6/6
f 716/6/6 717/6/6 719/6/6
f 715/6/6 716/6/6 719/6/6
f 713/6/6 714/6/6 719/6/6
f 719/6/6 718/6/6 720/6/6
f 713/6/6 719/6/6 722/6/6
f 722/6/6 719/6/6 723/6/6
f 720/6/6 718/6/6 724/6/6
f 724/6/6 718/6/6 725/6/6
f 722/2/6 723/2/6 727/2/6
f 721/2/6 722/2/6 727/2/6
f 727/2/6 723/2/6 728/2/6
f 725/2/6 726/2/6 729/2/6
f 724/2/6 725/2/6 729/2/6
f 729/2/6 726/2/6 730/2/6
f 721/2/6 727/2/6 731/2/6
f 731/2/6 727/2/6 732/2/6
f 728/6/6 729/6/6 733/6/6
f 733/6/6 729/6/6 734/6/6
f 730/2/6 726/2/6 735/2/6
f 735/2/6 726/2/6 736/2/6
f 737/6/6 738/6/6 739/6/6
f 739/6/6 738/6/6 740/6/6
