# MagicaVoxel @ Ephtracy

# material
mtllib shield.mtl
usemtl palette

# normals
vn -1 0 0
vn 1 0 0
vn 0 0 1
vn 0 0 -1
vn 0 -1 0
vn 0 1 0

# texcoords
vt 0.615234 0.5
vt 0.751953 0.5
vt 0.779297 0.5
vt 0.982422 0.5

# verts
v -8 9 6
v -8 9 -2
v -8 11 6
v -8 11 -2
v -7 8 6
v -7 8 -2
v -7 9 7
v -7 9 6
v -7 9 -2
v -7 9 -4
v -7 11 7
v -7 11 6
v -7 11 -2
v -7 11 -4
v -7 12 6
v -7 12 -2
v -6 8 -2
v -6 8 -3
v -6 8 -4
v -6 9 -2
v -6 9 -3
v -6 9 -4
v -6 9 -6
v -6 11 -2
v -6 11 -3
v -6 11 -4
v -6 11 -6
v -6 12 -2
v -6 12 -3
v -6 12 -4
v -5 7 4
v -5 7 -3
v -5 8 7
v -5 8 6
v -5 8 4
v -5 8 -3
v -5 8 -4
v -5 8 -6
v -5 9 8
v -5 9 7
v -5 9 6
v -5 9 -4
v -5 9 -6
v -5 9 -7
v -5 11 8
v -5 11 7
v -5 11 6
v -5 11 -4
v -5 11 -6
v -5 11 -7
v -5 12 7
v -5 12 6
v -5 12 4
v -5 12 -3
v -5 12 -4
v -5 12 -6
v -5 13 4
v -5 13 -3
v -4 7 5
v -4 7 4
v -4 7 -3
v -4 7 -4
v -4 8 5
v -4 8 4
v -4 8 -3
v -4 8 -4
v -4 8 -6
v -4 8 -7
v -4 9 -6
v -4 9 -7
v -4 9 -8
v -4 11 -6
v -4 11 -7
v -4 11 -8
v -4 12 5
v -4 12 4
v -4 12 -3
v -4 12 -4
v -4 12 -6
v -4 12 -7
v -4 13 5
v -4 13 4
v -4 13 -3
v -4 13 -4
v -3 7 -4
v -3 7 -5
v -3 8 -4
v -3 8 -5
v -3 8 -7
v -3 8 -8
v -3 9 -7
v -3 9 -8
v -3 9 -9
v -3 11 -7
v -3 11 -8
v -3 11 -9
v -3 12 -4
v -3 12 -5
v -3 12 -7
v -3 12 -8
v -3 13 -4
v -3 13 -5
v -2 7 -5
v -2 7 -6
v -2 8 -5
v -2 8 -6
v -2 12 -5
v -2 12 -6
v -2 13 -5
v -2 13 -6
v 2 7 -5
v 2 7 -6
v 2 8 -5
v 2 8 -6
v 2 12 -5
v 2 12 -6
v 2 13 -5
v 2 13 -6
v 3 7 -4
v 3 7 -5
v 3 8 -4
v 3 8 -5
v 3 8 -7
v 3 8 -8
v 3 9 -7
v 3 9 -8
v 3 9 -9
v 3 11 -7
v 3 11 -8
v 3 11 -9
v 3 12 -4
v 3 12 -5
v 3 12 -7
v 3 12 -8
v 3 13 -4
v 3 13 -5
v 4 7 5
v 4 7 4
v 4 7 -3
v 4 7 -4
v 4 8 5
v 4 8 4
v 4 8 -3
v 4 8 -4
v 4 8 -6
v 4 8 -7
v 4 9 -6
v 4 9 -7
v 4 9 -8
v 4 11 -6
v 4 11 -7
v 4 11 -8
v 4 12 5
v 4 12 4
v 4 12 -3
v 4 12 -4
v 4 12 -6
v 4 12 -7
v 4 13 5
v 4 13 4
v 4 13 -3
v 4 13 -4
v 5 7 4
v 5 7 -3
v 5 8 7
v 5 8 6
v 5 8 4
v 5 8 -3
v 5 8 -4
v 5 8 -6
v 5 9 8
v 5 9 7
v 5 9 6
v 5 9 -4
v 5 9 -6
v 5 9 -7
v 5 11 8
v 5 11 7
v 5 11 6
v 5 11 -4
v 5 11 -6
v 5 11 -7
v 5 12 7
v 5 12 6
v 5 12 4
v 5 12 -3
v 5 12 -4
v 5 12 -6
v 5 13 4
v 5 13 -3
v 6 8 -2
v 6 8 -3
v 6 8 -4
v 6 9 -2
v 6 9 -3
v 6 9 -4
v 6 9 -6
v 6 11 -2
v 6 11 -3
v 6 11 -4
v 6 11 -6
v 6 12 -2
v 6 12 -3
v 6 12 -4
v 7 8 6
v 7 8 -2
v 7 9 7
v 7 9 6
v 7 9 -2
v 7 9 -4
v 7 11 7
v 7 11 6
v 7 11 -2
v 7 11 -4
v 7 12 6
v 7 12 -2
v 8 9 6
v 8 9 -2
v 8 11 6
v 8 11 -2
v -5 9 8
v -5 11 8
v 5 9 8
v 5 11 8
v -7 9 7
v -7 11 7
v -5 8 7
v -5 9 7
v -5 11 7
v -5 12 7
v 5 8 7
v 5 9 7
v 5 11 7
v 5 12 7
v 7 9 7
v 7 11 7
v -8 9 6
v -8 11 6
v -7 8 6
v -7 9 6
v -7 11 6
v -7 12 6
v -5 8 6
v -5 9 6
v -5 11 6
v -5 12 6
v 5 8 6
v 5 9 6
v 5 11 6
v 5 12 6
v 7 8 6
v 7 9 6
v 7 11 6
v 7 12 6
v 8 9 6
v 8 11 6
v -4 7 5
v -4 8 5
v -4 12 5
v -4 13 5
v 4 7 5
v 4 8 5
v 4 12 5
v 4 13 5
v -5 7 4
v -5 8 4
v -5 12 4
v -5 13 4
v -4 7 4
v -4 8 4
v -4 12 4
v -4 13 4
v 4 7 4
v 4 8 4
v 4 12 4
v 4 13 4
v 5 7 4
v 5 8 4
v 5 12 4
v 5 13 4
v -8 9 -2
v -8 11 -2
v -7 8 -2
v -7 9 -2
v -7 11 -2
v -7 12 -2
v -6 8 -2
v -6 9 -2
v -6 11 -2
v -6 12 -2
v 6 8 -2
v 6 9 -2
v 6 11 -2
v 6 12 -2
v 7 8 -2
v 7 9 -2
v 7 11 -2
v 7 12 -2
v 8 9 -2
v 8 11 -2
v -5 7 -3
v -5 8 -3
v -5 12 -3
v -5 13 -3
v -4 7 -3
v -4 8 -3
v -4 12 -3
v -4 13 -3
v 4 7 -3
v 4 8 -3
v 4 12 -3
v 4 13 -3
v 5 7 -3
v 5 8 -3
v 5 12 -3
v 5 13 -3
v -7 9 -4
v -7 11 -4
v -6 8 -4
v -6 9 -4
v -6 11 -4
v -6 12 -4
v -5 8 -4
v -5 9 -4
v -5 11 -4
v -5 12 -4
v -4 7 -4
v -4 8 -4
v -4 12 -4
v -4 13 -4
v -3 7 -4
v -3 8 -4
v -3 12 -4
v -3 13 -4
v 3 7 -4
v 3 8 -4
v 3 12 -4
v 3 13 -4
v 4 7 -4
v 4 8 -4
v 4 12 -4
v 4 13 -4
v 5 8 -4
v 5 9 -4
v 5 11 -4
v 5 12 -4
v 6 8 -4
v 6 9 -4
v 6 11 -4
v 6 12 -4
v 7 9 -4
v 7 11 -4
v -3 7 -5
v -3 8 -5
v -3 12 -5
v -3 13 -5
v -2 7 -5
v -2 8 -5
v -2 12 -5
v -2 13 -5
v 2 7 -5
v 2 8 -5
v 2 12 -5
v 2 13 -5
v 3 7 -5
v 3 8 -5
v 3 12 -5
v 3 13 -5
v -6 9 -6
v -6 11 -6
v -5 8 -6
v -5 9 -6
v -5 11 -6
v -5 12 -6
v -4 8 -6
v -4 9 -6
v -4 11 -6
v -4 12 -6
v -2 7 -6
v -2 8 -6
v -2 12 -6
v -2 13 -6
v 2 7 -6
v 2 8 -6
v 2 12 -6
v 2 13 -6
v 4 8 -6
v 4 9 -6
v 4 11 -6
v 4 12 -6
v 5 8 -6
v 5 9 -6
v 5 11 -6
v 5 12 -6
v 6 9 -6
v 6 11 -6
v -5 9 -7
v -5 11 -7
v -4 8 -7
v -4 9 -7
v -4 11 -7
v -4 12 -7
v -3 8 -7
v -3 9 -7
v -3 11 -7
v -3 12 -7
v 3 8 -7
v 3 9 -7
v 3 11 -7
v 3 12 -7
v 4 8 -7
v 4 9 -7
v 4 11 -7
v 4 12 -7
v 5 9 -7
v 5 11 -7
v -4 9 -8
v -4 11 -8
v -3 8 -8
v -3 9 -8
v -3 11 -8
v -3 12 -8
v 3 8 -8
v 3 9 -8
v 3 11 -8
v 3 12 -8
v 4 9 -8
v 4 11 -8
v -3 9 -9
v -3 11 -9
v 3 9 -9
v 3 11 -9
v -4 7 5
v 4 7 5
v -5 7 4
v -4 7 4
v 4 7 4
v 5 7 4
v -5 7 -3
v -4 7 -3
v 4 7 -3
v 5 7 -3
v -4 7 -4
v -3 7 -4
v 3 7 -4
v 4 7 -4
v -3 7 -5
v -2 7 -5
v 2 7 -5
v 3 7 -5
v -2 7 -6
v 2 7 -6
v -5 8 7
v 5 8 7
v -7 8 6
v -5 8 6
v -4 8 6
v 4 8 6
v 5 8 6
v 7 8 6
v -5 8 5
v -4 8 5
v 4 8 5
v 5 8 5
v -6 8 4
v -5 8 4
v -4 8 4
v 4 8 4
v 5 8 4
v 6 8 4
v -7 8 -2
v -6 8 -2
v 6 8 -2
v 7 8 -2
v -6 8 -3
v -5 8 -3
v -4 8 -3
v 4 8 -3
v 5 8 -3
v 6 8 -3
v -6 8 -4
v -5 8 -4
v -4 8 -4
v -3 8 -4
v 3 8 -4
v 4 8 -4
v 5 8 -4
v 6 8 -4
v -4 8 -5
v -3 8 -5
v -2 8 -5
v 2 8 -5
v 3 8 -5
v 4 8 -5
v -5 8 -6
v -4 8 -6
v -3 8 -6
v -2 8 -6
v 2 8 -6
v 3 8 -6
v 4 8 -6
v 5 8 -6
v -4 8 -7
v -3 8 -7
v -2 8 -7
v 2 8 -7
v 3 8 -7
v 4 8 -7
v -3 8 -8
v 3 8 -8
v -5 9 8
v 5 9 8
v -7 9 7
v -5 9 7
v 5 9 7
v 7 9 7
v -8 9 6
v -7 9 6
v -5 9 6
v 5 9 6
v 7 9 6
v 8 9 6
v -8 9 -2
v -7 9 -2
v -6 9 -2
v 6 9 -2
v 7 9 -2
v 8 9 -2
v -6 9 -3
v 6 9 -3
v -7 9 -4
v -6 9 -4
v -5 9 -4
v 5 9 -4
v 6 9 -4
v 7 9 -4
v -6 9 -6
v -5 9 -6
v -4 9 -6
v 4 9 -6
v 5 9 -6
v 6 9 -6
v -5 9 -7
v -4 9 -7
v -3 9 -7
v 3 9 -7
v 4 9 -7
v 5 9 -7
v -4 9 -8
v -3 9 -8
v 3 9 -8
v 4 9 -8
v -3 9 -9
v 3 9 -9
v -5 11 8
v 5 11 8
v -7 11 7
v -5 11 7
v 5 11 7
v 7 11 7
v -8 11 6
v -7 11 6
v -5 11 6
v 5 11 6
v 7 11 6
v 8 11 6
v -8 11 -2
v -7 11 -2
v -6 11 -2
v 6 11 -2
v 7 11 -2
v 8 11 -2
v -6 11 -3
v 6 11 -3
v -7 11 -4
v -6 11 -4
v -5 11 -4
v 5 11 -4
v 6 11 -4
v 7 11 -4
v -6 11 -6
v -5 11 -6
v -4 11 -6
v 4 11 -6
v 5 11 -6
v 6 11 -6
v -5 11 -7
v -4 11 -7
v -3 11 -7
v 3 11 -7
v 4 11 -7
v 5 11 -7
v -4 11 -8
v -3 11 -8
v 3 11 -8
v 4 11 -8
v -3 11 -9
v 3 11 -9
v -5 12 7
v 5 12 7
v -7 12 6
v -5 12 6
v -4 12 6
v 4 12 6
v 5 12 6
v 7 12 6
v -5 12 5
v -4 12 5
v 4 12 5
v 5 12 5
v -6 12 4
v -5 12 4
v -4 12 4
v 4 12 4
v 5 12 4
v 6 12 4
v -7 12 -2
v -6 12 -2
v 6 12 -2
v 7 12 -2
v -6 12 -3
v -5 12 -3
v -4 12 -3
v 4 12 -3
v 5 12 -3
v 6 12 -3
v -6 12 -4
v -5 12 -4
v -4 12 -4
v -3 12 -4
v 3 12 -4
v 4 12 -4
v 5 12 -4
v 6 12 -4
v -4 12 -5
v -3 12 -5
v -2 12 -5
v 2 12 -5
v 3 12 -5
v 4 12 -5
v -5 12 -6
v -4 12 -6
v -3 12 -6
v -2 12 -6
v 2 12 -6
v 3 12 -6
v 4 12 -6
v 5 12 -6
v -4 12 -7
v -3 12 -7
v -2 12 -7
v 2 12 -7
v 3 12 -7
v 4 12 -7
v -3 12 -8
v 3 12 -8
v -4 13 5
v 4 13 5
v -5 13 4
v -4 13 4
v 4 13 4
v 5 13 4
v -5 13 -3
v -4 13 -3
v 4 13 -3
v 5 13 -3
v -4 13 -4
v -3 13 -4
v 3 13 -4
v 4 13 -4
v -3 13 -5
v -2 13 -5
v 2 13 -5
v 3 13 -5
v -2 13 -6
v 2 13 -6

# faces
f 3/4/1 2/4/1 1/4/1
f 4/4/1 2/4/1 3/4/1
f 8/1/1 6/1/1 5/1/1
f 9/1/1 6/1/1 8/1/1
f 11/4/1 8/4/1 7/4/1
f 12/4/1 8/4/1 11/4/1
f 13/4/1 10/4/1 9/4/1
f 14/4/1 10/4/1 13/4/1
f 15/1/1 13/1/1 12/1/1
f 16/1/1 13/1/1 15/1/1
f 20/2/1 18/2/1 17/2/1
f 21/1/1 19/1/1 18/1/1
f 21/2/1 18/2/1 20/2/1
f 22/1/1 19/1/1 21/1/1
f 26/4/1 23/4/1 22/4/1
f 27/4/1 23/4/1 26/4/1
f 28/2/1 25/2/1 24/2/1
f 29/1/1 26/1/1 25/1/1
f 29/2/1 25/2/1 28/2/1
f 30/1/1 26/1/1 29/1/1
f 35/3/1 32/3/1 31/3/1
f 36/3/1 32/3/1 35/3/1
f 40/1/1 34/1/1 33/1/1
f 41/1/1 34/1/1 40/1/1
f 42/1/1 38/1/1 37/1/1
f 43/1/1 38/1/1 42/1/1
f 45/4/1 40/4/1 39/4/1
f 46/4/1 40/4/1 45/4/1
f 49/4/1 44/4/1 43/4/1
f 50/4/1 44/4/1 49/4/1
f 51/1/1 47/1/1 46/1/1
f 52/1/1 47/1/1 51/1/1
f 55/1/1 49/1/1 48/1/1
f 56/1/1 49/1/1 55/1/1
f 57/3/1 54/3/1 53/3/1
f 58/3/1 54/3/1 57/3/1
f 63/3/1 60/3/1 59/3/1
f 64/3/1 60/3/1 63/3/1
f 65/3/1 62/3/1 61/3/1
f 66/3/1 62/3/1 65/3/1
f 69/1/1 68/1/1 67/1/1
f 70/1/1 68/1/1 69/1/1
f 73/4/1 71/4/1 70/4/1
f 74/4/1 71/4/1 73/4/1
f 79/1/1 73/1/1 72/1/1
f 80/1/1 73/1/1 79/1/1
f 81/3/1 76/3/1 75/3/1
f 82/3/1 76/3/1 81/3/1
f 83/3/1 78/3/1 77/3/1
f 84/3/1 78/3/1 83/3/1
f 87/3/1 86/3/1 85/3/1
f 88/3/1 86/3/1 87/3/1
f 91/1/1 90/1/1 89/1/1
f 92/1/1 90/1/1 91/1/1
f 95/4/1 93/4/1 92/4/1
f 96/4/1 93/4/1 95/4/1
f 99/1/1 95/1/1 94/1/1
f 100/1/1 95/1/1 99/1/1
f 101/3/1 98/3/1 97/3/1
f 102/3/1 98/3/1 101/3/1
f 105/3/1 104/3/1 103/3/1
f 106/3/1 104/3/1 105/3/1
f 109/3/1 108/3/1 107/3/1
f 110/3/1 108/3/1 109/3/1
f 111/3/2 112/3/2 113/3/2
f 113/3/2 112/3/2 114/3/2
f 115/3/2 116/3/2 117/3/2
f 117/3/2 116/3/2 118/3/2
f 119/3/2 120/3/2 121/3/2
f 121/3/2 120/3/2 122/3/2
f 123/1/2 124/1/2 125/1/2
f 125/1/2 124/1/2 126/1/2
f 126/4/2 127/4/2 129/4/2
f 129/4/2 127/4/2 130/4/2
f 128/1/2 129/1/2 133/1/2
f 133/1/2 129/1/2 134/1/2
f 131/3/2 132/3/2 135/3/2
f 135/3/2 132/3/2 136/3/2
f 137/3/2 138/3/2 141/3/2
f 141/3/2 138/3/2 142/3/2
f 139/3/2 140/3/2 143/3/2
f 143/3/2 140/3/2 144/3/2
f 145/1/2 146/1/2 147/1/2
f 147/1/2 146/1/2 148/1/2
f 148/4/2 149/4/2 151/4/2
f 151/4/2 149/4/2 152/4/2
f 150/1/2 151/1/2 157/1/2
f 157/1/2 151/1/2 158/1/2
f 153/3/2 154/3/2 159/3/2
f 159/3/2 154/3/2 160/3/2
f 155/3/2 156/3/2 161/3/2
f 161/3/2 156/3/2 162/3/2
f 163/3/2 164/3/2 167/3/2
f 167/3/2 164/3/2 168/3/2
f 165/1/2 166/1/2 172/1/2
f 172/1/2 166/1/2 173/1/2
f 169/1/2 170/1/2 174/1/2
f 174/1/2 170/1/2 175/1/2
f 171/4/2 172/4/2 177/4/2
f 177/4/2 172/4/2 178/4/2
f 175/4/2 176/4/2 181/4/2
f 181/4/2 176/4/2 182/4/2
f 178/1/2 179/1/2 183/1/2
f 183/1/2 179/1/2 184/1/2
f 180/1/2 181/1/2 187/1/2
f 187/1/2 181/1/2 188/1/2
f 185/3/2 186/3/2 189/3/2
f 189/3/2 186/3/2 190/3/2
f 191/2/2 192/2/2 194/2/2
f 192/1/2 193/1/2 195/1/2
f 194/2/2 192/2/2 195/2/2
f 195/1/2 193/1/2 196/1/2
f 196/4/2 197/4/2 200/4/2
f 200/4/2 197/4/2 201/4/2
f 198/2/2 199/2/2 202/2/2
f 199/1/2 200/1/2 203/1/2
f 202/2/2 199/2/2 203/2/2
f 203/1/2 200/1/2 204/1/2
f 205/1/2 206/1/2 208/1/2
f 208/1/2 206/1/2 209/1/2
f 207/4/2 208/4/2 211/4/2
f 211/4/2 208/4/2 212/4/2
f 209/4/2 210/4/2 213/4/2
f 213/4/2 210/4/2 214/4/2
f 212/1/2 213/1/2 215/1/2
f 215/1/2 213/1/2 216/1/2
f 217/4/2 218/4/2 219/4/2
f 219/4/2 218/4/2 220/4/2
f 223/4/3 222/4/3 221/4/3
f 224/4/3 222/4/3 223/4/3
f 228/4/3 226/4/3 225/4/3
f 229/4/3 226/4/3 228/4/3
f 231/1/3 228/1/3 227/1/3
f 232/1/3 228/1/3 231/1/3
f 233/1/3 230/1/3 229/1/3
f 234/1/3 230/1/3 233/1/3
f 235/4/3 233/4/3 232/4/3
f 236/4/3 233/4/3 235/4/3
f 240/4/3 238/4/3 237/4/3
f 241/4/3 238/4/3 240/4/3
f 243/1/3 240/1/3 239/1/3
f 244/1/3 240/1/3 243/1/3
f 245/1/3 242/1/3 241/1/3
f 246/1/3 242/1/3 245/1/3
f 251/1/3 248/1/3 247/1/3
f 252/1/3 248/1/3 251/1/3
f 253/1/3 250/1/3 249/1/3
f 254/1/3 250/1/3 253/1/3
f 255/4/3 253/4/3 252/4/3
f 256/4/3 253/4/3 255/4/3
f 261/3/3 258/3/3 257/3/3
f 262/3/3 258/3/3 261/3/3
f 263/3/3 260/3/3 259/3/3
f 264/3/3 260/3/3 263/3/3
f 269/3/3 266/3/3 265/3/3
f 270/3/3 266/3/3 269/3/3
f 271/3/3 268/3/3 267/3/3
f 272/3/3 268/3/3 271/3/3
f 277/3/3 274/3/3 273/3/3
f 278/3/3 274/3/3 277/3/3
f 279/3/3 276/3/3 275/3/3
f 280/3/3 276/3/3 279/3/3
f 281/4/4 282/4/4 284/4/4
f 284/4/4 282/4/4 285/4/4
f 283/1/4 284/1/4 287/1/4
f 287/1/4 284/1/4 288/1/4
f 285/1/4 286/1/4 289/1/4
f 289/1/4 286/1/4 290/1/4
f 291/1/4 292/1/4 295/1/4
f 295/1/4 292/1/4 296/1/4
f 293/1/4 294/1/4 297/1/4
f 297/1/4 294/1/4 298/1/4
f 296/4/4 297/4/4 299/4/4
f 299/4/4 297/4/4 300/4/4
f 301/3/4 302/3/4 305/3/4
f 305/3/4 302/3/4 306/3/4
f 303/3/4 304/3/4 307/3/4
f 307/3/4 304/3/4 308/3/4
f 309/3/4 310/3/4 313/3/4
f 313/3/4 310/3/4 314/3/4
f 311/3/4 312/3/4 315/3/4
f 315/3/4 312/3/4 316/3/4
f 317/4/4 318/4/4 320/4/4
f 320/4/4 318/4/4 321/4/4
f 319/1/4 320/1/4 323/1/4
f 323/1/4 320/1/4 324/1/4
f 321/1/4 322/1/4 325/1/4
f 325/1/4 322/1/4 326/1/4
f 327/3/4 328/3/4 331/3/4
f 331/3/4 328/3/4 332/3/4
f 329/3/4 330/3/4 333/3/4
f 333/3/4 330/3/4 334/3/4
f 335/3/4 336/3/4 339/3/4
f 339/3/4 336/3/4 340/3/4
f 337/3/4 338/3/4 341/3/4
f 341/3/4 338/3/4 342/3/4
f 343/1/4 344/1/4 347/1/4
f 347/1/4 344/1/4 348/1/4
f 345/1/4 346/1/4 349/1/4
f 349/1/4 346/1/4 350/1/4
f 348/4/4 349/4/4 351/4/4
f 351/4/4 349/4/4 352/4/4
f 353/3/4 354/3/4 357/3/4
f 357/3/4 354/3/4 358/3/4
f 355/3/4 356/3/4 359/3/4
f 359/3/4 356/3/4 360/3/4
f 361/3/4 362/3/4 365/3/4
f 365/3/4 362/3/4 366/3/4
f 363/3/4 364/3/4 367/3/4
f 367/3/4 364/3/4 368/3/4
f 369/4/4 370/4/4 372/4/4
f 372/4/4 370/4/4 373/4/4
f 371/1/4 372/1/4 375/1/4
f 375/1/4 372/1/4 376/1/4
f 373/1/4 374/1/4 377/1/4
f 377/1/4 374/1/4 378/1/4
f 379/3/4 380/3/4 383/3/4
f 383/3/4 380/3/4 384/3/4
f 381/3/4 382/3/4 385/3/4
f 385/3/4 382/3/4 386/3/4
f 387/1/4 388/1/4 391/1/4
f 391/1/4 388/1/4 392/1/4
f 389/1/4 390/1/4 393/1/4
f 393/1/4 390/1/4 394/1/4
f 392/4/4 393/4/4 395/4/4
f 395/4/4 393/4/4 396/4/4
f 397/4/4 398/4/4 400/4/4
f 400/4/4 398/4/4 401/4/4
f 399/1/4 400/1/4 403/1/4
f 403/1/4 400/1/4 404/1/4
f 401/1/4 402/1/4 405/1/4
f 405/1/4 402/1/4 406/1/4
f 407/1/4 408/1/4 411/1/4
f 411/1/4 408/1/4 412/1/4
f 409/1/4 410/1/4 413/1/4
f 413/1/4 410/1/4 414/1/4
f 412/4/4 413/4/4 415/4/4
f 415/4/4 413/4/4 416/4/4
f 417/4/4 418/4/4 420/4/4
f 420/4/4 418/4/4 421/4/4
f 419/1/4 420/1/4 423/1/4
f 423/1/4 420/1/4 424/1/4
f 421/1/4 422/1/4 425/1/4
f 425/1/4 422/1/4 426/1/4
f 424/4/4 425/4/4 427/4/4
f 427/4/4 425/4/4 428/4/4
f 429/4/4 430/4/4 431/4/4
f 431/4/4 430/4/4 432/4/4
f 436/3/5 434/3/5 433/3/5
f 437/3/5 434/3/5 436/3/5
f 439/3/5 436/3/5 435/3/5
f 439/3/5 438/3/5 437/3/5
f 439/3/5 437/3/5 436/3/5
f 440/3/5 438/3/5 439/3/5
f 441/3/5 438/3/5 440/3/5
f 442/3/5 438/3/5 441/3/5
f 443/3/5 441/3/5 440/3/5
f 444/3/5 441/3/5 443/3/5
f 445/3/5 441/3/5 444/3/5
f 446/3/5 441/3/5 445/3/5
f 447/3/5 445/3/5 444/3/5
f 448/3/5 445/3/5 447/3/5
f 449/3/5 445/3/5 448/3/5
f 450/3/5 445/3/5 449/3/5
f 451/3/5 449/3/5 448/3/5
f 452/3/5 449/3/5 451/3/5
f 456/1/5 454/1/5 453/1/5
f 457/1/5 454/1/5 456/1/5
f 458/1/5 454/1/5 457/1/5
f 459/1/5 454/1/5 458/1/5
f 461/1/5 456/1/5 455/1/5
f 461/1/5 457/1/5 456/1/5
f 462/2/5 458/2/5 457/2/5
f 462/1/5 457/1/5 461/1/5
f 463/1/5 460/1/5 459/1/5
f 463/2/5 458/2/5 462/2/5
f 463/1/5 459/1/5 458/1/5
f 464/1/5 460/1/5 463/1/5
f 465/1/5 461/1/5 455/1/5
f 466/2/5 462/2/5 461/2/5
f 466/1/5 461/1/5 465/1/5
f 467/2/5 462/2/5 466/2/5
f 468/2/5 464/2/5 463/2/5
f 469/1/5 460/1/5 464/1/5
f 469/2/5 464/2/5 468/2/5
f 470/1/5 460/1/5 469/1/5
f 471/1/5 465/1/5 455/1/5
f 472/2/5 466/2/5 465/2/5
f 472/1/5 465/1/5 471/1/5
f 473/1/5 460/1/5 470/1/5
f 473/2/5 470/2/5 469/2/5
f 474/1/5 460/1/5 473/1/5
f 475/2/5 466/2/5 472/2/5
f 476/2/5 466/2/5 475/2/5
f 479/2/5 473/2/5 469/2/5
f 480/2/5 473/2/5 479/2/5
f 481/1/5 476/1/5 475/1/5
f 482/2/5 477/2/5 476/2/5
f 482/1/5 476/1/5 481/1/5
f 483/2/5 477/2/5 482/2/5
f 486/2/5 479/2/5 478/2/5
f 487/1/5 480/1/5 479/1/5
f 487/2/5 479/2/5 486/2/5
f 488/1/5 480/1/5 487/1/5
f 489/2/5 484/2/5 483/2/5
f 489/1/5 483/1/5 482/1/5
f 490/2/5 484/2/5 489/2/5
f 493/2/5 486/2/5 485/2/5
f 494/1/5 487/1/5 486/1/5
f 494/2/5 486/2/5 493/2/5
f 495/1/5 489/1/5 482/1/5
f 495/1/5 490/1/5 489/1/5
f 496/1/5 490/1/5 495/1/5
f 497/2/5 491/2/5 490/2/5
f 497/1/5 490/1/5 496/1/5
f 498/2/5 491/2/5 497/2/5
f 499/2/5 493/2/5 492/2/5
f 500/1/5 494/1/5 493/1/5
f 500/2/5 493/2/5 499/2/5
f 501/1/5 487/1/5 494/1/5
f 501/1/5 494/1/5 500/1/5
f 502/1/5 487/1/5 501/1/5
f 503/1/5 498/1/5 497/1/5
f 503/1/5 497/1/5 496/1/5
f 504/1/5 498/1/5 503/1/5
f 505/2/5 499/2/5 498/2/5
f 505/1/5 498/1/5 504/1/5
f 506/1/5 501/1/5 500/1/5
f 506/2/5 499/2/5 505/2/5
f 506/1/5 500/1/5 499/1/5
f 507/1/5 501/1/5 506/1/5
f 508/1/5 501/1/5 507/1/5
f 509/1/5 505/1/5 504/1/5
f 509/1/5 507/1/5 506/1/5
f 509/1/5 506/1/5 505/1/5
f 510/1/5 507/1/5 509/1/5
f 514/4/5 512/4/5 511/4/5
f 515/4/5 512/4/5 514/4/5
f 518/4/5 514/4/5 513/4/5
f 519/4/5 514/4/5 518/4/5
f 520/4/5 516/4/5 515/4/5
f 521/4/5 516/4/5 520/4/5
f 523/4/5 518/4/5 517/4/5
f 524/4/5 518/4/5 523/4/5
f 527/4/5 522/4/5 521/4/5
f 528/4/5 522/4/5 527/4/5
f 529/4/5 525/4/5 524/4/5
f 530/4/5 527/4/5 526/4/5
f 531/4/5 529/4/5 524/4/5
f 532/4/5 529/4/5 531/4/5
f 535/4/5 527/4/5 530/4/5
f 536/4/5 527/4/5 535/4/5
f 537/4/5 533/4/5 532/4/5
f 538/4/5 533/4/5 537/4/5
f 541/4/5 535/4/5 534/4/5
f 542/4/5 535/4/5 541/4/5
f 543/4/5 539/4/5 538/4/5
f 544/4/5 539/4/5 543/4/5
f 547/4/5 541/4/5 540/4/5
f 548/4/5 541/4/5 547/4/5
f 549/4/5 545/4/5 544/4/5
f 550/4/5 545/4/5 549/4/5
f 551/4/5 547/4/5 546/4/5
f 552/4/5 547/4/5 551/4/5
f 553/4/5 551/4/5 550/4/5
f 554/4/5 551/4/5 553/4/5
f 555/4/6 556/4/6 558/4/6
f 558/4/6 556/4/6 559/4/6
f 557/4/6 558/4/6 562/4/6
f 562/4/6 558/4/6 563/4/6
f 559/4/6 560/4/6 564/4/6
f 564/4/6 560/4/6 565/4/6
f 561/4/6 562/4/6 567/4/6
f 567/4/6 562/4/6 568/4/6
f 565/4/6 566/4/6 571/4/6
f 571/4/6 566/4/6 572/4/6
f 568/4/6 569/4/6 573/4/6
f 570/4/6 571/4/6 574/4/6
f 568/4/6 573/4/6 575/4/6
f 575/4/6 573/4/6 576/4/6
f 574/4/6 571/4/6 579/4/6
f 579/4/6 571/4/6 580/4/6
f 576/4/6 577/4/6 581/4/6
f 581/4/6 577/4/6 582/4/6
f 578/4/6 579/4/6 585/4/6
f 585/4/6 579/4/6 586/4/6
f 582/4/6 583/4/6 587/4/6
f 587/4/6 583/4/6 588/4/6
f 584/4/6 585/4/6 591/4/6
f 591/4/6 585/4/6 592/4/6
f 588/4/6 589/4/6 593/4/6
f 593/4/6 589/4/6 594/4/6
f 590/4/6 591/4/6 595/4/6
f 595/4/6 591/4/6 596/4/6
f 594/4/6 595/4/6 597/4/6
f 597/4/6 595/4/6 598/4/6
f 599/1/6 600/1/6 602/1/6
f 602/1/6 600/1/6 603/1/6
f 603/1/6 600/1/6 604/1/6
f 604/1/6 600/1/6 605/1/6
f 601/1/6 602/1/6 607/1/6
f 602/1/6 603/1/6 607/1/6
f 603/2/6 604/2/6 608/2/6
f 607/1/6 603/1/6 608/1/6
f 605/1/6 606/1/6 609/1/6
f 608/2/6 604/2/6 609/2/6
f 604/1/6 605/1/6 609/1/6
f 609/1/6 606/1/6 610/1/6
f 601/1/6 607/1/6 611/1/6
f 607/2/6 608/2/6 612/2/6
f 611/1/6 607/1/6 612/1/6
f 612/2/6 608/2/6 613/2/6
f 609/2/6 610/2/6 614/2/6
f 610/1/6 606/1/6 615/1/6
f 614/2/6 610/2/6 615/2/6
f 615/1/6 606/1/6 616/1/6
f 601/1/6 611/1/6 617/1/6
f 611/2/6 612/2/6 618/2/6
f 617/1/6 611/1/6 618/1/6
f 616/1/6 606/1/6 619/1/6
f 615/2/6 616/2/6 619/2/6
f 619/1/6 606/1/6 620/1/6
f 618/2/6 612/2/6 621/2/6
f 621/2/6 612/2/6 622/2/6
f 615/2/6 619/2/6 625/2/6
f 625/2/6 619/2/6 626/2/6
f 621/1/6 622/1/6 627/1/6
f 622/2/6 623/2/6 628/2/6
f 627/1/6 622/1/6 628/1/6
f 628/2/6 623/2/6 629/2/6
f 624/2/6 625/2/6 632/2/6
f 625/1/6 626/1/6 633/1/6
f 632/2/6 625/2/6 633/2/6
f 633/1/6 626/1/6 634/1/6
f 629/2/6 630/2/6 635/2/6
f 628/1/6 629/1/6 635/1/6
f 635/2/6 630/2/6 636/2/6
f 631/2/6 632/2/6 639/2/6
f 632/1/6 633/1/6 640/1/6
f 639/2/6 632/2/6 640/2/6
f 628/1/6 635/1/6 641/1/6
f 635/1/6 636/1/6 641/1/6
f 641/1/6 636/1/6 642/1/6
f 636/2/6 637/2/6 643/2/6
f 642/1/6 636/1/6 643/1/6
f 643/2/6 637/2/6 644/2/6
f 638/2/6 639/2/6 645/2/6
f 639/1/6 640/1/6 646/1/6
f 645/2/6 639/2/6 646/2/6
f 640/1/6 633/1/6 647/1/6
f 646/1/6 640/1/6 647/1/6
f 647/1/6 633/1/6 648/1/6
f 643/1/6 644/1/6 649/1/6
f 642/1/6 643/1/6 649/1/6
f 649/1/6 644/1/6 650/1/6
f 644/2/6 645/2/6 651/2/6
f 650/1/6 644/1/6 651/1/6
f 646/1/6 647/1/6 652/1/6
f 651/2/6 645/2/6 652/2/6
f 645/1/6 646/1/6 652/1/6
f 652/1/6 647/1/6 653/1/6
f 653/1/6 647/1/6 654/1/6
f 650/1/6 651/1/6 655/1/6
f 652/1/6 653/1/6 655/1/6
f 651/1/6 652/1/6 655/1/6
f 655/1/6 653/1/6 656/1/6
f 657/3/6 658/3/6 660/3/6
f 660/3/6 658/3/6 661/3/6
f 659/3/6 660/3/6 663/3/6
f 661/3/6 662/3/6 663/3/6
f 660/3/6 661/3/6 663/3/6
f 663/3/6 662/3/6 664/3/6
f 664/3/6 662/3/6 665/3/6
f 665/3/6 662/3/6 666/3/6
f 664/3/6 665/3/6 667/3/6
f 667/3/6 665/3/6 668/3/6
f 668/3/6 665/3/6 669/3/6
f 669/3/6 665/3/6 670/3/6
f 668/3/6 669/3/6 671/3/6
f 671/3/6 669/3/6 672/3/6
f 672/3/6 669/3/6 673/3/6
f 673/3/6 669/3/6 674/3/6
f 672/3/6 673/3/6 675/3/6
f 675/3/6 673/3/6 676/3/6
