# MagicaVoxel @ Ephtracy

# material
mtllib staff.mtl
usemtl palette

# normals
vn -1 0 0
vn 1 0 0
vn 0 0 1
vn 0 0 -1
vn 0 -1 0
vn 0 1 0

# texcoords
vt 0.00976563 0.5
vt 0.0175781 0.5
vt 0.185547 0.5

# verts
v -9 1 -7
v -9 1 -8
v -9 1 -9
v -9 2 -7
v -9 2 -8
v -9 2 -9
v -8 1 -6
v -8 1 -7
v -8 2 -6
v -8 2 -7
v -7 1 -5
v -7 1 -6
v -7 2 -5
v -7 2 -6
v -6 1 -4
v -6 1 -5
v -6 2 -4
v -6 2 -5
v -5 1 -3
v -5 1 -4
v -5 2 -3
v -5 2 -4
v -4 1 -2
v -4 1 -3
v -4 2 -2
v -4 2 -3
v -3 1 -1
v -3 1 -2
v -3 2 -1
v -3 2 -2
v -2 1 -0
v -2 1 -1
v -2 2 -0
v -2 2 -1
v -1 1 1
v -1 1 -0
v -1 2 1
v -1 2 -0
v 0 1 2
v 0 1 1
v 0 2 2
v 0 2 1
v 1 1 3
v 1 1 2
v 1 2 3
v 1 2 2
v 2 1 4
v 2 1 3
v 2 2 4
v 2 2 3
v 3 1 5
v 3 1 4
v 3 2 5
v 3 2 4
v 4 1 8
v 4 1 5
v 4 2 8
v 4 2 5
v 5 0 6
v 5 0 5
v 5 1 6
v 5 1 5
v 5 2 6
v 5 2 5
v 5 3 6
v 5 3 5
v 6 0 7
v 6 0 6
v 6 1 9
v 6 1 8
v 6 1 7
v 6 1 6
v 6 2 9
v 6 2 8
v 6 2 7
v 6 2 6
v 6 3 7
v 6 3 6
v 7 0 8
v 7 0 7
v 7 1 8
v 7 1 7
v 7 2 8
v 7 2 7
v 7 3 8
v 7 3 7
v -7 1 -8
v -7 1 -9
v -7 2 -8
v -7 2 -9
v -6 1 -7
v -6 1 -8
v -6 2 -7
v -6 2 -8
v -5 1 -6
v -5 1 -7
v -5 2 -6
v -5 2 -7
v -4 1 -5
v -4 1 -6
v -4 2 -5
v -4 2 -6
v -3 1 -4
v -3 1 -5
v -3 2 -4
v -3 2 -5
v -2 1 -3
v -2 1 -4
v -2 2 -3
v -2 2 -4
v -1 1 -2
v -1 1 -3
v -1 2 -2
v -1 2 -3
v 0 1 -1
v 0 1 -2
v 0 2 -1
v 0 2 -2
v 1 1 -0
v 1 1 -1
v 1 2 -0
v 1 2 -1
v 2 1 1
v 2 1 -0
v 2 2 1
v 2 2 -0
v 3 1 2
v 3 1 1
v 3 2 2
v 3 2 1
v 4 1 3
v 4 1 2
v 4 2 3
v 4 2 2
v 5 1 4
v 5 1 3
v 5 2 4
v 5 2 3
v 6 0 6
v 6 0 5
v 6 1 6
v 6 1 5
v 6 2 6
v 6 2 5
v 6 3 6
v 6 3 5
v 7 0 7
v 7 0 6
v 7 1 7
v 7 1 6
v 7 2 7
v 7 2 6
v 7 3 7
v 7 3 6
v 8 0 8
v 8 0 7
v 8 1 8
v 8 1 7
v 8 1 6
v 8 1 4
v 8 2 8
v 8 2 7
v 8 2 6
v 8 2 4
v 8 3 8
v 8 3 7
v 9 1 9
v 9 1 8
v 9 1 6
v 9 2 9
v 9 2 8
v 9 2 6
v 6 1 9
v 6 2 9
v 8 1 9
v 8 2 9
v 9 1 9
v 9 2 9
v 4 1 8
v 4 2 8
v 6 1 8
v 6 2 8
v 7 0 8
v 7 1 8
v 7 2 8
v 7 3 8
v 8 0 8
v 8 1 8
v 8 2 8
v 8 3 8
v 6 0 7
v 6 1 7
v 6 2 7
v 6 3 7
v 7 0 7
v 7 1 7
v 7 2 7
v 7 3 7
v 5 0 6
v 5 1 6
v 5 2 6
v 5 3 6
v 6 0 6
v 6 1 6
v 6 2 6
v 6 3 6
v 3 1 5
v 3 2 5
v 4 1 5
v 4 2 5
v 2 1 4
v 2 2 4
v 3 1 4
v 3 2 4
v 1 1 3
v 1 2 3
v 2 1 3
v 2 2 3
v 0 1 2
v 0 2 2
v 1 1 2
v 1 2 2
v -1 1 1
v -1 2 1
v 0 1 1
v 0 2 1
v -2 1 -0
v -2 2 -0
v -1 1 -0
v -1 2 -0
v -3 1 -1
v -3 2 -1
v -2 1 -1
v -2 2 -1
v -4 1 -2
v -4 2 -2
v -3 1 -2
v -3 2 -2
v -5 1 -3
v -5 2 -3
v -4 1 -3
v -4 2 -3
v -6 1 -4
v -6 2 -4
v -5 1 -4
v -5 2 -4
v -7 1 -5
v -7 2 -5
v -6 1 -5
v -6 2 -5
v -8 1 -6
v -8 2 -6
v -7 1 -6
v -7 2 -6
v -9 1 -7
v -9 2 -7
v -8 1 -7
v -8 2 -7
v 7 0 7
v 7 1 7
v 7 2 7
v 7 3 7
v 8 0 7
v 8 1 7
v 8 2 7
v 8 3 7
v 6 0 6
v 6 1 6
v 6 2 6
v 6 3 6
v 7 0 6
v 7 1 6
v 7 2 6
v 7 3 6
v 8 1 6
v 8 2 6
v 9 1 6
v 9 2 6
v 5 0 5
v 5 1 5
v 5 2 5
v 5 3 5
v 6 0 5
v 6 1 5
v 6 2 5
v 6 3 5
v 5 1 4
v 5 2 4
v 8 1 4
v 8 2 4
v 4 1 3
v 4 2 3
v 5 1 3
v 5 2 3
v 3 1 2
v 3 2 2
v 4 1 2
v 4 2 2
v 2 1 1
v 2 2 1
v 3 1 1
v 3 2 1
v 1 1 -0
v 1 2 -0
v 2 1 -0
v 2 2 -0
v 0 1 -1
v 0 2 -1
v 1 1 -1
v 1 2 -1
v -1 1 -2
v -1 2 -2
v 0 1 -2
v 0 2 -2
v -2 1 -3
v -2 2 -3
v -1 1 -3
v -1 2 -3
v -3 1 -4
v -3 2 -4
v -2 1 -4
v -2 2 -4
v -4 1 -5
v -4 2 -5
v -3 1 -5
v -3 2 -5
v -5 1 -6
v -5 2 -6
v -4 1 -6
v -4 2 -6
v -6 1 -7
v -6 2 -7
v -5 1 -7
v -5 2 -7
v -7 1 -8
v -7 2 -8
v -6 1 -8
v -6 2 -8
v -9 1 -9
v -9 2 -9
v -8 1 -9
v -8 2 -9
v -7 1 -9
v -7 2 -9
v 7 0 8
v 8 0 8
v 6 0 7
v 7 0 7
v 8 0 7
v 5 0 6
v 6 0 6
v 7 0 6
v 5 0 5
v 6 0 5
v 6 1 9
v 8 1 9
v 9 1 9
v 4 1 8
v 6 1 8
v 7 1 8
v 8 1 8
v 9 1 8
v 5 1 7
v 6 1 7
v 7 1 7
v 8 1 7
v 5 1 6
v 6 1 6
v 7 1 6
v 8 1 6
v 9 1 6
v 3 1 5
v 4 1 5
v 5 1 5
v 6 1 5
v 7 1 5
v 2 1 4
v 3 1 4
v 4 1 4
v 5 1 4
v 8 1 4
v 1 1 3
v 2 1 3
v 4 1 3
v 5 1 3
v 0 1 2
v 1 1 2
v 2 1 2
v 3 1 2
v 4 1 2
v -1 1 1
v 0 1 1
v 2 1 1
v 3 1 1
v -2 1 -0
v -1 1 -0
v 0 1 -0
v 1 1 -0
v 2 1 -0
v -3 1 -1
v -2 1 -1
v 0 1 -1
v 1 1 -1
v -4 1 -2
v -3 1 -2
v -2 1 -2
v -1 1 -2
v 0 1 -2
v -5 1 -3
v -4 1 -3
v -2 1 -3
v -1 1 -3
v -6 1 -4
v -5 1 -4
v -4 1 -4
v -3 1 -4
v -2 1 -4
v -7 1 -5
v -6 1 -5
v -4 1 -5
v -3 1 -5
v -8 1 -6
v -7 1 -6
v -6 1 -6
v -5 1 -6
v -4 1 -6
v -9 1 -7
v -8 1 -7
v -6 1 -7
v -5 1 -7
v -9 1 -8
v -8 1 -8
v -7 1 -8
v -6 1 -8
v -9 1 -9
v -8 1 -9
v -7 1 -9
v 6 2 9
v 8 2 9
v 9 2 9
v 4 2 8
v 6 2 8
v 7 2 8
v 8 2 8
v 9 2 8
v 5 2 7
v 6 2 7
v 7 2 7
v 8 2 7
v 5 2 6
v 6 2 6
v 7 2 6
v 8 2 6
v 9 2 6
v 3 2 5
v 4 2 5
v 5 2 5
v 6 2 5
v 7 2 5
v 2 2 4
v 3 2 4
v 4 2 4
v 5 2 4
v 8 2 4
v 1 2 3
v 2 2 3
v 4 2 3
v 5 2 3
v 0 2 2
v 1 2 2
v 2 2 2
v 3 2 2
v 4 2 2
v -1 2 1
v 0 2 1
v 2 2 1
v 3 2 1
v -2 2 -0
v -1 2 -0
v 0 2 -0
v 1 2 -0
v 2 2 -0
v -3 2 -1
v -2 2 -1
v 0 2 -1
v 1 2 -1
v -4 2 -2
v -3 2 -2
v -2 2 -2
v -1 2 -2
v 0 2 -2
v -5 2 -3
v -4 2 -3
v -2 2 -3
v -1 2 -3
v -6 2 -4
v -5 2 -4
v -4 2 -4
v -3 2 -4
v -2 2 -4
v -7 2 -5
v -6 2 -5
v -4 2 -5
v -3 2 -5
v -8 2 -6
v -7 2 -6
v -6 2 -6
v -5 2 -6
v -4 2 -6
v -9 2 -7
v -8 2 -7
v -6 2 -7
v -5 2 -7
v -9 2 -8
v -8 2 -8
v -7 2 -8
v -6 2 -8
v -9 2 -9
v -8 2 -9
v -7 2 -9
v 7 3 8
v 8 3 8
v 6 3 7
v 7 3 7
v 8 3 7
v 5 3 6
v 6 3 6
v 7 3 6
v 5 3 5
v 6 3 5

# faces
f 4/1/1 2/1/1 1/1/1
f 5/2/1 3/2/1 2/2/1
f 5/1/1 2/1/1 4/1/1
f 6/2/1 3/2/1 5/2/1
f 9/1/1 8/1/1 7/1/1
f 10/1/1 8/1/1 9/1/1
f 13/3/1 12/3/1 11/3/1
f 14/3/1 12/3/1 13/3/1
f 17/1/1 16/1/1 15/1/1
f 18/1/1 16/1/1 17/1/1
f 21/3/1 20/3/1 19/3/1
f 22/3/1 20/3/1 21/3/1
f 25/1/1 24/1/1 23/1/1
f 26/1/1 24/1/1 25/1/1
f 29/3/1 28/3/1 27/3/1
f 30/3/1 28/3/1 29/3/1
f 33/1/1 32/1/1 31/1/1
f 34/1/1 32/1/1 33/1/1
f 37/3/1 36/3/1 35/3/1
f 38/3/1 36/3/1 37/3/1
f 41/1/1 40/1/1 39/1/1
f 42/1/1 40/1/1 41/1/1
f 45/3/1 44/3/1 43/3/1
f 46/3/1 44/3/1 45/3/1
f 49/1/1 48/1/1 47/1/1
f 50/1/1 48/1/1 49/1/1
f 53/3/1 52/3/1 51/3/1
f 54/3/1 52/3/1 53/3/1
f 57/2/1 56/2/1 55/2/1
f 58/2/1 56/2/1 57/2/1
f 61/2/1 60/2/1 59/2/1
f 62/2/1 60/2/1 61/2/1
f 65/2/1 64/2/1 63/2/1
f 66/2/1 64/2/1 65/2/1
f 71/2/1 68/2/1 67/2/1
f 72/2/1 68/2/1 71/2/1
f 73/2/1 70/2/1 69/2/1
f 74/2/1 70/2/1 73/2/1
f 77/2/1 76/2/1 75/2/1
f 78/2/1 76/2/1 77/2/1
f 81/2/1 80/2/1 79/2/1
f 82/2/1 80/2/1 81/2/1
f 85/2/1 84/2/1 83/2/1
f 86/2/1 84/2/1 85/2/1
f 87/1/2 88/1/2 89/1/2
f 89/1/2 88/1/2 90/1/2
f 91/1/2 92/1/2 93/1/2
f 93/1/2 92/1/2 94/1/2
f 95/3/2 96/3/2 97/3/2
f 97/3/2 96/3/2 98/3/2
f 99/1/2 100/1/2 101/1/2
f 101/1/2 100/1/2 102/1/2
f 103/3/2 104/3/2 105/3/2
f 105/3/2 104/3/2 106/3/2
f 107/1/2 108/1/2 109/1/2
f 109/1/2 108/1/2 110/1/2
f 111/3/2 112/3/2 113/3/2
f 113/3/2 112/3/2 114/3/2
f 115/1/2 116/1/2 117/1/2
f 117/1/2 116/1/2 118/1/2
f 119/3/2 120/3/2 121/3/2
f 121/3/2 120/3/2 122/3/2
f 123/1/2 124/1/2 125/1/2
f 125/1/2 124/1/2 126/1/2
f 127/3/2 128/3/2 129/3/2
f 129/3/2 128/3/2 130/3/2
f 131/1/2 132/1/2 133/1/2
f 133/1/2 132/1/2 134/1/2
f 135/3/2 136/3/2 137/3/2
f 137/3/2 136/3/2 138/3/2
f 139/2/2 140/2/2 141/2/2
f 141/2/2 140/2/2 142/2/2
f 143/2/2 144/2/2 145/2/2
f 145/2/2 144/2/2 146/2/2
f 147/2/2 148/2/2 149/2/2
f 149/2/2 148/2/2 150/2/2
f 151/2/2 152/2/2 153/2/2
f 153/2/2 152/2/2 154/2/2
f 155/2/2 156/2/2 157/2/2
f 157/2/2 156/2/2 158/2/2
f 159/2/2 160/2/2 163/2/2
f 163/2/2 160/2/2 164/2/2
f 161/2/2 162/2/2 165/2/2
f 165/2/2 162/2/2 166/2/2
f 167/1/2 168/1/2 170/1/2
f 168/2/2 169/2/2 171/2/2
f 170/1/2 168/1/2 171/1/2
f 171/2/2 169/2/2 172/2/2
f 175/2/3 174/2/3 173/2/3
f 176/2/3 174/2/3 175/2/3
f 177/1/3 176/1/3 175/1/3
f 178/1/3 176/1/3 177/1/3
f 181/2/3 180/2/3 179/2/3
f 182/2/3 180/2/3 181/2/3
f 187/2/3 184/2/3 183/2/3
f 188/2/3 184/2/3 187/2/3
f 189/2/3 186/2/3 185/2/3
f 190/2/3 186/2/3 189/2/3
f 195/2/3 192/2/3 191/2/3
f 196/2/3 192/2/3 195/2/3
f 197/2/3 194/2/3 193/2/3
f 198/2/3 194/2/3 197/2/3
f 203/2/3 200/2/3 199/2/3
f 204/2/3 200/2/3 203/2/3
f 205/2/3 202/2/3 201/2/3
f 206/2/3 202/2/3 205/2/3
f 209/3/3 208/3/3 207/3/3
f 210/3/3 208/3/3 209/3/3
f 213/1/3 212/1/3 211/1/3
f 214/1/3 212/1/3 213/1/3
f 217/3/3 216/3/3 215/3/3
f 218/3/3 216/3/3 217/3/3
f 221/1/3 220/1/3 219/1/3
f 222/1/3 220/1/3 221/1/3
f 225/3/3 224/3/3 223/3/3
f 226/3/3 224/3/3 225/3/3
f 229/1/3 228/1/3 227/1/3
f 230/1/3 228/1/3 229/1/3
f 233/3/3 232/3/3 231/3/3
f 234/3/3 232/3/3 233/3/3
f 237/1/3 236/1/3 235/1/3
f 238/1/3 236/1/3 237/1/3
f 241/3/3 240/3/3 239/3/3
f 242/3/3 240/3/3 241/3/3
f 245/1/3 244/1/3 243/1/3
f 246/1/3 244/1/3 245/1/3
f 249/3/3 248/3/3 247/3/3
f 250/3/3 248/3/3 249/3/3
f 253/1/3 252/1/3 251/1/3
f 254/1/3 252/1/3 253/1/3
f 257/1/3 256/1/3 255/1/3
f 258/1/3 256/1/3 257/1/3
f 259/2/4 260/2/4 263/2/4
f 263/2/4 260/2/4 264/2/4
f 261/2/4 262/2/4 265/2/4
f 265/2/4 262/2/4 266/2/4
f 267/2/4 268/2/4 271/2/4
f 271/2/4 268/2/4 272/2/4
f 269/2/4 270/2/4 273/2/4
f 273/2/4 270/2/4 274/2/4
f 275/2/4 276/2/4 277/2/4
f 277/2/4 276/2/4 278/2/4
f 279/2/4 280/2/4 283/2/4
f 283/2/4 280/2/4 284/2/4
f 281/2/4 282/2/4 285/2/4
f 285/2/4 282/2/4 286/2/4
f 287/2/4 288/2/4 289/2/4
f 289/2/4 288/2/4 290/2/4
f 291/3/4 292/3/4 293/3/4
f 293/3/4 292/3/4 294/3/4
f 295/1/4 296/1/4 297/1/4
f 297/1/4 296/1/4 298/1/4
f 299/3/4 300/3/4 301/3/4
f 301/3/4 300/3/4 302/3/4
f 303/1/4 304/1/4 305/1/4
f 305/1/4 304/1/4 306/1/4
f 307/3/4 308/3/4 309/3/4
f 309/3/4 308/3/4 310/3/4
f 311/1/4 312/1/4 313/1/4
f 313/1/4 312/1/4 314/1/4
f 315/3/4 316/3/4 317/3/4
f 317/3/4 316/3/4 318/3/4
f 319/1/4 320/1/4 321/1/4
f 321/1/4 320/1/4 322/1/4
f 323/3/4 324/3/4 325/3/4
f 325/3/4 324/3/4 326/3/4
f 327/1/4 328/1/4 329/1/4
f 329/1/4 328/1/4 330/1/4
f 331/3/4 332/3/4 333/3/4
f 333/3/4 332/3/4 334/3/4
f 335/1/4 336/1/4 337/1/4
f 337/1/4 336/1/4 338/1/4
f 339/2/4 340/2/4 341/2/4
f 341/2/4 340/2/4 342/2/4
f 341/1/4 342/1/4 343/1/4
f 343/1/4 342/1/4 344/1/4
f 348/2/5 346/2/5 345/2/5
f 349/2/5 346/2/5 348/2/5
f 351/2/5 348/2/5 347/2/5
f 352/2/5 348/2/5 351/2/5
f 353/2/5 351/2/5 350/2/5
f 354/2/5 351/2/5 353/2/5
f 359/2/5 356/2/5 355/2/5
f 360/2/5 356/2/5 359/2/5
f 361/1/5 357/1/5 356/1/5
f 361/2/5 356/2/5 360/2/5
f 362/1/5 357/1/5 361/1/5
f 363/2/5 359/2/5 358/2/5
f 364/1/5 360/1/5 359/1/5
f 364/2/5 359/2/5 363/2/5
f 365/1/5 360/1/5 364/1/5
f 366/2/5 362/2/5 361/2/5
f 367/2/5 363/2/5 358/2/5
f 367/1/5 364/1/5 363/1/5
f 368/1/5 364/1/5 367/1/5
f 369/1/5 366/1/5 365/1/5
f 370/2/5 362/2/5 366/2/5
f 370/1/5 366/1/5 369/1/5
f 371/2/5 362/2/5 370/2/5
f 373/2/5 367/2/5 358/2/5
f 374/2/5 367/2/5 373/2/5
f 375/1/5 369/1/5 368/1/5
f 376/2/5 370/2/5 369/2/5
f 376/1/5 369/1/5 375/1/5
f 378/3/5 374/3/5 373/3/5
f 378/3/5 373/3/5 372/3/5
f 379/3/5 374/3/5 378/3/5
f 380/2/5 375/2/5 374/2/5
f 380/3/5 374/3/5 379/3/5
f 380/2/5 376/2/5 375/2/5
f 381/2/5 370/2/5 376/2/5
f 381/2/5 376/2/5 380/2/5
f 383/1/5 379/1/5 378/1/5
f 383/1/5 378/1/5 377/1/5
f 384/3/5 380/3/5 379/3/5
f 384/1/5 379/1/5 383/1/5
f 385/3/5 380/3/5 384/3/5
f 387/3/5 383/3/5 382/3/5
f 388/1/5 384/1/5 383/1/5
f 388/3/5 383/3/5 387/3/5
f 389/1/5 384/1/5 388/1/5
f 390/1/5 384/1/5 389/1/5
f 392/1/5 387/1/5 386/1/5
f 392/1/5 388/1/5 387/1/5
f 393/3/5 389/3/5 388/3/5
f 393/1/5 388/1/5 392/1/5
f 394/3/5 389/3/5 393/3/5
f 396/3/5 392/3/5 391/3/5
f 397/1/5 393/1/5 392/1/5
f 397/3/5 392/3/5 396/3/5
f 398/1/5 393/1/5 397/1/5
f 399/1/5 393/1/5 398/1/5
f 401/1/5 396/1/5 395/1/5
f 401/1/5 397/1/5 396/1/5
f 402/3/5 398/3/5 397/3/5
f 402/1/5 397/1/5 401/1/5
f 403/3/5 398/3/5 402/3/5
f 405/3/5 401/3/5 400/3/5
f 406/1/5 402/1/5 401/1/5
f 406/3/5 401/3/5 405/3/5
f 407/1/5 402/1/5 406/1/5
f 408/1/5 402/1/5 407/1/5
f 410/1/5 405/1/5 404/1/5
f 410/1/5 406/1/5 405/1/5
f 411/3/5 407/3/5 406/3/5
f 411/1/5 406/1/5 410/1/5
f 412/3/5 407/3/5 411/3/5
f 414/3/5 410/3/5 409/3/5
f 415/1/5 411/1/5 410/1/5
f 415/3/5 410/3/5 414/3/5
f 416/1/5 411/1/5 415/1/5
f 417/1/5 411/1/5 416/1/5
f 419/1/5 414/1/5 413/1/5
f 419/1/5 415/1/5 414/1/5
f 420/3/5 416/3/5 415/3/5
f 420/1/5 415/1/5 419/1/5
f 421/3/5 416/3/5 420/3/5
f 423/3/5 419/3/5 418/3/5
f 424/1/5 420/1/5 419/1/5
f 424/3/5 419/3/5 423/3/5
f 425/1/5 420/1/5 424/1/5
f 426/1/5 420/1/5 425/1/5
f 428/1/5 423/1/5 422/1/5
f 428/1/5 424/1/5 423/1/5
f 429/3/5 425/3/5 424/3/5
f 429/1/5 424/1/5 428/1/5
f 430/3/5 425/3/5 429/3/5
f 431/1/5 428/1/5 427/1/5
f 431/1/5 429/1/5 428/1/5
f 432/1/5 429/1/5 431/1/5
f 433/1/5 429/1/5 432/1/5
f 434/1/5 429/1/5 433/1/5
f 435/2/5 432/2/5 431/2/5
f 436/1/5 433/1/5 432/1/5
f 436/2/5 432/2/5 435/2/5
f 437/1/5 433/1/5 436/1/5
f 438/2/6 439/2/6 442/2/6
f 442/2/6 439/2/6 443/2/6
f 439/1/6 440/1/6 444/1/6
f 443/2/6 439/2/6 444/2/6
f 444/1/6 440/1/6 445/1/6
f 441/2/6 442/2/6 446/2/6
f 442/1/6 443/1/6 447/1/6
f 446/2/6 442/2/6 447/2/6
f 447/1/6 443/1/6 448/1/6
f 444/2/6 445/2/6 449/2/6
f 441/2/6 446/2/6 450/2/6
f 446/1/6 447/1/6 450/1/6
f 450/1/6 447/1/6 451/1/6
f 448/1/6 449/1/6 452/1/6
f 449/2/6 445/2/6 453/2/6
f 452/1/6 449/1/6 453/1/6
f 453/2/6 445/2/6 454/2/6
f 441/2/6 450/2/6 456/2/6
f 456/2/6 450/2/6 457/2/6
f 451/1/6 452/1/6 458/1/6
f 452/2/6 453/2/6 459/2/6
f 458/1/6 452/1/6 459/1/6
f 456/3/6 457/3/6 461/3/6
f 455/3/6 456/3/6 461/3/6
f 461/3/6 457/3/6 462/3/6
f 457/2/6 458/2/6 463/2/6
f 462/3/6 457/3/6 463/3/6
f 458/2/6 459/2/6 463/2/6
f 459/2/6 453/2/6 464/2/6
f 463/2/6 459/2/6 464/2/6
f 461/1/6 462/1/6 466/1/6
f 460/1/6 461/1/6 466/1/6
f 462/3/6 463/3/6 467/3/6
f 466/1/6 462/1/6 467/1/6
f 467/3/6 463/3/6 468/3/6
f 465/3/6 466/3/6 470/3/6
f 466/1/6 467/1/6 471/1/6
f 470/3/6 466/3/6 471/3/6
f 471/1/6 467/1/6 472/1/6
f 472/1/6 467/1/6 473/1/6
f 469/1/6 470/1/6 475/1/6
f 470/1/6 471/1/6 475/1/6
f 471/3/6 472/3/6 476/3/6
f 475/1/6 471/1/6 476/1/6
f 476/3/6 472/3/6 477/3/6
f 474/3/6 475/3/6 479/3/6
f 475/1/6 476/1/6 480/1/6
f 479/3/6 475/3/6 480/3/6
f 480/1/6 476/1/6 481/1/6
f 481/1/6 476/1/6 482/1/6
f 478/1/6 479/1/6 484/1/6
f 479/1/6 480/1/6 484/1/6
f 480/3/6 481/3/6 485/3/6
f 484/1/6 480/1/6 485/1/6
f 485/3/6 481/3/6 486/3/6
f 483/3/6 484/3/6 488/3/6
f 484/1/6 485/1/6 489/1/6
f 488/3/6 484/3/6 489/3/6
f 489/1/6 485/1/6 490/1/6
f 490/1/6 485/1/6 491/1/6
f 487/1/6 488/1/6 493/1/6
f 488/1/6 489/1/6 493/1/6
f 489/3/6 490/3/6 494/3/6
f 493/1/6 489/1/6 494/1/6
f 494/3/6 490/3/6 495/3/6
f 492/3/6 493/3/6 497/3/6
f 493/1/6 494/1/6 498/1/6
f 497/3/6 493/3/6 498/3/6
f 498/1/6 494/1/6 499/1/6
f 499/1/6 494/1/6 500/1/6
f 496/1/6 497/1/6 502/1/6
f 497/1/6 498/1/6 502/1/6
f 498/3/6 499/3/6 503/3/6
f 502/1/6 498/1/6 503/1/6
f 503/3/6 499/3/6 504/3/6
f 501/3/6 502/3/6 506/3/6
f 502/1/6 503/1/6 507/1/6
f 506/3/6 502/3/6 507/3/6
f 507/1/6 503/1/6 508/1/6
f 508/1/6 503/1/6 509/1/6
f 505/1/6 506/1/6 511/1/6
f 506/1/6 507/1/6 511/1/6
f 507/3/6 508/3/6 512/3/6
f 511/1/6 507/1/6 512/1/6
f 512/3/6 508/3/6 513/3/6
f 510/1/6 511/1/6 514/1/6
f 511/1/6 512/1/6 514/1/6
f 514/1/6 512/1/6 515/1/6
f 515/1/6 512/1/6 516/1/6
f 516/1/6 512/1/6 517/1/6
f 514/2/6 515/2/6 518/2/6
f 515/1/6 516/1/6 519/1/6
f 518/2/6 515/2/6 519/2/6
f 519/1/6 516/1/6 520/1/6
f 521/2/6 522/2/6 524/2/6
f 524/2/6 522/2/6 525/2/6
f 523/2/6 524/2/6 527/2/6
f 527/2/6 524/2/6 528/2/6
f 526/2/6 527/2/6 529/2/6
f 529/2/6 527/2/6 530/2/6
