# MagicaVoxel @ Ephtracy

# material
mtllib player.mtl
usemtl palette

# normals
vn -1 0 0
vn 1 0 0
vn 0 0 1
vn 0 0 -1
vn 0 -1 0
vn 0 1 0

# texcoords
vt 0.00585938 0.5
vt 0.369141 0.5
vt 0.958984 0.5
vt 0.966797 0.5
vt 0.978516 0.5
vt 0.986328 0.5

# verts
v -2 5 2
v -2 5 -2
v -2 6 2
v -2 6 -2
v -2 8 2
v -2 8 1
v -2 8 -1
v -2 8 -2
v -2 9 1
v -2 9 -1
v -1 0 3
v -1 0 2
v -1 0 -2
v -1 0 -3
v -1 1 3
v -1 1 2
v -1 1 -2
v -1 1 -3
v -1 2 3
v -1 2 2
v -1 2 -2
v -1 2 -3
v -1 3 2
v -1 3 1
v -1 3 -1
v -1 3 -2
v -1 4 1
v -1 4 -1
v -1 5 5
v -1 5 4
v -1 5 3
v -1 5 2
v -1 5 -2
v -1 5 -3
v -1 5 -4
v -1 5 -5
v -1 6 4
v -1 6 2
v -1 6 -2
v -1 6 -4
v -1 7 5
v -1 7 4
v -1 7 3
v -1 7 2
v -1 7 -2
v -1 7 -3
v -1 7 -4
v -1 7 -5
v -1 8 4
v -1 8 3
v -1 8 2
v -1 8 1
v -1 8 -1
v -1 8 -2
v -1 8 -3
v -1 8 -4
v -1 9 1
v -1 9 -1
v -1 10 2
v -1 10 -2
v 0 3 5
v 0 3 4
v 0 3 -4
v 0 3 -5
v 0 4 5
v 0 4 4
v 0 4 -4
v 0 4 -5
v 0 5 5
v 0 5 4
v 0 5 -4
v 0 5 -5
v 0 7 5
v 0 7 4
v 0 7 3
v 0 7 2
v 0 7 -2
v 0 7 -3
v 0 7 -4
v 0 7 -5
v 0 8 5
v 0 8 4
v 0 8 3
v 0 8 -3
v 0 8 -4
v 0 8 -5
v 0 9 3
v 0 9 2
v 0 9 -2
v 0 9 -3
v 0 10 1
v 0 10 -1
v 0 11 1
v 0 11 -1
v 0 0 3
v 0 0 2
v 0 0 -2
v 0 0 -3
v 0 1 3
v 0 1 2
v 0 1 -2
v 0 1 -3
v 0 2 3
v 0 2 2
v 0 2 -2
v 0 2 -3
v 1 2 3
v 1 2 2
v 1 2 -2
v 1 2 -3
v 1 3 5
v 1 3 4
v 1 3 2
v 1 3 1
v 1 3 -1
v 1 3 -2
v 1 3 -4
v 1 3 -5
v 1 4 5
v 1 4 4
v 1 4 1
v 1 4 -1
v 1 4 -4
v 1 4 -5
v 1 5 3
v 1 5 2
v 1 5 -2
v 1 5 -3
v 1 6 5
v 1 6 4
v 1 6 2
v 1 6 1
v 1 6 -1
v 1 6 -2
v 1 6 -4
v 1 6 -5
v 1 7 1
v 1 7 -1
v 1 8 5
v 1 8 3
v 1 8 2
v 1 8 1
v 1 8 -1
v 1 8 -2
v 1 8 -3
v 1 8 -5
v 1 9 3
v 1 9 2
v 1 9 1
v 1 9 -1
v 1 9 -2
v 1 9 -3
v 1 10 2
v 1 10 1
v 1 10 -1
v 1 10 -2
v 2 4 5
v 2 4 4
v 2 4 -4
v 2 4 -5
v 2 6 5
v 2 6 4
v 2 6 -4
v 2 6 -5
v 2 7 1
v 2 7 -1
v 2 8 2
v 2 8 1
v 2 8 -1
v 2 8 -2
v 2 9 2
v 2 9 1
v 2 9 -1
v 2 9 -2
v 2 10 1
v 2 10 -1
v 2 11 1
v 2 11 -1
v -1 5 5
v -1 7 5
v 0 3 5
v 0 4 5
v 0 5 5
v 0 7 5
v 0 8 5
v 1 3 5
v 1 4 5
v 1 6 5
v 1 8 5
v 2 4 5
v 2 6 5
v -1 7 4
v -1 8 4
v 0 7 4
v 0 8 4
v -1 0 3
v -1 1 3
v -1 2 3
v -1 5 3
v 0 0 3
v 0 1 3
v 0 2 3
v 0 8 3
v 0 9 3
v 1 2 3
v 1 5 3
v 1 8 3
v 1 9 3
v -2 5 2
v -2 6 2
v -2 8 2
v -1 5 2
v -1 6 2
v -1 7 2
v -1 8 2
v -1 10 2
v 0 5 2
v 0 6 2
v 0 7 2
v 0 9 2
v 1 5 2
v 1 6 2
v 1 8 2
v 1 9 2
v 1 10 2
v 2 8 2
v 2 9 2
v -2 8 1
v -2 9 1
v -1 8 1
v -1 9 1
v 0 10 1
v 0 11 1
v 1 7 1
v 1 8 1
v 1 9 1
v 1 10 1
v 2 7 1
v 2 8 1
v 2 9 1
v 2 10 1
v 2 11 1
v -1 3 -1
v -1 4 -1
v 1 3 -1
v 1 4 -1
v -1 0 -2
v -1 1 -2
v -1 2 -2
v -1 3 -2
v 0 0 -2
v 0 1 -2
v 0 2 -2
v 1 2 -2
v 1 3 -2
v -1 7 -3
v -1 8 -3
v 0 7 -3
v 0 8 -3
v -1 5 -4
v -1 6 -4
v 0 3 -4
v 0 4 -4
v 0 5 -4
v 1 3 -4
v 1 4 -4
v 1 6 -4
v 2 4 -4
v 2 6 -4
v -1 5 4
v -1 6 4
v 0 3 4
v 0 4 4
v 0 5 4
v 1 3 4
v 1 4 4
v 1 6 4
v 2 4 4
v 2 6 4
v -1 7 3
v -1 8 3
v 0 7 3
v 0 8 3
v -1 0 2
v -1 1 2
v -1 2 2
v -1 3 2
v 0 0 2
v 0 1 2
v 0 2 2
v 1 2 2
v 1 3 2
v -1 3 1
v -1 4 1
v 1 3 1
v 1 4 1
v -2 8 -1
v -2 9 -1
v -1 8 -1
v -1 9 -1
v 0 10 -1
v 0 11 -1
v 1 7 -1
v 1 8 -1
v 1 9 -1
v 1 10 -1
v 2 7 -1
v 2 8 -1
v 2 9 -1
v 2 10 -1
v 2 11 -1
v -2 5 -2
v -2 6 -2
v -2 8 -2
v -1 5 -2
v -1 6 -2
v -1 7 -2
v -1 8 -2
v -1 10 -2
v 0 5 -2
v 0 6 -2
v 0 7 -2
v 0 9 -2
v 1 5 -2
v 1 6 -2
v 1 8 -2
v 1 9 -2
v 1 10 -2
v 2 8 -2
v 2 9 -2
v -1 0 -3
v -1 1 -3
v -1 2 -3
v -1 5 -3
v 0 0 -3
v 0 1 -3
v 0 2 -3
v 0 8 -3
v 0 9 -3
v 1 2 -3
v 1 5 -3
v 1 8 -3
v 1 9 -3
v -1 7 -4
v -1 8 -4
v 0 7 -4
v 0 8 -4
v -1 5 -5
v -1 7 -5
v 0 3 -5
v 0 4 -5
v 0 5 -5
v 0 7 -5
v 0 8 -5
v 1 3 -5
v 1 4 -5
v 1 6 -5
v 1 8 -5
v 2 4 -5
v 2 6 -5
v -1 0 3
v 0 0 3
v -1 0 2
v 0 0 2
v -1 0 -2
v 0 0 -2
v -1 0 -3
v 0 0 -3
v 0 2 3
v 1 2 3
v 0 2 2
v 1 2 2
v 0 2 -2
v 1 2 -2
v 0 2 -3
v 1 2 -3
v 0 3 5
v 1 3 5
v 0 3 4
v 1 3 4
v -1 3 2
v 1 3 2
v -1 3 1
v 1 3 1
v -1 3 -1
v 1 3 -1
v -1 3 -2
v 1 3 -2
v 0 3 -4
v 1 3 -4
v 0 3 -5
v 1 3 -5
v 1 4 5
v 2 4 5
v 1 4 4
v 2 4 4
v -1 4 1
v 1 4 1
v -1 4 -1
v 1 4 -1
v 1 4 -4
v 2 4 -4
v 1 4 -5
v 2 4 -5
v -1 5 5
v 0 5 5
v -1 5 4
v 0 5 4
v -2 5 2
v -1 5 2
v -2 5 -2
v -1 5 -2
v -1 5 -4
v 0 5 -4
v -1 5 -5
v 0 5 -5
v -1 6 4
v 1 6 4
v -1 6 2
v 0 6 2
v 1 6 2
v -1 6 -2
v 0 6 -2
v 1 6 -2
v -1 6 -4
v 1 6 -4
v 1 7 1
v 2 7 1
v 1 7 -1
v 2 7 -1
v 1 8 2
v 2 8 2
v 1 8 1
v 2 8 1
v 1 8 -1
v 2 8 -1
v 1 8 -2
v 2 8 -2
v -1 5 3
v 1 5 3
v -1 5 2
v 0 5 2
v 1 5 2
v -1 5 -2
v 0 5 -2
v 1 5 -2
v -1 5 -3
v 1 5 -3
v 1 6 5
v 2 6 5
v 1 6 4
v 2 6 4
v 1 6 -4
v 2 6 -4
v 1 6 -5
v 2 6 -5
v -1 7 5
v 0 7 5
v -1 7 4
v 0 7 4
v -1 7 3
v 0 7 3
v -1 7 2
v 0 7 2
v -1 7 -2
v 0 7 -2
v -1 7 -3
v 0 7 -3
v -1 7 -4
v 0 7 -4
v -1 7 -5
v 0 7 -5
v 0 8 5
v 1 8 5
v -1 8 4
v 0 8 4
v -1 8 3
v 0 8 3
v 1 8 3
v -2 8 2
v -1 8 2
v -2 8 1
v -1 8 1
v -2 8 -1
v -1 8 -1
v -2 8 -2
v -1 8 -2
v -1 8 -3
v 0 8 -3
v 1 8 -3
v -1 8 -4
v 0 8 -4
v 0 8 -5
v 1 8 -5
v 0 9 3
v 1 9 3
v 0 9 2
v 1 9 2
v 2 9 2
v -2 9 1
v -1 9 1
v 1 9 1
v 2 9 1
v -2 9 -1
v -1 9 -1
v 1 9 -1
v 2 9 -1
v 0 9 -2
v 1 9 -2
v 2 9 -2
v 0 9 -3
v 1 9 -3
v -1 10 2
v 1 10 2
v 0 10 1
v 1 10 1
v 0 10 -1
v 1 10 -1
v -1 10 -2
v 1 10 -2
v 0 11 1
v 2 11 1
v 0 11 -1
v 2 11 -1

# faces
f 3/2/1 2/2/1 1/2/1
f 4/2/1 2/2/1 3/2/1
f 5/1/1 4/1/1 3/1/1
f 6/1/1 4/1/1 5/1/1
f 7/1/1 4/1/1 6/1/1
f 8/1/1 4/1/1 7/1/1
f 9/6/1 7/6/1 6/6/1
f 10/6/1 7/6/1 9/6/1
f 15/5/1 12/5/1 11/5/1
f 16/5/1 12/5/1 15/5/1
f 17/5/1 14/5/1 13/5/1
f 18/5/1 14/5/1 17/5/1
f 19/4/1 16/4/1 15/4/1
f 20/4/1 16/4/1 19/4/1
f 21/4/1 18/4/1 17/4/1
f 22/4/1 18/4/1 21/4/1
f 23/2/1 20/2/1 19/2/1
f 26/2/1 22/2/1 21/2/1
f 27/2/1 24/2/1 23/2/1
f 28/2/1 26/2/1 25/2/1
f 31/2/1 27/2/1 23/2/1
f 31/2/1 23/2/1 19/2/1
f 31/2/1 28/2/1 27/2/1
f 32/2/1 28/2/1 31/2/1
f 33/2/1 26/2/1 28/2/1
f 33/2/1 28/2/1 32/2/1
f 33/2/1 22/2/1 26/2/1
f 34/2/1 22/2/1 33/2/1
f 37/1/1 30/1/1 29/1/1
f 40/1/1 36/1/1 35/1/1
f 41/1/1 38/1/1 37/1/1
f 41/1/1 37/1/1 29/1/1
f 42/1/1 38/1/1 41/1/1
f 43/1/1 38/1/1 42/1/1
f 44/1/1 38/1/1 43/1/1
f 45/1/1 40/1/1 39/1/1
f 46/1/1 40/1/1 45/1/1
f 47/1/1 36/1/1 40/1/1
f 47/1/1 40/1/1 46/1/1
f 48/1/1 36/1/1 47/1/1
f 49/1/1 43/1/1 42/1/1
f 50/1/1 43/1/1 49/1/1
f 55/1/1 47/1/1 46/1/1
f 56/1/1 47/1/1 55/1/1
f 57/6/1 52/6/1 51/6/1
f 58/6/1 54/6/1 53/6/1
f 59/6/1 57/6/1 51/6/1
f 59/6/1 58/6/1 57/6/1
f 60/6/1 54/6/1 58/6/1
f 60/6/1 58/6/1 59/6/1
f 65/4/1 62/4/1 61/4/1
f 66/4/1 62/4/1 65/4/1
f 67/4/1 64/4/1 63/4/1
f 68/4/1 64/4/1 67/4/1
f 69/1/1 66/1/1 65/1/1
f 70/1/1 66/1/1 69/1/1
f 71/1/1 68/1/1 67/1/1
f 72/1/1 68/1/1 71/1/1
f 81/1/1 74/1/1 73/1/1
f 82/1/1 74/1/1 81/1/1
f 83/1/1 76/1/1 75/1/1
f 84/1/1 78/1/1 77/1/1
f 85/1/1 80/1/1 79/1/1
f 86/1/1 80/1/1 85/1/1
f 87/1/1 76/1/1 83/1/1
f 88/1/1 76/1/1 87/1/1
f 89/1/1 84/1/1 77/1/1
f 90/1/1 84/1/1 89/1/1
f 93/6/1 92/6/1 91/6/1
f 94/6/1 92/6/1 93/6/1
f 95/5/2 96/5/2 99/5/2
f 99/5/2 96/5/2 100/5/2
f 97/5/2 98/5/2 101/5/2
f 101/5/2 98/5/2 102/5/2
f 99/4/2 100/4/2 103/4/2
f 103/4/2 100/4/2 104/4/2
f 101/4/2 102/4/2 105/4/2
f 105/4/2 102/4/2 106/4/2
f 107/2/2 108/2/2 113/2/2
f 109/2/2 110/2/2 116/2/2
f 111/4/2 112/4/2 119/4/2
f 119/4/2 112/4/2 120/4/2
f 113/2/2 114/2/2 121/2/2
f 115/2/2 116/2/2 122/2/2
f 117/4/2 118/4/2 123/4/2
f 123/4/2 118/4/2 124/4/2
f 121/2/2 122/2/2 125/2/2
f 107/2/2 113/2/2 125/2/2
f 113/2/2 121/2/2 125/2/2
f 125/2/2 122/2/2 126/2/2
f 122/2/2 116/2/2 127/2/2
f 126/2/2 122/2/2 127/2/2
f 116/2/2 110/2/2 127/2/2
f 127/2/2 110/2/2 128/2/2
f 126/1/2 127/1/2 131/1/2
f 131/1/2 127/1/2 132/1/2
f 132/1/2 127/1/2 133/1/2
f 133/1/2 127/1/2 134/1/2
f 129/1/2 130/1/2 137/1/2
f 130/1/2 131/1/2 137/1/2
f 131/1/2 132/1/2 137/1/2
f 132/6/2 133/6/2 137/6/2
f 133/1/2 134/1/2 138/1/2
f 137/6/2 133/6/2 138/6/2
f 135/1/2 136/1/2 138/1/2
f 134/1/2 135/1/2 138/1/2
f 129/1/2 137/1/2 139/1/2
f 139/1/2 137/1/2 140/1/2
f 140/1/2 137/1/2 141/1/2
f 141/1/2 137/1/2 142/1/2
f 138/1/2 136/1/2 143/1/2
f 143/1/2 136/1/2 144/1/2
f 144/1/2 136/1/2 145/1/2
f 145/1/2 136/1/2 146/1/2
f 140/1/2 141/1/2 147/1/2
f 147/1/2 141/1/2 148/1/2
f 144/1/2 145/1/2 151/1/2
f 151/1/2 145/1/2 152/1/2
f 148/6/2 149/6/2 153/6/2
f 153/6/2 149/6/2 154/6/2
f 150/6/2 151/6/2 155/6/2
f 155/6/2 151/6/2 156/6/2
f 157/1/2 158/1/2 161/1/2
f 161/1/2 158/1/2 162/1/2
f 159/1/2 160/1/2 163/1/2
f 163/1/2 160/1/2 164/1/2
f 165/4/2 166/4/2 168/4/2
f 168/4/2 166/4/2 169/4/2
f 167/3/2 168/3/2 171/3/2
f 168/4/2 169/4/2 172/4/2
f 171/3/2 168/3/2 172/3/2
f 169/3/2 170/3/2 173/3/2
f 172/4/2 169/4/2 173/4/2
f 173/3/2 170/3/2 174/3/2
f 172/4/2 173/4/2 175/4/2
f 175/4/2 173/4/2 176/4/2
f 175/6/2 176/6/2 177/6/2
f 177/6/2 176/6/2 178/6/2
f 183/1/3 180/1/3 179/1/3
f 184/1/3 180/1/3 183/1/3
f 186/4/3 182/4/3 181/4/3
f 187/1/3 185/1/3 184/1/3
f 187/4/3 182/4/3 186/4/3
f 187/1/3 183/1/3 182/1/3
f 187/1/3 184/1/3 183/1/3
f 188/1/3 185/1/3 187/1/3
f 189/1/3 185/1/3 188/1/3
f 190/1/3 188/1/3 187/1/3
f 191/1/3 188/1/3 190/1/3
f 194/1/3 193/1/3 192/1/3
f 195/1/3 193/1/3 194/1/3
f 200/5/3 197/5/3 196/5/3
f 201/4/3 198/4/3 197/4/3
f 201/5/3 197/5/3 200/5/3
f 202/2/3 199/2/3 198/2/3
f 202/4/3 198/4/3 201/4/3
f 205/2/3 199/2/3 202/2/3
f 206/2/3 199/2/3 205/2/3
f 207/1/3 204/1/3 203/1/3
f 208/1/3 204/1/3 207/1/3
f 212/2/3 210/2/3 209/2/3
f 213/1/3 211/1/3 210/1/3
f 213/2/3 210/2/3 212/2/3
f 214/1/3 211/1/3 213/1/3
f 215/1/3 211/1/3 214/1/3
f 217/2/3 213/2/3 212/2/3
f 218/2/3 213/2/3 217/2/3
f 219/6/3 216/6/3 215/6/3
f 219/6/3 215/6/3 214/6/3
f 220/6/3 216/6/3 219/6/3
f 221/1/3 218/1/3 217/1/3
f 222/1/3 218/1/3 221/1/3
f 224/6/3 216/6/3 220/6/3
f 225/6/3 216/6/3 224/6/3
f 226/3/3 224/3/3 223/3/3
f 227/3/3 224/3/3 226/3/3
f 230/6/3 229/6/3 228/6/3
f 231/6/3 229/6/3 230/6/3
f 237/6/3 233/6/3 232/6/3
f 238/4/3 235/4/3 234/4/3
f 239/4/3 235/4/3 238/4/3
f 240/4/3 237/4/3 236/4/3
f 241/6/3 233/6/3 237/6/3
f 241/4/3 237/4/3 240/4/3
f 242/6/3 233/6/3 241/6/3
f 245/2/3 244/2/3 243/2/3
f 246/2/3 244/2/3 245/2/3
f 251/5/3 248/5/3 247/5/3
f 252/4/3 249/4/3 248/4/3
f 252/5/3 248/5/3 251/5/3
f 253/2/3 250/2/3 249/2/3
f 253/4/3 249/4/3 252/4/3
f 254/2/3 250/2/3 253/2/3
f 255/2/3 250/2/3 254/2/3
f 258/1/3 257/1/3 256/1/3
f 259/1/3 257/1/3 258/1/3
f 264/1/3 261/1/3 260/1/3
f 265/4/3 263/4/3 262/4/3
f 266/1/3 264/1/3 263/1/3
f 266/4/3 263/4/3 265/4/3
f 267/1/3 261/1/3 264/1/3
f 267/1/3 264/1/3 266/1/3
f 268/1/3 267/1/3 266/1/3
f 269/1/3 267/1/3 268/1/3
f 270/1/4 271/1/4 274/1/4
f 272/4/4 273/4/4 275/4/4
f 273/1/4 274/1/4 276/1/4
f 275/4/4 273/4/4 276/4/4
f 274/1/4 271/1/4 277/1/4
f 276/1/4 274/1/4 277/1/4
f 276/1/4 277/1/4 278/1/4
f 278/1/4 277/1/4 279/1/4
f 280/1/4 281/1/4 282/1/4
f 282/1/4 281/1/4 283/1/4
f 284/5/4 285/5/4 288/5/4
f 285/4/4 286/4/4 289/4/4
f 288/5/4 285/5/4 289/5/4
f 286/2/4 287/2/4 290/2/4
f 289/4/4 286/4/4 290/4/4
f 290/2/4 287/2/4 291/2/4
f 291/2/4 287/2/4 292/2/4
f 293/2/4 294/2/4 295/2/4
f 295/2/4 294/2/4 296/2/4
f 297/6/4 298/6/4 299/6/4
f 299/6/4 298/6/4 300/6/4
f 301/6/4 302/6/4 306/6/4
f 303/4/4 304/4/4 307/4/4
f 307/4/4 304/4/4 308/4/4
f 305/4/4 306/4/4 309/4/4
f 306/6/4 302/6/4 310/6/4
f 309/4/4 306/4/4 310/4/4
f 310/6/4 302/6/4 311/6/4
f 312/2/4 313/2/4 315/2/4
f 313/1/4 314/1/4 316/1/4
f 315/2/4 313/2/4 316/2/4
f 316/1/4 314/1/4 317/1/4
f 317/1/4 314/1/4 318/1/4
f 315/2/4 316/2/4 320/2/4
f 320/2/4 316/2/4 321/2/4
f 318/6/4 319/6/4 322/6/4
f 317/6/4 318/6/4 322/6/4
f 322/6/4 319/6/4 323/6/4
f 320/1/4 321/1/4 324/1/4
f 324/1/4 321/1/4 325/1/4
f 323/6/4 319/6/4 327/6/4
f 327/6/4 319/6/4 328/6/4
f 326/3/4 327/3/4 329/3/4
f 329/3/4 327/3/4 330/3/4
f 331/5/4 332/5/4 335/5/4
f 332/4/4 333/4/4 336/4/4
f 335/5/4 332/5/4 336/5/4
f 333/2/4 334/2/4 337/2/4
f 336/4/4 333/4/4 337/4/4
f 337/2/4 334/2/4 340/2/4
f 340/2/4 334/2/4 341/2/4
f 338/1/4 339/1/4 342/1/4
f 342/1/4 339/1/4 343/1/4
f 344/1/4 345/1/4 346/1/4
f 346/1/4 345/1/4 347/1/4
f 348/1/4 349/1/4 352/1/4
f 352/1/4 349/1/4 353/1/4
f 350/4/4 351/4/4 355/4/4
f 353/1/4 354/1/4 356/1/4
f 355/4/4 351/4/4 356/4/4
f 351/1/4 352/1/4 356/1/4
f 352/1/4 353/1/4 356/1/4
f 356/1/4 354/1/4 357/1/4
f 357/1/4 354/1/4 358/1/4
f 356/1/4 357/1/4 359/1/4
f 359/1/4 357/1/4 360/1/4
f 363/5/5 362/5/5 361/5/5
f 364/5/5 362/5/5 363/5/5
f 367/5/5 366/5/5 365/5/5
f 368/5/5 366/5/5 367/5/5
f 371/2/5 370/2/5 369/2/5
f 372/2/5 370/2/5 371/2/5
f 375/2/5 374/2/5 373/2/5
f 376/2/5 374/2/5 375/2/5
f 379/4/5 378/4/5 377/4/5
f 380/4/5 378/4/5 379/4/5
f 383/2/5 382/2/5 381/2/5
f 384/2/5 382/2/5 383/2/5
f 387/2/5 386/2/5 385/2/5
f 388/2/5 386/2/5 387/2/5
f 391/4/5 390/4/5 389/4/5
f 392/4/5 390/4/5 391/4/5
f 395/1/5 394/1/5 393/1/5
f 396/1/5 394/1/5 395/1/5
f 399/2/5 398/2/5 397/2/5
f 400/2/5 398/2/5 399/2/5
f 403/1/5 402/1/5 401/1/5
f 404/1/5 402/1/5 403/1/5
f 407/1/5 406/1/5 405/1/5
f 408/1/5 406/1/5 407/1/5
f 411/2/5 410/2/5 409/2/5
f 412/2/5 410/2/5 411/2/5
f 415/1/5 414/1/5 413/1/5
f 416/1/5 414/1/5 415/1/5
f 419/1/5 418/1/5 417/1/5
f 420/1/5 418/1/5 419/1/5
f 421/1/5 418/1/5 420/1/5
f 425/1/5 423/1/5 422/1/5
f 425/1/5 424/1/5 423/1/5
f 426/1/5 424/1/5 425/1/5
f 429/4/5 428/4/5 427/4/5
f 430/4/5 428/4/5 429/4/5
f 433/3/5 432/3/5 431/3/5
f 434/3/5 432/3/5 433/3/5
f 437/3/5 436/3/5 435/3/5
f 438/3/5 436/3/5 437/3/5
f 439/2/6 440/2/6 441/2/6
f 441/2/6 440/2/6 442/2/6
f 442/2/6 440/2/6 443/2/6
f 444/2/6 445/2/6 447/2/6
f 445/2/6 446/2/6 447/2/6
f 447/2/6 446/2/6 448/2/6
f 449/1/6 450/1/6 451/1/6
f 451/1/6 450/1/6 452/1/6
f 453/1/6 454/1/6 455/1/6
f 455/1/6 454/1/6 456/1/6
f 457/1/6 458/1/6 459/1/6
f 459/1/6 458/1/6 460/1/6
f 461/1/6 462/1/6 463/1/6
f 463/1/6 462/1/6 464/1/6
f 465/1/6 466/1/6 467/1/6
f 467/1/6 466/1/6 468/1/6
f 469/1/6 470/1/6 471/1/6
f 471/1/6 470/1/6 472/1/6
f 473/1/6 474/1/6 476/1/6
f 475/1/6 476/1/6 477/1/6
f 476/1/6 474/1/6 478/1/6
f 477/1/6 476/1/6 478/1/6
f 478/1/6 474/1/6 479/1/6
f 480/1/6 481/1/6 482/1/6
f 482/1/6 481/1/6 483/1/6
f 484/1/6 485/1/6 486/1/6
f 486/1/6 485/1/6 487/1/6
f 488/1/6 489/1/6 491/1/6
f 489/1/6 490/1/6 491/1/6
f 491/1/6 490/1/6 492/1/6
f 492/1/6 490/1/6 493/1/6
f 493/1/6 490/1/6 494/1/6
f 495/1/6 496/1/6 497/1/6
f 497/1/6 496/1/6 498/1/6
f 498/3/6 499/3/6 502/3/6
f 502/3/6 499/3/6 503/3/6
f 500/6/6 501/6/6 504/6/6
f 504/6/6 501/6/6 505/6/6
f 506/3/6 507/3/6 509/3/6
f 509/3/6 507/3/6 510/3/6
f 508/1/6 509/1/6 511/1/6
f 511/1/6 509/1/6 512/1/6
f 513/6/6 514/6/6 515/6/6
f 515/6/6 514/6/6 516/6/6
f 513/6/6 515/6/6 517/6/6
f 513/6/6 517/6/6 519/6/6
f 517/6/6 518/6/6 519/6/6
f 519/6/6 518/6/6 520/6/6
f 521/6/6 522/6/6 523/6/6
f 523/6/6 522/6/6 524/6/6
