# MagicaVoxel @ Ephtracy

# material
mtllib corner.mtl
usemtl palette

# normals
vn -1 0 0
vn 1 0 0
vn 0 0 1
vn 0 0 -1
vn 0 -1 0
vn 0 1 0

# texcoords
vt 0.177734 0.5
vt 0.341797 0.5
vt 0.623047 0.5
vt 0.986328 0.5

# verts
v -10 0 10
v -10 0 -10
v -10 1 10
v -10 1 3
v -10 1 2
v -10 1 -2
v -10 1 -3
v -10 1 -10
v -10 2 3
v -10 2 2
v -10 2 -2
v -10 2 -3
v -9 1 9
v -9 1 3
v -9 1 -3
v -9 1 -9
v -9 2 9
v -9 2 3
v -9 2 -3
v -9 2 -9
v -3 1 10
v -3 1 9
v -3 2 10
v -3 2 9
v 3 1 10
v 3 1 9
v 3 2 10
v 3 2 9
v 9 1 9
v 9 1 -9
v 9 2 9
v 9 2 -9
v 10 0 10
v 10 0 -10
v 10 1 10
v 10 1 -10
v -10 0 10
v -10 1 10
v -3 1 10
v -3 2 10
v -2 1 10
v -2 2 10
v 2 1 10
v 2 2 10
v 3 1 10
v 3 2 10
v 10 0 10
v 10 1 10
v -9 1 9
v -9 2 9
v -3 1 9
v -3 2 9
v 3 1 9
v 3 2 9
v 9 1 9
v 9 2 9
v -10 1 3
v -10 2 3
v -9 1 3
v -9 2 3
v -10 1 -3
v -10 2 -3
v -9 1 -3
v -9 2 -3
v -9 1 -9
v -9 2 -9
v 9 1 -9
v 9 2 -9
v -10 0 -10
v -10 1 -10
v 10 0 -10
v 10 1 -10
v -10 0 10
v 10 0 10
v -10 0 -10
v 10 0 -10
v -10 1 10
v -3 1 10
v 3 1 10
v 10 1 10
v -9 1 9
v -3 1 9
v 3 1 9
v 9 1 9
v -10 1 3
v -9 1 3
v -10 1 -3
v -9 1 -3
v -9 1 -9
v 9 1 -9
v -10 1 -10
v 10 1 -10
v -3 2 10
v -2 2 10
v 2 2 10
v 3 2 10
v -9 2 9
v -3 2 9
v 3 2 9
v 9 2 9
v -10 2 3
v -9 2 3
v -3 2 3
v -10 2 2
v -2 2 2
v -10 2 -2
v 2 2 -2
v -10 2 -3
v -9 2 -3
v 3 2 -3
v -9 2 -9
v 9 2 -9

# faces
f 3/4/1 2/4/1 1/4/1
f 4/4/1 2/4/1 3/4/1
f 5/4/1 2/4/1 4/4/1
f 6/4/1 2/4/1 5/4/1
f 7/4/1 2/4/1 6/4/1
f 8/4/1 2/4/1 7/4/1
f 9/2/1 5/2/1 4/2/1
f 10/1/1 6/1/1 5/1/1
f 10/2/1 5/2/1 9/2/1
f 11/2/1 7/2/1 6/2/1
f 11/1/1 6/1/1 10/1/1
f 12/2/1 7/2/1 11/2/1
f 17/3/1 14/3/1 13/3/1
f 18/3/1 14/3/1 17/3/1
f 19/3/1 16/3/1 15/3/1
f 20/3/1 16/3/1 19/3/1
f 23/2/1 22/2/1 21/2/1
f 24/2/1 22/2/1 23/2/1
f 25/2/2 26/2/2 27/2/2
f 27/2/2 26/2/2 28/2/2
f 29/3/2 30/3/2 31/3/2
f 31/3/2 30/3/2 32/3/2
f 33/4/2 34/4/2 35/4/2
f 35/4/2 34/4/2 36/4/2
f 39/4/3 38/4/3 37/4/3
f 41/4/3 39/4/3 37/4/3
f 41/2/3 40/2/3 39/2/3
f 42/2/3 40/2/3 41/2/3
f 43/4/3 41/4/3 37/4/3
f 43/1/3 42/1/3 41/1/3
f 44/1/3 42/1/3 43/1/3
f 45/4/3 43/4/3 37/4/3
f 45/2/3 44/2/3 43/2/3
f 46/2/3 44/2/3 45/2/3
f 47/4/3 45/4/3 37/4/3
f 48/4/3 45/4/3 47/4/3
f 51/3/3 50/3/3 49/3/3
f 52/3/3 50/3/3 51/3/3
f 55/3/3 54/3/3 53/3/3
f 56/3/3 54/3/3 55/3/3
f 59/2/3 58/2/3 57/2/3
f 60/2/3 58/2/3 59/2/3
f 61/2/4 62/2/4 63/2/4
f 63/2/4 62/2/4 64/2/4
f 65/3/4 66/3/4 67/3/4
f 67/3/4 66/3/4 68/3/4
f 69/4/4 70/4/4 71/4/4
f 71/4/4 70/4/4 72/4/4
f 75/4/5 74/4/5 73/4/5
f 76/4/5 74/4/5 75/4/5
f 77/4/6 78/4/6 81/4/6
f 81/4/6 78/4/6 82/4/6
f 79/4/6 80/4/6 83/4/6
f 83/4/6 80/4/6 84/4/6
f 77/4/6 81/4/6 85/4/6
f 85/4/6 81/4/6 86/4/6
f 87/4/6 88/4/6 89/4/6
f 84/4/6 80/4/6 90/4/6
f 87/4/6 89/4/6 91/4/6
f 89/4/6 90/4/6 91/4/6
f 90/4/6 80/4/6 92/4/6
f 91/4/6 90/4/6 92/4/6
f 93/2/6 94/2/6 98/2/6
f 95/2/6 96/2/6 99/2/6
f 97/3/6 98/3/6 102/3/6
f 98/2/6 94/2/6 103/2/6
f 102/3/6 98/3/6 103/3/6
f 101/2/6 102/2/6 104/2/6
f 102/2/6 103/2/6 104/2/6
f 94/1/6 95/1/6 105/1/6
f 104/2/6 103/2/6 105/2/6
f 103/2/6 94/2/6 105/2/6
f 104/1/6 105/1/6 106/1/6
f 95/2/6 99/2/6 107/2/6
f 106/1/6 105/1/6 107/1/6
f 105/1/6 95/1/6 107/1/6
f 106/2/6 107/2/6 108/2/6
f 108/2/6 107/2/6 109/2/6
f 99/3/6 100/3/6 110/3/6
f 109/2/6 107/2/6 110/2/6
f 107/2/6 99/2/6 110/2/6
f 109/3/6 110/3/6 111/3/6
f 110/3/6 100/3/6 112/3/6
f 111/3/6 110/3/6 112/3/6
