# MagicaVoxel @ Ephtracy

# material
mtllib cornercrops.mtl
usemtl palette

# normals
vn -1 0 0
vn 1 0 0
vn 0 0 1
vn 0 0 -1
vn 0 -1 0
vn 0 1 0

# texcoords
vt 0.158203 0.5
vt 0.177734 0.5
vt 0.185547 0.5
vt 0.341797 0.5
vt 0.373047 0.5
vt 0.509766 0.5
vt 0.623047 0.5
vt 0.986328 0.5

# verts
v -10 0 10
v -10 0 -10
v -10 1 10
v -10 1 3
v -10 1 2
v -10 1 -2
v -10 1 -3
v -10 1 -10
v -10 2 3
v -10 2 2
v -10 2 -2
v -10 2 -3
v -9 1 9
v -9 1 3
v -9 1 -3
v -9 1 -9
v -9 2 9
v -9 2 3
v -9 2 -3
v -9 2 -9
v -8 2 8
v -8 2 7
v -8 2 6
v -8 2 4
v -8 2 -4
v -8 2 -5
v -8 2 -6
v -8 2 -7
v -8 2 -8
v -8 3 8
v -8 3 7
v -8 3 6
v -8 3 4
v -8 3 -4
v -8 3 -5
v -8 3 -6
v -8 3 -7
v -8 3 -8
v -3 1 10
v -3 1 9
v -3 2 10
v -3 2 9
v 3 2 -0
v 3 2 -1
v 3 3 -0
v 3 3 -1
v 4 2 8
v 4 2 4
v 4 2 1
v 4 2 -0
v 4 3 8
v 4 3 4
v 4 3 1
v 4 3 -0
v 4 4 1
v 4 4 -0
v 5 2 2
v 5 2 1
v 5 3 2
v 5 3 1
v 6 2 -1
v 6 2 -2
v 6 3 -1
v 6 3 -2
v -4 2 8
v -4 2 5
v -4 2 4
v -4 3 8
v -4 3 5
v -4 3 4
v 3 1 10
v 3 1 9
v 3 2 10
v 3 2 9
v 6 2 2
v 6 2 1
v 6 2 -0
v 6 3 2
v 6 3 1
v 6 3 -0
v 6 4 1
v 6 4 -0
v 7 2 -0
v 7 2 -1
v 7 2 -2
v 7 3 -0
v 7 3 -1
v 7 3 -2
v 8 2 8
v 8 2 4
v 8 2 -4
v 8 2 -7
v 8 2 -8
v 8 3 8
v 8 3 4
v 8 3 -4
v 8 3 -7
v 8 3 -8
v 9 1 9
v 9 1 -9
v 9 2 9
v 9 2 -9
v 10 0 10
v 10 0 -10
v 10 1 10
v 10 1 -10
v -10 0 10
v -10 1 10
v -3 1 10
v -3 2 10
v -2 1 10
v -2 2 10
v 2 1 10
v 2 2 10
v 3 1 10
v 3 2 10
v 10 0 10
v 10 1 10
v -9 1 9
v -9 2 9
v -3 1 9
v -3 2 9
v 3 1 9
v 3 2 9
v 9 1 9
v 9 2 9
v -8 2 8
v -8 3 8
v -6 2 8
v -6 3 8
v -5 2 8
v -5 3 8
v -4 2 8
v -4 3 8
v 4 2 8
v 4 3 8
v 8 2 8
v 8 3 8
v -10 1 3
v -10 2 3
v -9 1 3
v -9 2 3
v 5 2 2
v 5 3 2
v 6 2 2
v 6 3 2
v 4 2 1
v 4 3 1
v 4 4 1
v 5 2 1
v 5 3 1
v 5 4 1
v 6 3 1
v 6 4 1
v 3 2 -0
v 3 3 -0
v 4 2 -0
v 4 3 -0
v 6 2 -0
v 6 3 -0
v 7 2 -0
v 7 3 -0
v -8 2 -4
v -8 3 -4
v -7 2 -4
v -7 3 -4
v -4 2 -4
v -4 3 -4
v -3 2 -4
v -3 3 -4
v 1 2 -4
v 1 3 -4
v 2 2 -4
v 2 3 -4
v 5 2 -4
v 5 3 -4
v 6 2 -4
v 6 3 -4
v 8 2 -4
v 8 3 -4
v -8 2 4
v -8 3 4
v -5 2 4
v -5 3 4
v -4 2 4
v -4 3 4
v 4 2 4
v 4 3 4
v 8 2 4
v 8 3 4
v 4 3 -0
v 4 4 -0
v 5 3 -0
v 5 4 -0
v 6 3 -0
v 6 4 -0
v 3 2 -1
v 3 3 -1
v 4 2 -1
v 4 3 -1
v 5 2 -1
v 5 3 -1
v 6 2 -1
v 6 3 -1
v 6 2 -2
v 6 3 -2
v 7 2 -2
v 7 3 -2
v -10 1 -3
v -10 2 -3
v -9 1 -3
v -9 2 -3
v -8 2 -8
v -8 3 -8
v -4 2 -8
v -4 3 -8
v -3 2 -8
v -3 3 -8
v 1 2 -8
v 1 3 -8
v 2 2 -8
v 2 3 -8
v 7 2 -8
v 7 3 -8
v 8 2 -8
v 8 3 -8
v -9 1 -9
v -9 2 -9
v 9 1 -9
v 9 2 -9
v -10 0 -10
v -10 1 -10
v 10 0 -10
v 10 1 -10
v -10 0 10
v 10 0 10
v -10 0 -10
v 10 0 -10
v -10 1 10
v -3 1 10
v 3 1 10
v 10 1 10
v -9 1 9
v -3 1 9
v 3 1 9
v 9 1 9
v -10 1 3
v -9 1 3
v -10 1 -3
v -9 1 -3
v -9 1 -9
v 9 1 -9
v -10 1 -10
v 10 1 -10
v -3 2 10
v -2 2 10
v 2 2 10
v 3 2 10
v -9 2 9
v -3 2 9
v 3 2 9
v 9 2 9
v -8 2 8
v -6 2 8
v -5 2 8
v -4 2 8
v 4 2 8
v 8 2 8
v -8 2 7
v -8 2 6
v -4 2 5
v -8 2 4
v -5 2 4
v -4 2 4
v 4 2 4
v 8 2 4
v -10 2 3
v -9 2 3
v -3 2 3
v 3 2 3
v 7 2 3
v -10 2 2
v -2 2 2
v 2 2 2
v 5 2 2
v 6 2 2
v 7 2 2
v 8 2 2
v 4 2 1
v 5 2 1
v 6 2 1
v 3 2 -0
v 4 2 -0
v 6 2 -0
v 7 2 -0
v 3 2 -1
v 4 2 -1
v 5 2 -1
v 6 2 -1
v 7 2 -1
v -10 2 -2
v 6 2 -2
v 7 2 -2
v 8 2 -2
v -10 2 -3
v -9 2 -3
v 7 2 -3
v -8 2 -4
v -7 2 -4
v -4 2 -4
v -3 2 -4
v 1 2 -4
v 2 2 -4
v 5 2 -4
v 6 2 -4
v 8 2 -4
v -8 2 -5
v -8 2 -6
v -8 2 -7
v 8 2 -7
v -8 2 -8
v -4 2 -8
v -3 2 -8
v 1 2 -8
v 2 2 -8
v 7 2 -8
v 8 2 -8
v -9 2 -9
v 9 2 -9
v -8 3 8
v -6 3 8
v -5 3 8
v -4 3 8
v 4 3 8
v 8 3 8
v -8 3 7
v -7 3 7
v -6 3 7
v -5 3 7
v 6 3 7
v 7 3 7
v -8 3 6
v -7 3 6
v -6 3 6
v 5 3 6
v 6 3 6
v 7 3 6
v -7 3 5
v -6 3 5
v -5 3 5
v -4 3 5
v 5 3 5
v 6 3 5
v -8 3 4
v -5 3 4
v -4 3 4
v 4 3 4
v 8 3 4
v 5 3 2
v 6 3 2
v 5 3 1
v 6 3 1
v 3 3 -0
v 4 3 -0
v 5 3 -0
v 6 3 -0
v 7 3 -0
v 3 3 -1
v 4 3 -1
v 5 3 -1
v 6 3 -1
v 7 3 -1
v 6 3 -2
v 7 3 -2
v -8 3 -4
v -7 3 -4
v -4 3 -4
v -3 3 -4
v 1 3 -4
v 2 3 -4
v 5 3 -4
v 6 3 -4
v 8 3 -4
v -8 3 -5
v -7 3 -5
v -4 3 -5
v -3 3 -5
v -2 3 -5
v 0 3 -5
v 1 3 -5
v 2 3 -5
v 5 3 -5
v 6 3 -5
v -8 3 -6
v -7 3 -6
v -6 3 -6
v -4 3 -6
v -3 3 -6
v -2 3 -6
v -1 3 -6
v 0 3 -6
v 1 3 -6
v 3 3 -6
v 4 3 -6
v 5 3 -6
v 6 3 -6
v -8 3 -7
v -7 3 -7
v -6 3 -7
v -4 3 -7
v -3 3 -7
v -2 3 -7
v -1 3 -7
v 1 3 -7
v 2 3 -7
v 3 3 -7
v 4 3 -7
v 5 3 -7
v 6 3 -7
v 7 3 -7
v 8 3 -7
v -8 3 -8
v -4 3 -8
v -3 3 -8
v 1 3 -8
v 2 3 -8
v 7 3 -8
v 8 3 -8
v 4 4 1
v 5 4 1
v 6 4 1
v 4 4 -0
v 5 4 -0
v 6 4 -0

# faces
f 3/8/1 2/8/1 1/8/1
f 4/8/1 2/8/1 3/8/1
f 5/8/1 2/8/1 4/8/1
f 6/8/1 2/8/1 5/8/1
f 7/8/1 2/8/1 6/8/1
f 8/8/1 2/8/1 7/8/1
f 9/4/1 5/4/1 4/4/1
f 10/2/1 6/2/1 5/2/1
f 10/4/1 5/4/1 9/4/1
f 11/4/1 7/4/1 6/4/1
f 11/2/1 6/2/1 10/2/1
f 12/4/1 7/4/1 11/4/1
f 17/7/1 14/7/1 13/7/1
f 18/7/1 14/7/1 17/7/1
f 19/7/1 16/7/1 15/7/1
f 20/7/1 16/7/1 19/7/1
f 30/1/1 22/1/1 21/1/1
f 31/3/1 23/3/1 22/3/1
f 31/1/1 22/1/1 30/1/1
f 32/1/1 24/1/1 23/1/1
f 32/3/1 23/3/1 31/3/1
f 33/1/1 24/1/1 32/1/1
f 34/3/1 26/3/1 25/3/1
f 35/1/1 27/1/1 26/1/1
f 35/3/1 26/3/1 34/3/1
f 36/3/1 28/3/1 27/3/1
f 36/1/1 27/1/1 35/1/1
f 37/1/1 29/1/1 28/1/1
f 37/3/1 28/3/1 36/3/1
f 38/1/1 29/1/1 37/1/1
f 41/4/1 40/4/1 39/4/1
f 42/4/1 40/4/1 41/4/1
f 45/5/1 44/5/1 43/5/1
f 46/5/1 44/5/1 45/5/1
f 51/1/1 48/1/1 47/1/1
f 52/1/1 48/1/1 51/1/1
f 53/5/1 50/5/1 49/5/1
f 54/5/1 50/5/1 53/5/1
f 55/6/1 54/6/1 53/6/1
f 56/6/1 54/6/1 55/6/1
f 59/6/1 58/6/1 57/6/1
f 60/6/1 58/6/1 59/6/1
f 63/5/1 62/5/1 61/5/1
f 64/5/1 62/5/1 63/5/1
f 65/1/2 66/1/2 68/1/2
f 66/3/2 67/3/2 69/3/2
f 68/1/2 66/1/2 69/1/2
f 69/3/2 67/3/2 70/3/2
f 71/4/2 72/4/2 73/4/2
f 73/4/2 72/4/2 74/4/2
f 75/6/2 76/6/2 78/6/2
f 76/5/2 77/5/2 79/5/2
f 78/6/2 76/6/2 79/6/2
f 79/5/2 77/5/2 80/5/2
f 79/5/2 80/5/2 81/5/2
f 81/5/2 80/5/2 82/5/2
f 83/6/2 84/6/2 86/6/2
f 84/5/2 85/5/2 87/5/2
f 86/6/2 84/6/2 87/6/2
f 87/5/2 85/5/2 88/5/2
f 89/1/2 90/1/2 94/1/2
f 94/1/2 90/1/2 95/1/2
f 91/1/2 92/1/2 96/1/2
f 92/3/2 93/3/2 97/3/2
f 96/1/2 92/1/2 97/1/2
f 97/3/2 93/3/2 98/3/2
f 99/7/2 100/7/2 101/7/2
f 101/7/2 100/7/2 102/7/2
f 103/8/2 104/8/2 105/8/2
f 105/8/2 104/8/2 106/8/2
f 109/8/3 108/8/3 107/8/3
f 111/8/3 109/8/3 107/8/3
f 111/4/3 110/4/3 109/4/3
f 112/4/3 110/4/3 111/4/3
f 113/8/3 111/8/3 107/8/3
f 113/2/3 112/2/3 111/2/3
f 114/2/3 112/2/3 113/2/3
f 115/8/3 113/8/3 107/8/3
f 115/4/3 114/4/3 113/4/3
f 116/4/3 114/4/3 115/4/3
f 117/8/3 115/8/3 107/8/3
f 118/8/3 115/8/3 117/8/3
f 121/7/3 120/7/3 119/7/3
f 122/7/3 120/7/3 121/7/3
f 125/7/3 124/7/3 123/7/3
f 126/7/3 124/7/3 125/7/3
f 129/1/3 128/1/3 127/1/3
f 130/1/3 128/1/3 129/1/3
f 131/3/3 130/3/3 129/3/3
f 132/3/3 130/3/3 131/3/3
f 133/1/3 132/1/3 131/1/3
f 134/1/3 132/1/3 133/1/3
f 137/1/3 136/1/3 135/1/3
f 138/1/3 136/1/3 137/1/3
f 141/4/3 140/4/3 139/4/3
f 142/4/3 140/4/3 141/4/3
f 145/6/3 144/6/3 143/6/3
f 146/6/3 144/6/3 145/6/3
f 150/5/3 148/5/3 147/5/3
f 151/6/3 149/6/3 148/6/3
f 151/5/3 148/5/3 150/5/3
f 152/6/3 149/6/3 151/6/3
f 153/5/3 152/5/3 151/5/3
f 154/5/3 152/5/3 153/5/3
f 157/5/3 156/5/3 155/5/3
f 158/5/3 156/5/3 157/5/3
f 161/6/3 160/6/3 159/6/3
f 162/6/3 160/6/3 161/6/3
f 165/3/3 164/3/3 163/3/3
f 166/3/3 164/3/3 165/3/3
f 167/1/3 166/1/3 165/1/3
f 168/1/3 166/1/3 167/1/3
f 169/3/3 168/3/3 167/3/3
f 170/3/3 168/3/3 169/3/3
f 171/1/3 170/1/3 169/1/3
f 172/1/3 170/1/3 171/1/3
f 173/3/3 172/3/3 171/3/3
f 174/3/3 172/3/3 173/3/3
f 175/1/3 174/1/3 173/1/3
f 176/1/3 174/1/3 175/1/3
f 177/3/3 176/3/3 175/3/3
f 178/3/3 176/3/3 177/3/3
f 179/1/3 178/1/3 177/1/3
f 180/1/3 178/1/3 179/1/3
f 181/1/4 182/1/4 183/1/4
f 183/1/4 182/1/4 184/1/4
f 183/3/4 184/3/4 185/3/4
f 185/3/4 184/3/4 186/3/4
f 187/1/4 188/1/4 189/1/4
f 189/1/4 188/1/4 190/1/4
f 191/6/4 192/6/4 193/6/4
f 193/6/4 192/6/4 194/6/4
f 193/5/4 194/5/4 195/5/4
f 195/5/4 194/5/4 196/5/4
f 197/5/4 198/5/4 199/5/4
f 199/5/4 198/5/4 200/5/4
f 199/6/4 200/6/4 201/6/4
f 201/6/4 200/6/4 202/6/4
f 201/5/4 202/5/4 203/5/4
f 203/5/4 202/5/4 204/5/4
f 205/5/4 206/5/4 207/5/4
f 207/5/4 206/5/4 208/5/4
f 209/4/4 210/4/4 211/4/4
f 211/4/4 210/4/4 212/4/4
f 213/1/4 214/1/4 215/1/4
f 215/1/4 214/1/4 216/1/4
f 215/3/4 216/3/4 217/3/4
f 217/3/4 216/3/4 218/3/4
f 217/1/4 218/1/4 219/1/4
f 219/1/4 218/1/4 220/1/4
f 219/3/4 220/3/4 221/3/4
f 221/3/4 220/3/4 222/3/4
f 221/1/4 222/1/4 223/1/4
f 223/1/4 222/1/4 224/1/4
f 223/3/4 224/3/4 225/3/4
f 225/3/4 224/3/4 226/3/4
f 227/7/4 228/7/4 229/7/4
f 229/7/4 228/7/4 230/7/4
f 231/8/4 232/8/4 233/8/4
f 233/8/4 232/8/4 234/8/4
f 237/8/5 236/8/5 235/8/5
f 238/8/5 236/8/5 237/8/5
f 239/8/6 240/8/6 243/8/6
f 243/8/6 240/8/6 244/8/6
f 241/8/6 242/8/6 245/8/6
f 245/8/6 242/8/6 246/8/6
f 239/8/6 243/8/6 247/8/6
f 247/8/6 243/8/6 248/8/6
f 249/8/6 250/8/6 251/8/6
f 246/8/6 242/8/6 252/8/6
f 249/8/6 251/8/6 253/8/6
f 251/8/6 252/8/6 253/8/6
f 252/8/6 242/8/6 254/8/6
f 253/8/6 252/8/6 254/8/6
f 255/4/6 256/4/6 260/4/6
f 257/4/6 258/4/6 261/4/6
f 259/7/6 260/7/6 263/7/6
f 263/7/6 260/7/6 264/7/6
f 264/7/6 260/7/6 265/7/6
f 265/7/6 260/7/6 266/7/6
f 261/7/6 262/7/6 267/7/6
f 267/7/6 262/7/6 268/7/6
f 259/7/6 263/7/6 269/7/6
f 259/7/6 269/7/6 270/7/6
f 266/7/6 260/7/6 271/7/6
f 259/7/6 270/7/6 272/7/6
f 271/7/6 260/7/6 274/7/6
f 261/7/6 267/7/6 275/7/6
f 268/7/6 262/7/6 276/7/6
f 272/7/6 273/7/6 278/7/6
f 273/7/6 274/7/6 278/7/6
f 259/7/6 272/7/6 278/7/6
f 260/4/6 256/4/6 279/4/6
f 274/7/6 260/7/6 279/7/6
f 278/7/6 274/7/6 279/7/6
f 275/7/6 276/7/6 280/7/6
f 257/4/6 261/4/6 280/4/6
f 261/7/6 275/7/6 280/7/6
f 280/7/6 276/7/6 281/7/6
f 277/4/6 278/4/6 282/4/6
f 278/4/6 279/4/6 282/4/6
f 279/4/6 256/4/6 283/4/6
f 282/4/6 279/4/6 283/4/6
f 256/2/6 257/2/6 283/2/6
f 257/4/6 280/4/6 284/4/6
f 283/2/6 257/2/6 284/2/6
f 280/4/6 281/4/6 284/4/6
f 284/4/6 281/4/6 285/4/6
f 285/4/6 281/4/6 286/4/6
f 281/7/6 276/7/6 287/7/6
f 286/4/6 281/4/6 287/4/6
f 276/7/6 262/7/6 288/7/6
f 287/7/6 276/7/6 288/7/6
f 282/2/6 283/2/6 289/2/6
f 283/2/6 284/2/6 289/2/6
f 284/2/6 285/2/6 289/2/6
f 289/2/6 285/2/6 290/2/6
f 286/2/6 287/2/6 291/2/6
f 282/2/6 289/2/6 292/2/6
f 292/2/6 289/2/6 293/2/6
f 291/2/6 287/2/6 294/2/6
f 287/4/6 288/4/6 295/4/6
f 294/2/6 287/2/6 295/2/6
f 282/2/6 292/2/6 296/2/6
f 295/4/6 288/4/6 300/4/6
f 298/2/6 299/2/6 301/2/6
f 282/2/6 296/2/6 301/2/6
f 296/2/6 297/2/6 301/2/6
f 297/2/6 298/2/6 301/2/6
f 301/2/6 299/2/6 302/2/6
f 300/4/6 288/4/6 303/4/6
f 288/7/6 262/7/6 304/7/6
f 303/4/6 288/4/6 304/4/6
f 302/4/6 303/4/6 305/4/6
f 301/4/6 302/4/6 305/4/6
f 305/4/6 303/4/6 306/4/6
f 303/7/6 304/7/6 307/7/6
f 306/4/6 303/4/6 307/4/6
f 306/7/6 307/7/6 308/7/6
f 308/7/6 307/7/6 309/7/6
f 309/7/6 307/7/6 310/7/6
f 310/7/6 307/7/6 311/7/6
f 311/7/6 307/7/6 312/7/6
f 312/7/6 307/7/6 313/7/6
f 313/7/6 307/7/6 314/7/6
f 314/7/6 307/7/6 315/7/6
f 304/7/6 262/7/6 316/7/6
f 315/7/6 307/7/6 316/7/6
f 307/7/6 304/7/6 316/7/6
f 306/7/6 308/7/6 317/7/6
f 306/7/6 317/7/6 318/7/6
f 306/7/6 318/7/6 319/7/6
f 316/7/6 262/7/6 320/7/6
f 306/7/6 319/7/6 321/7/6
f 320/7/6 262/7/6 327/7/6
f 325/7/6 326/7/6 328/7/6
f 326/7/6 327/7/6 328/7/6
f 306/7/6 321/7/6 328/7/6
f 321/7/6 322/7/6 328/7/6
f 324/7/6 325/7/6 328/7/6
f 323/7/6 324/7/6 328/7/6
f 322/7/6 323/7/6 328/7/6
f 327/7/6 262/7/6 329/7/6
f 328/7/6 327/7/6 329/7/6
f 330/1/6 331/1/6 336/1/6
f 336/1/6 331/1/6 337/1/6
f 331/3/6 332/3/6 338/3/6
f 337/1/6 331/1/6 338/1/6
f 332/1/6 333/1/6 339/1/6
f 338/3/6 332/3/6 339/3/6
f 334/1/6 335/1/6 340/1/6
f 340/1/6 335/1/6 341/1/6
f 336/3/6 337/3/6 342/3/6
f 337/1/6 338/1/6 343/1/6
f 342/3/6 337/3/6 343/3/6
f 338/1/6 339/1/6 343/1/6
f 343/1/6 339/1/6 344/1/6
f 334/1/6 340/1/6 345/1/6
f 340/3/6 341/3/6 346/3/6
f 345/1/6 340/1/6 346/1/6
f 341/1/6 335/1/6 347/1/6
f 346/3/6 341/3/6 347/3/6
f 342/1/6 343/1/6 348/1/6
f 343/3/6 344/3/6 348/3/6
f 344/1/6 339/1/6 349/1/6
f 348/3/6 344/3/6 349/3/6
f 339/1/6 333/1/6 350/1/6
f 349/1/6 339/1/6 350/1/6
f 350/1/6 333/1/6 351/1/6
f 345/3/6 346/3/6 352/3/6
f 334/1/6 345/1/6 352/1/6
f 346/1/6 347/1/6 353/1/6
f 352/3/6 346/3/6 353/3/6
f 348/1/6 349/1/6 354/1/6
f 349/1/6 350/1/6 354/1/6
f 342/1/6 348/1/6 354/1/6
f 350/3/6 351/3/6 355/3/6
f 354/1/6 350/1/6 355/1/6
f 355/3/6 351/3/6 356/3/6
f 352/1/6 353/1/6 357/1/6
f 334/1/6 352/1/6 357/1/6
f 353/1/6 347/1/6 358/1/6
f 357/1/6 353/1/6 358/1/6
f 347/1/6 335/1/6 358/1/6
f 359/6/6 360/6/6 361/6/6
f 361/6/6 360/6/6 362/6/6
f 363/5/6 364/5/6 368/5/6
f 364/6/6 365/6/6 369/6/6
f 368/5/6 364/5/6 369/5/6
f 365/5/6 366/5/6 370/5/6
f 369/6/6 365/6/6 370/6/6
f 366/6/6 367/6/6 371/6/6
f 370/5/6 366/5/6 371/5/6
f 371/6/6 367/6/6 372/6/6
f 371/5/6 372/5/6 373/5/6
f 373/5/6 372/5/6 374/5/6
f 375/3/6 376/3/6 384/3/6
f 376/1/6 377/1/6 385/1/6
f 384/3/6 376/3/6 385/3/6
f 377/3/6 378/3/6 386/3/6
f 385/1/6 377/1/6 386/1/6
f 378/1/6 379/1/6 387/1/6
f 386/3/6 378/3/6 387/3/6
f 387/1/6 379/1/6 388/1/6
f 388/1/6 379/1/6 389/1/6
f 379/3/6 380/3/6 390/3/6
f 389/1/6 379/1/6 390/1/6
f 380/1/6 381/1/6 391/1/6
f 390/3/6 380/3/6 391/3/6
f 381/3/6 382/3/6 392/3/6
f 391/1/6 381/1/6 392/1/6
f 382/1/6 383/1/6 393/1/6
f 392/3/6 382/3/6 393/3/6
f 384/1/6 385/1/6 394/1/6
f 385/1/6 386/1/6 394/1/6
f 386/1/6 387/1/6 394/1/6
f 394/1/6 387/1/6 395/1/6
f 395/1/6 387/1/6 396/1/6
f 396/1/6 387/1/6 397/1/6
f 387/3/6 388/3/6 398/3/6
f 397/1/6 387/1/6 398/1/6
f 388/1/6 389/1/6 399/1/6
f 398/3/6 388/3/6 399/3/6
f 399/1/6 389/1/6 400/1/6
f 389/3/6 390/3/6 401/3/6
f 400/1/6 389/1/6 401/1/6
f 390/1/6 391/1/6 402/1/6
f 401/3/6 390/3/6 402/3/6
f 391/1/6 392/1/6 402/1/6
f 392/1/6 393/1/6 402/1/6
f 402/1/6 393/1/6 403/1/6
f 403/1/6 393/1/6 404/1/6
f 404/1/6 393/1/6 405/1/6
f 393/1/6 383/1/6 406/1/6
f 405/1/6 393/1/6 406/1/6
f 394/3/6 395/3/6 407/3/6
f 395/1/6 396/1/6 408/1/6
f 407/3/6 395/3/6 408/3/6
f 396/3/6 397/3/6 409/3/6
f 408/1/6 396/1/6 409/1/6
f 398/1/6 399/1/6 410/1/6
f 409/3/6 397/3/6 410/3/6
f 397/1/6 398/1/6 410/1/6
f 410/1/6 399/1/6 411/1/6
f 399/3/6 400/3/6 412/3/6
f 411/1/6 399/1/6 412/1/6
f 400/1/6 401/1/6 413/1/6
f 412/3/6 400/3/6 413/3/6
f 401/1/6 402/1/6 413/1/6
f 402/1/6 403/1/6 413/1/6
f 413/1/6 403/1/6 414/1/6
f 414/1/6 403/1/6 415/1/6
f 403/3/6 404/3/6 416/3/6
f 415/1/6 403/1/6 416/1/6
f 404/1/6 405/1/6 417/1/6
f 416/3/6 404/3/6 417/3/6
f 405/3/6 406/3/6 418/3/6
f 417/1/6 405/1/6 418/1/6
f 406/1/6 383/1/6 419/1/6
f 418/3/6 406/3/6 419/3/6
f 419/1/6 383/1/6 420/1/6
f 420/1/6 383/1/6 421/1/6
f 408/1/6 409/1/6 422/1/6
f 407/1/6 408/1/6 422/1/6
f 409/1/6 410/1/6 422/1/6
f 410/3/6 411/3/6 423/3/6
f 422/1/6 410/1/6 423/1/6
f 411/1/6 412/1/6 424/1/6
f 423/3/6 411/3/6 424/3/6
f 412/1/6 413/1/6 424/1/6
f 413/1/6 414/1/6 424/1/6
f 414/3/6 415/3/6 425/3/6
f 424/1/6 414/1/6 425/1/6
f 415/1/6 416/1/6 426/1/6
f 425/3/6 415/3/6 426/3/6
f 416/1/6 417/1/6 426/1/6
f 418/1/6 419/1/6 426/1/6
f 417/1/6 418/1/6 426/1/6
f 419/1/6 420/1/6 426/1/6
f 420/3/6 421/3/6 427/3/6
f 426/1/6 420/1/6 427/1/6
f 427/3/6 421/3/6 428/3/6
f 429/6/6 430/6/6 432/6/6
f 430/5/6 431/5/6 433/5/6
f 432/6/6 430/6/6 433/6/6
f 433/5/6 431/5/6 434/5/6
