# MagicaVoxel @ Ephtracy

# material
mtllib onewaywater.mtl
usemtl palette

# normals
vn -1 0 0
vn 1 0 0
vn 0 0 1
vn 0 0 -1
vn 0 -1 0
vn 0 1 0

# texcoords
vt 0.177734 0.5
vt 0.341797 0.5
vt 0.591797 0.5
vt 0.623047 0.5
vt 0.740234 0.5
vt 0.974609 0.5
vt 0.986328 0.5

# verts
v -10 0 10
v -10 0 -10
v -10 1 10
v -10 1 3
v -10 1 2
v -10 1 -2
v -10 1 -3
v -10 1 -10
v -10 2 3
v -10 2 2
v -10 2 -2
v -10 2 -3
v -9 1 9
v -9 1 3
v -9 1 -3
v -9 1 -9
v -9 2 9
v -9 2 3
v -9 2 -3
v -9 2 -9
v -5 1 7
v -5 1 6
v -5 2 7
v -5 2 6
v -3 1 5
v -3 1 4
v -3 1 -7
v -3 1 -8
v -3 2 5
v -3 2 4
v -3 2 -7
v -3 2 -8
v -2 1 -5
v -2 1 -6
v -2 2 -5
v -2 2 -6
v 2 1 7
v 2 1 6
v 2 1 -7
v 2 1 -8
v 2 2 7
v 2 2 6
v 2 2 -7
v 2 2 -8
v 4 1 6
v 4 1 5
v 4 1 -5
v 4 1 -6
v 4 2 6
v 4 2 5
v 4 2 3
v 4 2 2
v 4 2 -2
v 4 2 -3
v 4 2 -5
v 4 2 -6
v 4 3 3
v 4 3 2
v 4 3 -2
v 4 3 -3
v 6 2 2
v 6 2 -2
v 6 6 2
v 6 6 -2
v 7 1 8
v 7 1 4
v 7 1 -4
v 7 1 -8
v 7 2 8
v 7 2 4
v 7 2 -4
v 7 2 -8
v -6 1 8
v -6 1 4
v -6 1 -4
v -6 1 -8
v -6 2 8
v -6 2 4
v -6 2 -4
v -6 2 -8
v -4 1 7
v -4 1 6
v -4 2 7
v -4 2 6
v -2 1 5
v -2 1 4
v -2 1 -7
v -2 1 -8
v -2 2 5
v -2 2 4
v -2 2 -7
v -2 2 -8
v -1 1 -5
v -1 1 -6
v -1 2 -5
v -1 2 -6
v 3 1 7
v 3 1 6
v 3 1 -7
v 3 1 -8
v 3 2 7
v 3 2 6
v 3 2 -7
v 3 2 -8
v 5 1 6
v 5 1 5
v 5 1 -5
v 5 1 -6
v 5 2 6
v 5 2 5
v 5 2 3
v 5 2 2
v 5 2 -2
v 5 2 -3
v 5 2 -5
v 5 2 -6
v 5 3 3
v 5 3 2
v 5 3 -2
v 5 3 -3
v 7 2 2
v 7 2 -2
v 7 6 2
v 7 6 -2
v 9 1 9
v 9 1 -9
v 9 2 9
v 9 2 -9
v 10 0 10
v 10 0 -10
v 10 1 10
v 10 1 -10
v -10 0 10
v -10 1 10
v 10 0 10
v 10 1 10
v -9 1 9
v -9 2 9
v 9 1 9
v 9 2 9
v -5 1 7
v -5 2 7
v -4 1 7
v -4 2 7
v 2 1 7
v 2 2 7
v 3 1 7
v 3 2 7
v 4 1 6
v 4 2 6
v 5 1 6
v 5 2 6
v -3 1 5
v -3 2 5
v -2 1 5
v -2 2 5
v -6 1 4
v -6 2 4
v -3 1 4
v -3 2 4
v -2 1 4
v -2 2 4
v 7 1 4
v 7 2 4
v -10 1 3
v -10 2 3
v -9 1 3
v -9 2 3
v 4 2 3
v 4 3 3
v 5 2 3
v 5 3 3
v 6 2 2
v 6 6 2
v 7 2 2
v 7 6 2
v 4 2 -2
v 4 3 -2
v 5 2 -2
v 5 3 -2
v -2 1 -5
v -2 2 -5
v -1 1 -5
v -1 2 -5
v 4 1 -5
v 4 2 -5
v 5 1 -5
v 5 2 -5
v -3 1 -7
v -3 2 -7
v -2 1 -7
v -2 2 -7
v 2 1 -7
v 2 2 -7
v 3 1 -7
v 3 2 -7
v -6 1 -8
v -6 2 -8
v -3 1 -8
v -3 2 -8
v -2 1 -8
v -2 2 -8
v 2 1 -8
v 2 2 -8
v 3 1 -8
v 3 2 -8
v 7 1 -8
v 7 2 -8
v -6 1 8
v -6 2 8
v 7 1 8
v 7 2 8
v -5 1 6
v -5 2 6
v -4 1 6
v -4 2 6
v 2 1 6
v 2 2 6
v 3 1 6
v 3 2 6
v 4 1 5
v 4 2 5
v 5 1 5
v 5 2 5
v 4 2 2
v 4 3 2
v 5 2 2
v 5 3 2
v 6 2 -2
v 6 6 -2
v 7 2 -2
v 7 6 -2
v -10 1 -3
v -10 2 -3
v -9 1 -3
v -9 2 -3
v 4 2 -3
v 4 3 -3
v 5 2 -3
v 5 3 -3
v -6 1 -4
v -6 2 -4
v 7 1 -4
v 7 2 -4
v -2 1 -6
v -2 2 -6
v -1 1 -6
v -1 2 -6
v 4 1 -6
v 4 2 -6
v 5 1 -6
v 5 2 -6
v -9 1 -9
v -9 2 -9
v 9 1 -9
v 9 2 -9
v -10 0 -10
v -10 1 -10
v 10 0 -10
v 10 1 -10
v -10 0 10
v 10 0 10
v -6 0 8
v 7 0 8
v -6 0 4
v 7 0 4
v -6 0 -4
v 7 0 -4
v -6 0 -8
v 7 0 -8
v -10 0 -10
v 10 0 -10
v -10 1 10
v 10 1 10
v -9 1 9
v 9 1 9
v -6 1 8
v 7 1 8
v -5 1 7
v -4 1 7
v 2 1 7
v 3 1 7
v -5 1 6
v -4 1 6
v 2 1 6
v 3 1 6
v 4 1 6
v 5 1 6
v -3 1 5
v -2 1 5
v 4 1 5
v 5 1 5
v -6 1 4
v -3 1 4
v -2 1 4
v 7 1 4
v -10 1 3
v -9 1 3
v -10 1 -3
v -9 1 -3
v -6 1 -4
v 7 1 -4
v -2 1 -5
v -1 1 -5
v 4 1 -5
v 5 1 -5
v -2 1 -6
v -1 1 -6
v 4 1 -6
v 5 1 -6
v -3 1 -7
v -2 1 -7
v 2 1 -7
v 3 1 -7
v -6 1 -8
v -3 1 -8
v -2 1 -8
v 2 1 -8
v 3 1 -8
v 7 1 -8
v -9 1 -9
v 9 1 -9
v -10 1 -10
v 10 1 -10
v -9 2 9
v 9 2 9
v -6 2 8
v 7 2 8
v -5 2 7
v -4 2 7
v 2 2 7
v 3 2 7
v -5 2 6
v -4 2 6
v 2 2 6
v 3 2 6
v 4 2 6
v 5 2 6
v -3 2 5
v -2 2 5
v 4 2 5
v 5 2 5
v -6 2 4
v -3 2 4
v -2 2 4
v 7 2 4
v -10 2 3
v -9 2 3
v 3 2 3
v 4 2 3
v 5 2 3
v -10 2 2
v 3 2 2
v 4 2 2
v 5 2 2
v 6 2 2
v 7 2 2
v -10 2 -2
v 3 2 -2
v 4 2 -2
v 5 2 -2
v 6 2 -2
v 7 2 -2
v -10 2 -3
v -9 2 -3
v 3 2 -3
v 4 2 -3
v 5 2 -3
v -6 2 -4
v 7 2 -4
v -2 2 -5
v -1 2 -5
v 4 2 -5
v 5 2 -5
v -2 2 -6
v -1 2 -6
v 4 2 -6
v 5 2 -6
v -3 2 -7
v -2 2 -7
v 2 2 -7
v 3 2 -7
v -6 2 -8
v -3 2 -8
v -2 2 -8
v 2 2 -8
v 3 2 -8
v 7 2 -8
v -9 2 -9
v 9 2 -9
v 4 3 3
v 5 3 3
v 4 3 2
v 5 3 2
v 4 3 -2
v 5 3 -2
v 4 3 -3
v 5 3 -3
v 6 6 2
v 7 6 2
v 6 6 -2
v 7 6 -2

# faces
f 3/7/1 2/7/1 1/7/1
f 4/7/1 2/7/1 3/7/1
f 5/7/1 2/7/1 4/7/1
f 6/7/1 2/7/1 5/7/1
f 7/7/1 2/7/1 6/7/1
f 8/7/1 2/7/1 7/7/1
f 9/2/1 5/2/1 4/2/1
f 10/1/1 6/1/1 5/1/1
f 10/2/1 5/2/1 9/2/1
f 11/2/1 7/2/1 6/2/1
f 11/1/1 6/1/1 10/1/1
f 12/2/1 7/2/1 11/2/1
f 17/4/1 14/4/1 13/4/1
f 18/4/1 14/4/1 17/4/1
f 19/4/1 16/4/1 15/4/1
f 20/4/1 16/4/1 19/4/1
f 23/5/1 22/5/1 21/5/1
f 24/5/1 22/5/1 23/5/1
f 29/5/1 26/5/1 25/5/1
f 30/5/1 26/5/1 29/5/1
f 31/5/1 28/5/1 27/5/1
f 32/5/1 28/5/1 31/5/1
f 35/5/1 34/5/1 33/5/1
f 36/5/1 34/5/1 35/5/1
f 41/5/1 38/5/1 37/5/1
f 42/5/1 38/5/1 41/5/1
f 43/5/1 40/5/1 39/5/1
f 44/5/1 40/5/1 43/5/1
f 49/5/1 46/5/1 45/5/1
f 50/5/1 46/5/1 49/5/1
f 55/5/1 48/5/1 47/5/1
f 56/5/1 48/5/1 55/5/1
f 57/6/1 52/6/1 51/6/1
f 58/6/1 52/6/1 57/6/1
f 59/6/1 54/6/1 53/6/1
f 60/6/1 54/6/1 59/6/1
f 63/6/1 62/6/1 61/6/1
f 64/6/1 62/6/1 63/6/1
f 69/4/1 66/4/1 65/4/1
f 70/4/1 66/4/1 69/4/1
f 71/4/1 68/4/1 67/4/1
f 72/4/1 68/4/1 71/4/1
f 73/4/2 74/4/2 77/4/2
f 77/4/2 74/4/2 78/4/2
f 75/4/2 76/4/2 79/4/2
f 79/4/2 76/4/2 80/4/2
f 81/5/2 82/5/2 83/5/2
f 83/5/2 82/5/2 84/5/2
f 85/5/2 86/5/2 89/5/2
f 89/5/2 86/5/2 90/5/2
f 87/5/2 88/5/2 91/5/2
f 91/5/2 88/5/2 92/5/2
f 93/5/2 94/5/2 95/5/2
f 95/5/2 94/5/2 96/5/2
f 97/5/2 98/5/2 101/5/2
f 101/5/2 98/5/2 102/5/2
f 99/5/2 100/5/2 103/5/2
f 103/5/2 100/5/2 104/5/2
f 105/5/2 106/5/2 109/5/2
f 109/5/2 106/5/2 110/5/2
f 107/5/2 108/5/2 115/5/2
f 115/5/2 108/5/2 116/5/2
f 111/6/2 112/6/2 117/6/2
f 117/6/2 112/6/2 118/6/2
f 113/6/2 114/6/2 119/6/2
f 119/6/2 114/6/2 120/6/2
f 121/6/2 122/6/2 123/6/2
f 123/6/2 122/6/2 124/6/2
f 125/4/2 126/4/2 127/4/2
f 127/4/2 126/4/2 128/4/2
f 129/7/2 130/7/2 131/7/2
f 131/7/2 130/7/2 132/7/2
f 135/7/3 134/7/3 133/7/3
f 136/7/3 134/7/3 135/7/3
f 139/4/3 138/4/3 137/4/3
f 140/4/3 138/4/3 139/4/3
f 143/5/3 142/5/3 141/5/3
f 144/5/3 142/5/3 143/5/3
f 147/5/3 146/5/3 145/5/3
f 148/5/3 146/5/3 147/5/3
f 151/5/3 150/5/3 149/5/3
f 152/5/3 150/5/3 151/5/3
f 155/5/3 154/5/3 153/5/3
f 156/5/3 154/5/3 155/5/3
f 159/4/3 158/4/3 157/4/3
f 160/4/3 158/4/3 159/4/3
f 163/4/3 162/4/3 161/4/3
f 164/4/3 162/4/3 163/4/3
f 167/2/3 166/2/3 165/2/3
f 168/2/3 166/2/3 167/2/3
f 171/6/3 170/6/3 169/6/3
f 172/6/3 170/6/3 171/6/3
f 175/6/3 174/6/3 173/6/3
f 176/6/3 174/6/3 175/6/3
f 179/6/3 178/6/3 177/6/3
f 180/6/3 178/6/3 179/6/3
f 183/5/3 182/5/3 181/5/3
f 184/5/3 182/5/3 183/5/3
f 187/5/3 186/5/3 185/5/3
f 188/5/3 186/5/3 187/5/3
f 191/5/3 190/5/3 189/5/3
f 192/5/3 190/5/3 191/5/3
f 195/5/3 194/5/3 193/5/3
f 196/5/3 194/5/3 195/5/3
f 199/4/3 198/4/3 197/4/3
f 200/4/3 198/4/3 199/4/3
f 203/4/3 202/4/3 201/4/3
f 204/4/3 202/4/3 203/4/3
f 207/4/3 206/4/3 205/4/3
f 208/4/3 206/4/3 207/4/3
f 209/4/4 210/4/4 211/4/4
f 211/4/4 210/4/4 212/4/4
f 213/5/4 214/5/4 215/5/4
f 215/5/4 214/5/4 216/5/4
f 217/5/4 218/5/4 219/5/4
f 219/5/4 218/5/4 220/5/4
f 221/5/4 222/5/4 223/5/4
f 223/5/4 222/5/4 224/5/4
f 225/6/4 226/6/4 227/6/4
f 227/6/4 226/6/4 228/6/4
f 229/6/4 230/6/4 231/6/4
f 231/6/4 230/6/4 232/6/4
f 233/2/4 234/2/4 235/2/4
f 235/2/4 234/2/4 236/2/4
f 237/6/4 238/6/4 239/6/4
f 239/6/4 238/6/4 240/6/4
f 241/4/4 242/4/4 243/4/4
f 243/4/4 242/4/4 244/4/4
f 245/5/4 246/5/4 247/5/4
f 247/5/4 246/5/4 248/5/4
f 249/5/4 250/5/4 251/5/4
f 251/5/4 250/5/4 252/5/4
f 253/4/4 254/4/4 255/4/4
f 255/4/4 254/4/4 256/4/4
f 257/7/4 258/7/4 259/7/4
f 259/7/4 258/7/4 260/7/4
f 263/7/5 262/7/5 261/7/5
f 264/7/5 262/7/5 263/7/5
f 265/7/5 263/7/5 261/7/5
f 265/3/5 264/3/5 263/3/5
f 266/7/5 262/7/5 264/7/5
f 266/3/5 264/3/5 265/3/5
f 267/7/5 265/7/5 261/7/5
f 267/7/5 266/7/5 265/7/5
f 268/7/5 262/7/5 266/7/5
f 268/7/5 266/7/5 267/7/5
f 269/7/5 267/7/5 261/7/5
f 269/3/5 268/3/5 267/3/5
f 270/7/5 262/7/5 268/7/5
f 270/3/5 268/3/5 269/3/5
f 271/7/5 269/7/5 261/7/5
f 271/7/5 270/7/5 269/7/5
f 272/7/5 262/7/5 270/7/5
f 272/7/5 270/7/5 271/7/5
f 273/7/6 274/7/6 275/7/6
f 275/7/6 274/7/6 276/7/6
f 277/3/6 278/3/6 279/3/6
f 279/3/6 278/3/6 280/3/6
f 280/3/6 278/3/6 281/3/6
f 281/3/6 278/3/6 282/3/6
f 277/3/6 279/3/6 283/3/6
f 280/3/6 281/3/6 284/3/6
f 284/3/6 281/3/6 285/3/6
f 282/3/6 278/3/6 286/3/6
f 286/3/6 278/3/6 287/3/6
f 287/3/6 278/3/6 288/3/6
f 284/3/6 285/3/6 289/3/6
f 283/3/6 284/3/6 289/3/6
f 286/3/6 287/3/6 289/3/6
f 285/3/6 286/3/6 289/3/6
f 289/3/6 287/3/6 290/3/6
f 290/3/6 287/3/6 291/3/6
f 288/3/6 278/3/6 292/3/6
f 277/3/6 283/3/6 293/3/6
f 283/3/6 289/3/6 293/3/6
f 293/3/6 289/3/6 294/3/6
f 290/3/6 291/3/6 295/3/6
f 291/3/6 292/3/6 295/3/6
f 292/3/6 278/3/6 296/3/6
f 295/3/6 292/3/6 296/3/6
f 273/7/6 275/7/6 297/7/6
f 297/7/6 275/7/6 298/7/6
f 301/3/6 302/3/6 303/3/6
f 303/3/6 302/3/6 304/3/6
f 304/3/6 302/3/6 305/3/6
f 305/3/6 302/3/6 306/3/6
f 301/3/6 303/3/6 307/3/6
f 304/3/6 305/3/6 308/3/6
f 308/3/6 305/3/6 309/3/6
f 306/3/6 302/3/6 310/3/6
f 308/3/6 309/3/6 311/3/6
f 309/3/6 310/3/6 311/3/6
f 301/3/6 307/3/6 311/3/6
f 307/3/6 308/3/6 311/3/6
f 311/3/6 310/3/6 312/3/6
f 312/3/6 310/3/6 313/3/6
f 313/3/6 310/3/6 314/3/6
f 301/3/6 311/3/6 315/3/6
f 315/3/6 311/3/6 316/3/6
f 312/3/6 313/3/6 317/3/6
f 317/3/6 313/3/6 318/3/6
f 314/3/6 310/3/6 319/3/6
f 310/3/6 302/3/6 320/3/6
f 319/3/6 310/3/6 320/3/6
f 299/7/6 300/7/6 321/7/6
f 276/7/6 274/7/6 322/7/6
f 299/7/6 321/7/6 323/7/6
f 321/7/6 322/7/6 323/7/6
f 322/7/6 274/7/6 324/7/6
f 323/7/6 322/7/6 324/7/6
f 325/4/6 326/4/6 327/4/6
f 327/4/6 326/4/6 328/4/6
f 329/5/6 330/5/6 333/5/6
f 333/5/6 330/5/6 334/5/6
f 331/5/6 332/5/6 335/5/6
f 335/5/6 332/5/6 336/5/6
f 337/5/6 338/5/6 341/5/6
f 341/5/6 338/5/6 342/5/6
f 325/4/6 327/4/6 343/4/6
f 339/5/6 340/5/6 344/5/6
f 344/5/6 340/5/6 345/5/6
f 328/4/6 326/4/6 346/4/6
f 344/4/6 345/4/6 348/4/6
f 345/4/6 346/4/6 348/4/6
f 343/4/6 344/4/6 348/4/6
f 325/4/6 343/4/6 348/4/6
f 348/4/6 346/4/6 349/4/6
f 349/4/6 346/4/6 350/4/6
f 350/4/6 346/4/6 351/4/6
f 347/2/6 348/2/6 352/2/6
f 348/2/6 349/2/6 352/2/6
f 349/4/6 350/4/6 353/4/6
f 352/2/6 349/2/6 353/2/6
f 353/4/6 350/4/6 354/4/6
f 351/4/6 346/4/6 355/4/6
f 355/4/6 346/4/6 356/4/6
f 346/4/6 326/4/6 357/4/6
f 356/4/6 346/4/6 357/4/6
f 352/1/6 353/1/6 358/1/6
f 353/2/6 354/2/6 359/2/6
f 358/1/6 353/1/6 359/1/6
f 355/4/6 356/4/6 360/4/6
f 359/2/6 354/2/6 360/2/6
f 354/4/6 355/4/6 360/4/6
f 360/4/6 356/4/6 361/4/6
f 361/4/6 356/4/6 362/4/6
f 357/4/6 326/4/6 363/4/6
f 358/2/6 359/2/6 364/2/6
f 364/2/6 359/2/6 365/2/6
f 359/4/6 360/4/6 366/4/6
f 365/2/6 359/2/6 366/2/6
f 366/4/6 360/4/6 367/4/6
f 362/4/6 363/4/6 368/4/6
f 361/4/6 362/4/6 368/4/6
f 366/4/6 367/4/6 369/4/6
f 367/4/6 368/4/6 369/4/6
f 365/4/6 366/4/6 369/4/6
f 368/4/6 363/4/6 370/4/6
f 369/4/6 368/4/6 370/4/6
f 363/4/6 326/4/6 370/4/6
f 371/5/6 372/5/6 375/5/6
f 375/5/6 372/5/6 376/5/6
f 373/5/6 374/5/6 377/5/6
f 377/5/6 374/5/6 378/5/6
f 365/4/6 369/4/6 383/4/6
f 379/5/6 380/5/6 384/5/6
f 384/5/6 380/5/6 385/5/6
f 381/5/6 382/5/6 386/5/6
f 386/5/6 382/5/6 387/5/6
f 370/4/6 326/4/6 388/4/6
f 384/4/6 385/4/6 389/4/6
f 387/4/6 388/4/6 389/4/6
f 386/4/6 387/4/6 389/4/6
f 385/4/6 386/4/6 389/4/6
f 365/4/6 383/4/6 389/4/6
f 383/4/6 384/4/6 389/4/6
f 388/4/6 326/4/6 390/4/6
f 389/4/6 388/4/6 390/4/6
f 391/6/6 392/6/6 393/6/6
f 393/6/6 392/6/6 394/6/6
f 395/6/6 396/6/6 397/6/6
f 397/6/6 396/6/6 398/6/6
f 399/6/6 400/6/6 401/6/6
f 401/6/6 400/6/6 402/6/6
