# MagicaVoxel @ Ephtracy

# material
mtllib onewayrocks.mtl
usemtl palette

# normals
vn -1 0 0
vn 1 0 0
vn 0 0 1
vn 0 0 -1
vn 0 -1 0
vn 0 1 0

# texcoords
vt 0.177734 0.5
vt 0.341797 0.5
vt 0.623047 0.5
vt 0.970703 0.5
vt 0.974609 0.5
vt 0.978516 0.5
vt 0.982422 0.5
vt 0.986328 0.5

# verts
v -10 0 10
v -10 0 -10
v -10 1 10
v -10 1 3
v -10 1 2
v -10 1 -2
v -10 1 -3
v -10 1 -10
v -10 2 3
v -10 2 2
v -10 2 -2
v -10 2 -3
v -9 1 9
v -9 1 3
v -9 1 -3
v -9 1 -9
v -9 2 9
v -9 2 3
v -9 2 -3
v -9 2 -9
v -5 2 5
v -5 2 4
v -5 3 5
v -5 3 4
v -5 4 5
v -5 4 4
v -5 6 5
v -5 6 4
v -5 7 5
v -5 7 4
v -1 2 -6
v -1 2 -7
v -1 3 -6
v -1 3 -7
v -1 4 -6
v -1 4 -7
v -1 5 -6
v -1 5 -7
v -1 6 -6
v -1 6 -7
v -1 7 -6
v -1 7 -7
v 3 2 7
v 3 2 6
v 3 4 7
v 3 4 6
v 3 5 7
v 3 5 6
v 5 2 -5
v 5 2 -7
v 5 3 -5
v 5 3 -6
v 5 3 -7
v 5 4 -5
v 5 4 -6
v 5 4 -7
v 5 5 -5
v 5 5 -6
v 5 6 -5
v 5 6 -6
v 5 6 -7
v 7 2 5
v 7 2 4
v 7 2 3
v 7 2 -0
v 7 2 -1
v 7 2 -2
v 7 3 5
v 7 3 4
v 7 3 3
v 7 3 -0
v 7 3 -1
v 7 4 4
v 7 4 3
v 7 4 -1
v 7 4 -2
v 7 5 5
v 7 5 3
v 7 5 -0
v 7 5 -1
v 7 5 -2
v 7 6 -0
v 7 6 -1
v 7 6 -2
v -3 2 5
v -3 2 4
v -3 7 5
v -3 7 4
v 1 2 -6
v 1 2 -7
v 1 6 -6
v 1 6 -7
v 1 7 -6
v 1 7 -7
v 5 2 7
v 5 2 6
v 5 3 7
v 5 3 6
v 5 4 7
v 5 4 6
v 5 5 7
v 5 5 6
v 6 2 -5
v 6 2 -7
v 6 3 -5
v 6 3 -6
v 6 3 -7
v 6 4 -5
v 6 4 -6
v 6 4 -7
v 6 5 -5
v 6 5 -6
v 6 6 -5
v 6 6 -6
v 6 6 -7
v 8 2 5
v 8 2 4
v 8 2 3
v 8 2 -0
v 8 2 -1
v 8 2 -2
v 8 3 5
v 8 3 4
v 8 3 3
v 8 3 -0
v 8 3 -1
v 8 4 4
v 8 4 3
v 8 4 -1
v 8 4 -2
v 8 5 5
v 8 5 3
v 8 5 -0
v 8 5 -1
v 8 5 -2
v 8 6 -0
v 8 6 -1
v 8 6 -2
v 9 1 9
v 9 1 -9
v 9 2 9
v 9 2 -9
v 10 0 10
v 10 0 -10
v 10 1 10
v 10 1 -10
v -10 0 10
v -10 1 10
v 10 0 10
v 10 1 10
v -9 1 9
v -9 2 9
v 9 1 9
v 9 2 9
v 3 2 7
v 3 4 7
v 3 5 7
v 4 3 7
v 4 4 7
v 4 5 7
v 5 2 7
v 5 3 7
v 5 4 7
v 5 5 7
v -5 2 5
v -5 3 5
v -5 4 5
v -5 6 5
v -5 7 5
v -4 3 5
v -4 4 5
v -4 6 5
v -4 7 5
v -3 2 5
v -3 7 5
v 7 2 5
v 7 3 5
v 7 5 5
v 8 2 5
v 8 3 5
v 8 5 5
v -10 1 3
v -10 2 3
v -9 1 3
v -9 2 3
v 7 2 -0
v 7 3 -0
v 7 5 -0
v 7 6 -0
v 8 2 -0
v 8 3 -0
v 8 5 -0
v 8 6 -0
v 5 2 -5
v 5 3 -5
v 5 4 -5
v 5 5 -5
v 5 6 -5
v 6 2 -5
v 6 3 -5
v 6 4 -5
v 6 5 -5
v 6 6 -5
v -1 2 -6
v -1 3 -6
v -1 4 -6
v -1 5 -6
v -1 6 -6
v -1 7 -6
v 0 2 -6
v 0 3 -6
v 0 4 -6
v 0 5 -6
v 0 6 -6
v 0 7 -6
v 1 2 -6
v 1 6 -6
v 1 7 -6
v 3 2 6
v 3 4 6
v 3 5 6
v 4 3 6
v 4 4 6
v 4 5 6
v 5 2 6
v 5 3 6
v 5 4 6
v 5 5 6
v -5 2 4
v -5 3 4
v -5 4 4
v -5 6 4
v -5 7 4
v -4 3 4
v -4 4 4
v -4 6 4
v -4 7 4
v -3 2 4
v -3 7 4
v 7 2 3
v 7 3 3
v 7 4 3
v 7 5 3
v 8 2 3
v 8 3 3
v 8 4 3
v 8 5 3
v 7 2 -2
v 7 4 -2
v 7 5 -2
v 7 6 -2
v 8 2 -2
v 8 4 -2
v 8 5 -2
v 8 6 -2
v -10 1 -3
v -10 2 -3
v -9 1 -3
v -9 2 -3
v -1 2 -7
v -1 3 -7
v -1 4 -7
v -1 5 -7
v -1 6 -7
v -1 7 -7
v 0 2 -7
v 0 3 -7
v 0 4 -7
v 0 5 -7
v 0 6 -7
v 0 7 -7
v 1 2 -7
v 1 6 -7
v 1 7 -7
v 5 2 -7
v 5 3 -7
v 5 4 -7
v 5 6 -7
v 6 2 -7
v 6 3 -7
v 6 4 -7
v 6 6 -7
v -9 1 -9
v -9 2 -9
v 9 1 -9
v 9 2 -9
v -10 0 -10
v -10 1 -10
v 10 0 -10
v 10 1 -10
v -10 0 10
v 10 0 10
v -10 0 -10
v 10 0 -10
v -10 1 10
v 10 1 10
v -9 1 9
v 9 1 9
v -10 1 3
v -9 1 3
v -10 1 -3
v -9 1 -3
v -9 1 -9
v 9 1 -9
v -10 1 -10
v 10 1 -10
v -9 2 9
v 9 2 9
v 3 2 7
v 5 2 7
v 3 2 6
v 5 2 6
v -5 2 5
v -3 2 5
v 7 2 5
v 8 2 5
v -5 2 4
v -3 2 4
v 3 2 4
v 7 2 4
v 8 2 4
v -10 2 3
v -9 2 3
v -5 2 3
v -3 2 3
v 3 2 3
v 4 2 3
v 7 2 3
v 8 2 3
v -10 2 2
v -5 2 2
v -3 2 2
v 3 2 2
v 4 2 2
v 5 2 2
v 7 2 -0
v 8 2 -0
v 7 2 -1
v 8 2 -1
v -10 2 -2
v -5 2 -2
v -3 2 -2
v 3 2 -2
v 4 2 -2
v 5 2 -2
v 7 2 -2
v 8 2 -2
v -10 2 -3
v -9 2 -3
v -5 2 -3
v -3 2 -3
v 3 2 -3
v 4 2 -3
v -3 2 -4
v 3 2 -4
v 5 2 -5
v 6 2 -5
v -1 2 -6
v 0 2 -6
v 1 2 -6
v -1 2 -7
v 0 2 -7
v 1 2 -7
v 5 2 -7
v 6 2 -7
v -9 2 -9
v 9 2 -9
v 3 5 7
v 4 5 7
v 5 5 7
v 3 5 6
v 4 5 6
v 5 5 6
v 7 5 5
v 8 5 5
v 7 5 3
v 8 5 3
v 7 6 -0
v 8 6 -0
v 7 6 -1
v 8 6 -1
v 7 6 -2
v 8 6 -2
v 5 6 -5
v 6 6 -5
v 5 6 -6
v 6 6 -6
v 5 6 -7
v 6 6 -7
v -5 7 5
v -4 7 5
v -3 7 5
v -5 7 4
v -4 7 4
v -3 7 4
v -1 7 -6
v 0 7 -6
v 1 7 -6
v -1 7 -7
v 0 7 -7
v 1 7 -7

# faces
f 3/8/1 2/8/1 1/8/1
f 4/8/1 2/8/1 3/8/1
f 5/8/1 2/8/1 4/8/1
f 6/8/1 2/8/1 5/8/1
f 7/8/1 2/8/1 6/8/1
f 8/8/1 2/8/1 7/8/1
f 9/2/1 5/2/1 4/2/1
f 10/1/1 6/1/1 5/1/1
f 10/2/1 5/2/1 9/2/1
f 11/2/1 7/2/1 6/2/1
f 11/1/1 6/1/1 10/1/1
f 12/2/1 7/2/1 11/2/1
f 17/3/1 14/3/1 13/3/1
f 18/3/1 14/3/1 17/3/1
f 19/3/1 16/3/1 15/3/1
f 20/3/1 16/3/1 19/3/1
f 23/5/1 22/5/1 21/5/1
f 24/5/1 22/5/1 23/5/1
f 25/7/1 24/7/1 23/7/1
f 26/7/1 24/7/1 25/7/1
f 27/5/1 26/5/1 25/5/1
f 28/5/1 26/5/1 27/5/1
f 29/7/1 28/7/1 27/7/1
f 30/7/1 28/7/1 29/7/1
f 33/6/1 32/6/1 31/6/1
f 34/6/1 32/6/1 33/6/1
f 35/5/1 34/5/1 33/5/1
f 36/5/1 34/5/1 35/5/1
f 37/6/1 36/6/1 35/6/1
f 38/6/1 36/6/1 37/6/1
f 39/7/1 38/7/1 37/7/1
f 40/7/1 38/7/1 39/7/1
f 41/5/1 40/5/1 39/5/1
f 42/5/1 40/5/1 41/5/1
f 45/5/1 44/5/1 43/5/1
f 46/5/1 44/5/1 45/5/1
f 47/7/1 46/7/1 45/7/1
f 48/7/1 46/7/1 47/7/1
f 51/5/1 50/5/1 49/5/1
f 52/5/1 50/5/1 51/5/1
f 53/5/1 50/5/1 52/5/1
f 54/7/1 52/7/1 51/7/1
f 55/6/1 53/6/1 52/6/1
f 55/7/1 52/7/1 54/7/1
f 56/6/1 53/6/1 55/6/1
f 57/5/1 55/5/1 54/5/1
f 57/5/1 56/5/1 55/5/1
f 58/5/1 56/5/1 57/5/1
f 59/6/1 58/6/1 57/6/1
f 60/5/1 56/5/1 58/5/1
f 60/6/1 58/6/1 59/6/1
f 61/5/1 56/5/1 60/5/1
f 68/6/1 63/6/1 62/6/1
f 69/5/1 64/5/1 63/5/1
f 69/6/1 63/6/1 68/6/1
f 70/5/1 64/5/1 69/5/1
f 71/6/1 66/6/1 65/6/1
f 72/5/1 67/5/1 66/5/1
f 72/6/1 66/6/1 71/6/1
f 73/7/1 70/7/1 69/7/1
f 73/5/1 69/5/1 68/5/1
f 74/7/1 70/7/1 73/7/1
f 75/5/1 67/5/1 72/5/1
f 75/5/1 72/5/1 71/5/1
f 76/5/1 67/5/1 75/5/1
f 77/5/1 74/5/1 73/5/1
f 77/5/1 73/5/1 68/5/1
f 78/5/1 74/5/1 77/5/1
f 79/5/1 75/5/1 71/5/1
f 80/6/1 76/6/1 75/6/1
f 80/5/1 75/5/1 79/5/1
f 81/6/1 76/6/1 80/6/1
f 82/7/1 80/7/1 79/7/1
f 83/5/1 81/5/1 80/5/1
f 83/7/1 80/7/1 82/7/1
f 84/5/1 81/5/1 83/5/1
f 85/5/2 86/5/2 87/5/2
f 87/5/2 86/5/2 88/5/2
f 89/5/2 90/5/2 91/5/2
f 91/5/2 90/5/2 92/5/2
f 91/6/2 92/6/2 93/6/2
f 93/6/2 92/6/2 94/6/2
f 95/5/2 96/5/2 97/5/2
f 97/5/2 96/5/2 98/5/2
f 97/6/2 98/6/2 99/6/2
f 99/6/2 98/6/2 100/6/2
f 99/5/2 100/5/2 101/5/2
f 101/5/2 100/5/2 102/5/2
f 103/5/2 104/5/2 105/5/2
f 105/5/2 104/5/2 106/5/2
f 106/5/2 104/5/2 107/5/2
f 105/7/2 106/7/2 108/7/2
f 106/6/2 107/6/2 109/6/2
f 108/7/2 106/7/2 109/7/2
f 109/6/2 107/6/2 110/6/2
f 108/5/2 109/5/2 111/5/2
f 109/5/2 110/5/2 111/5/2
f 111/5/2 110/5/2 112/5/2
f 111/6/2 112/6/2 113/6/2
f 112/5/2 110/5/2 114/5/2
f 113/6/2 112/6/2 114/6/2
f 114/5/2 110/5/2 115/5/2
f 116/6/2 117/6/2 122/6/2
f 117/5/2 118/5/2 123/5/2
f 122/6/2 117/6/2 123/6/2
f 123/5/2 118/5/2 124/5/2
f 119/6/2 120/6/2 125/6/2
f 120/5/2 121/5/2 126/5/2
f 125/6/2 120/6/2 126/6/2
f 123/7/2 124/7/2 127/7/2
f 122/5/2 123/5/2 127/5/2
f 127/7/2 124/7/2 128/7/2
f 126/5/2 121/5/2 129/5/2
f 125/5/2 126/5/2 129/5/2
f 129/5/2 121/5/2 130/5/2
f 127/5/2 128/5/2 131/5/2
f 122/5/2 127/5/2 131/5/2
f 131/5/2 128/5/2 132/5/2
f 125/5/2 129/5/2 133/5/2
f 129/6/2 130/6/2 134/6/2
f 133/5/2 129/5/2 134/5/2
f 134/6/2 130/6/2 135/6/2
f 133/7/2 134/7/2 136/7/2
f 134/5/2 135/5/2 137/5/2
f 136/7/2 134/7/2 137/7/2
f 137/5/2 135/5/2 138/5/2
f 139/3/2 140/3/2 141/3/2
f 141/3/2 140/3/2 142/3/2
f 143/8/2 144/8/2 145/8/2
f 145/8/2 144/8/2 146/8/2
f 149/8/3 148/8/3 147/8/3
f 150/8/3 148/8/3 149/8/3
f 153/3/3 152/3/3 151/3/3
f 154/3/3 152/3/3 153/3/3
f 158/5/3 156/5/3 155/5/3
f 159/7/3 157/7/3 156/7/3
f 159/5/3 156/5/3 158/5/3
f 160/7/3 157/7/3 159/7/3
f 161/5/3 158/5/3 155/5/3
f 162/6/3 159/6/3 158/6/3
f 162/5/3 158/5/3 161/5/3
f 163/5/3 160/5/3 159/5/3
f 163/6/3 159/6/3 162/6/3
f 164/5/3 160/5/3 163/5/3
f 170/5/3 166/5/3 165/5/3
f 170/7/3 167/7/3 166/7/3
f 171/5/3 168/5/3 167/5/3
f 171/7/3 167/7/3 170/7/3
f 172/7/3 169/7/3 168/7/3
f 172/5/3 168/5/3 171/5/3
f 173/7/3 169/7/3 172/7/3
f 174/5/3 171/5/3 170/5/3
f 174/5/3 170/5/3 165/5/3
f 174/5/3 173/5/3 172/5/3
f 174/5/3 172/5/3 171/5/3
f 175/5/3 173/5/3 174/5/3
f 179/6/3 177/6/3 176/6/3
f 180/5/3 178/5/3 177/5/3
f 180/6/3 177/6/3 179/6/3
f 181/5/3 178/5/3 180/5/3
f 184/2/3 183/2/3 182/2/3
f 185/2/3 183/2/3 184/2/3
f 190/6/3 187/6/3 186/6/3
f 191/5/3 188/5/3 187/5/3
f 191/6/3 187/6/3 190/6/3
f 192/7/3 189/7/3 188/7/3
f 192/5/3 188/5/3 191/5/3
f 193/7/3 189/7/3 192/7/3
f 199/5/3 195/5/3 194/5/3
f 200/7/3 196/7/3 195/7/3
f 200/5/3 195/5/3 199/5/3
f 201/5/3 197/5/3 196/5/3
f 201/7/3 196/7/3 200/7/3
f 202/6/3 198/6/3 197/6/3
f 202/5/3 197/5/3 201/5/3
f 203/6/3 198/6/3 202/6/3
f 210/6/3 205/6/3 204/6/3
f 211/5/3 206/5/3 205/5/3
f 211/6/3 205/6/3 210/6/3
f 212/6/3 207/6/3 206/6/3
f 212/5/3 206/5/3 211/5/3
f 213/7/3 208/7/3 207/7/3
f 213/6/3 207/6/3 212/6/3
f 214/5/3 209/5/3 208/5/3
f 214/7/3 208/7/3 213/7/3
f 215/5/3 209/5/3 214/5/3
f 216/5/3 213/5/3 212/5/3
f 216/5/3 211/5/3 210/5/3
f 216/5/3 212/5/3 211/5/3
f 216/5/3 214/5/3 213/5/3
f 217/6/3 215/6/3 214/6/3
f 217/5/3 214/5/3 216/5/3
f 218/6/3 215/6/3 217/6/3
f 219/5/4 220/5/4 222/5/4
f 220/7/4 221/7/4 223/7/4
f 222/5/4 220/5/4 223/5/4
f 223/7/4 221/7/4 224/7/4
f 219/5/4 222/5/4 225/5/4
f 222/6/4 223/6/4 226/6/4
f 225/5/4 222/5/4 226/5/4
f 223/5/4 224/5/4 227/5/4
f 226/6/4 223/6/4 227/6/4
f 227/5/4 224/5/4 228/5/4
f 229/5/4 230/5/4 234/5/4
f 230/7/4 231/7/4 234/7/4
f 231/5/4 232/5/4 235/5/4
f 234/7/4 231/7/4 235/7/4
f 232/7/4 233/7/4 236/7/4
f 235/5/4 232/5/4 236/5/4
f 236/7/4 233/7/4 237/7/4
f 234/5/4 235/5/4 238/5/4
f 229/5/4 234/5/4 238/5/4
f 236/5/4 237/5/4 238/5/4
f 235/5/4 236/5/4 238/5/4
f 238/5/4 237/5/4 239/5/4
f 240/5/4 241/5/4 244/5/4
f 241/7/4 242/7/4 245/7/4
f 244/5/4 241/5/4 245/5/4
f 242/5/4 243/5/4 246/5/4
f 245/7/4 242/7/4 246/7/4
f 246/5/4 243/5/4 247/5/4
f 248/5/4 249/5/4 252/5/4
f 249/6/4 250/6/4 253/6/4
f 252/5/4 249/5/4 253/5/4
f 250/5/4 251/5/4 254/5/4
f 253/6/4 250/6/4 254/6/4
f 254/5/4 251/5/4 255/5/4
f 256/2/4 257/2/4 258/2/4
f 258/2/4 257/2/4 259/2/4
f 260/6/4 261/6/4 266/6/4
f 261/5/4 262/5/4 267/5/4
f 266/6/4 261/6/4 267/6/4
f 262/6/4 263/6/4 268/6/4
f 267/5/4 262/5/4 268/5/4
f 263/7/4 264/7/4 269/7/4
f 268/6/4 263/6/4 269/6/4
f 264/5/4 265/5/4 270/5/4
f 269/7/4 264/7/4 270/7/4
f 270/5/4 265/5/4 271/5/4
f 268/5/4 269/5/4 272/5/4
f 266/5/4 267/5/4 272/5/4
f 267/5/4 268/5/4 272/5/4
f 269/5/4 270/5/4 272/5/4
f 270/6/4 271/6/4 273/6/4
f 272/5/4 270/5/4 273/5/4
f 273/6/4 271/6/4 274/6/4
f 275/5/4 276/5/4 279/5/4
f 276/6/4 277/6/4 280/6/4
f 279/5/4 276/5/4 280/5/4
f 277/5/4 278/5/4 281/5/4
f 280/6/4 277/6/4 281/6/4
f 281/5/4 278/5/4 282/5/4
f 283/3/4 284/3/4 285/3/4
f 285/3/4 284/3/4 286/3/4
f 287/8/4 288/8/4 289/8/4
f 289/8/4 288/8/4 290/8/4
f 293/8/5 292/8/5 291/8/5
f 294/8/5 292/8/5 293/8/5
f 295/8/6 296/8/6 297/8/6
f 297/8/6 296/8/6 298/8/6
f 295/8/6 297/8/6 299/8/6
f 299/8/6 297/8/6 300/8/6
f 301/8/6 302/8/6 303/8/6
f 298/8/6 296/8/6 304/8/6
f 301/8/6 303/8/6 305/8/6
f 303/8/6 304/8/6 305/8/6
f 304/8/6 296/8/6 306/8/6
f 305/8/6 304/8/6 306/8/6
f 307/3/6 308/3/6 309/3/6
f 309/3/6 308/3/6 310/3/6
f 307/3/6 309/3/6 311/3/6
f 310/3/6 308/3/6 312/3/6
f 307/3/6 311/3/6 313/3/6
f 311/3/6 312/3/6 313/3/6
f 313/3/6 312/3/6 314/3/6
f 312/3/6 308/3/6 315/3/6
f 314/3/6 312/3/6 315/3/6
f 315/3/6 308/3/6 316/3/6
f 307/3/6 313/3/6 317/3/6
f 314/3/6 315/3/6 318/3/6
f 318/3/6 315/3/6 319/3/6
f 319/3/6 315/3/6 320/3/6
f 316/3/6 308/3/6 321/3/6
f 307/3/6 317/3/6 323/3/6
f 317/3/6 318/3/6 323/3/6
f 323/3/6 318/3/6 324/3/6
f 318/5/6 319/5/6 325/5/6
f 324/3/6 318/3/6 325/3/6
f 319/3/6 320/3/6 326/3/6
f 325/5/6 319/5/6 326/5/6
f 326/3/6 320/3/6 327/3/6
f 327/3/6 320/3/6 328/3/6
f 321/3/6 308/3/6 329/3/6
f 323/2/6 324/2/6 330/2/6
f 322/2/6 323/2/6 330/2/6
f 324/5/6 325/5/6 331/5/6
f 330/2/6 324/2/6 331/2/6
f 325/4/6 326/4/6 332/4/6
f 331/5/6 325/5/6 332/5/6
f 326/5/6 327/5/6 333/5/6
f 332/4/6 326/4/6 333/4/6
f 327/3/6 328/3/6 334/3/6
f 333/5/6 327/5/6 334/5/6
f 328/3/6 329/3/6 334/3/6
f 334/3/6 329/3/6 335/3/6
f 335/3/6 329/3/6 336/3/6
f 329/3/6 308/3/6 337/3/6
f 336/3/6 329/3/6 337/3/6
f 335/3/6 336/3/6 338/3/6
f 337/3/6 308/3/6 339/3/6
f 330/1/6 331/1/6 340/1/6
f 332/4/6 333/4/6 341/4/6
f 340/1/6 331/1/6 341/1/6
f 331/4/6 332/4/6 341/4/6
f 333/4/6 334/4/6 341/4/6
f 341/4/6 334/4/6 342/4/6
f 342/4/6 334/4/6 343/4/6
f 334/5/6 335/5/6 344/5/6
f 343/4/6 334/4/6 344/4/6
f 335/3/6 338/3/6 345/3/6
f 344/5/6 335/5/6 345/5/6
f 345/3/6 338/3/6 346/3/6
f 339/3/6 308/3/6 347/3/6
f 340/2/6 341/2/6 348/2/6
f 348/2/6 341/2/6 349/2/6
f 341/5/6 342/5/6 350/5/6
f 349/2/6 341/2/6 350/2/6
f 342/4/6 343/4/6 351/4/6
f 350/5/6 342/5/6 351/5/6
f 343/5/6 344/5/6 352/5/6
f 351/4/6 343/4/6 352/4/6
f 345/3/6 346/3/6 353/3/6
f 352/5/6 344/5/6 353/5/6
f 346/3/6 347/3/6 353/3/6
f 344/3/6 345/3/6 353/3/6
f 350/3/6 351/3/6 354/3/6
f 351/5/6 352/5/6 354/5/6
f 349/3/6 350/3/6 354/3/6
f 352/3/6 353/3/6 355/3/6
f 354/5/6 352/5/6 355/5/6
f 353/3/6 347/3/6 356/3/6
f 355/3/6 353/3/6 356/3/6
f 354/3/6 355/3/6 356/3/6
f 356/3/6 347/3/6 357/3/6
f 354/3/6 356/3/6 358/3/6
f 358/3/6 356/3/6 359/3/6
f 359/3/6 356/3/6 360/3/6
f 354/3/6 358/3/6 361/3/6
f 360/3/6 356/3/6 363/3/6
f 363/3/6 356/3/6 364/3/6
f 357/3/6 347/3/6 365/3/6
f 349/3/6 354/3/6 366/3/6
f 364/3/6 365/3/6 366/3/6
f 363/3/6 364/3/6 366/3/6
f 361/3/6 362/3/6 366/3/6
f 362/3/6 363/3/6 366/3/6
f 354/3/6 361/3/6 366/3/6
f 347/3/6 308/3/6 367/3/6
f 366/3/6 365/3/6 367/3/6
f 365/3/6 347/3/6 367/3/6
f 368/7/6 369/7/6 371/7/6
f 369/5/6 370/5/6 372/5/6
f 371/7/6 369/7/6 372/7/6
f 372/5/6 370/5/6 373/5/6
f 374/5/6 375/5/6 376/5/6
f 376/5/6 375/5/6 377/5/6
f 378/7/6 379/7/6 380/7/6
f 380/7/6 379/7/6 381/7/6
f 380/5/6 381/5/6 382/5/6
f 382/5/6 381/5/6 383/5/6
f 384/6/6 385/6/6 386/6/6
f 386/6/6 385/6/6 387/6/6
f 386/5/6 387/5/6 388/5/6
f 388/5/6 387/5/6 389/5/6
f 390/7/6 391/7/6 393/7/6
f 391/5/6 392/5/6 394/5/6
f 393/7/6 391/7/6 394/7/6
f 394/5/6 392/5/6 395/5/6
f 396/5/6 397/5/6 399/5/6
f 397/6/6 398/6/6 400/6/6
f 399/5/6 397/5/6 400/5/6
f 400/6/6 398/6/6 401/6/6
