# MagicaVoxel @ Ephtracy

# material
mtllib oneway.mtl
usemtl palette

# normals
vn -1 0 0
vn 1 0 0
vn 0 0 1
vn 0 0 -1
vn 0 -1 0
vn 0 1 0

# texcoords
vt 0.177734 0.5
vt 0.341797 0.5
vt 0.623047 0.5
vt 0.986328 0.5

# verts
v -10 0 10
v -10 0 -10
v -10 1 10
v -10 1 3
v -10 1 2
v -10 1 -2
v -10 1 -3
v -10 1 -10
v -10 2 3
v -10 2 2
v -10 2 -2
v -10 2 -3
v -9 1 9
v -9 1 3
v -9 1 -3
v -9 1 -9
v -9 2 9
v -9 2 3
v -9 2 -3
v -9 2 -9
v 9 1 9
v 9 1 -9
v 9 2 9
v 9 2 -9
v 10 0 10
v 10 0 -10
v 10 1 10
v 10 1 -10
v -10 0 10
v -10 1 10
v 10 0 10
v 10 1 10
v -9 1 9
v -9 2 9
v 9 1 9
v 9 2 9
v -10 1 3
v -10 2 3
v -9 1 3
v -9 2 3
v -10 1 -3
v -10 2 -3
v -9 1 -3
v -9 2 -3
v -9 1 -9
v -9 2 -9
v 9 1 -9
v 9 2 -9
v -10 0 -10
v -10 1 -10
v 10 0 -10
v 10 1 -10
v -10 0 10
v 10 0 10
v -10 0 -10
v 10 0 -10
v -10 1 10
v 10 1 10
v -9 1 9
v 9 1 9
v -10 1 3
v -9 1 3
v -10 1 -3
v -9 1 -3
v -9 1 -9
v 9 1 -9
v -10 1 -10
v 10 1 -10
v -9 2 9
v 9 2 9
v -10 2 3
v -9 2 3
v 3 2 3
v -10 2 2
v 3 2 2
v 4 2 2
v -10 2 -2
v 3 2 -2
v 4 2 -2
v -10 2 -3
v -9 2 -3
v 3 2 -3
v -9 2 -9
v 9 2 -9

# faces
f 3/4/1 2/4/1 1/4/1
f 4/4/1 2/4/1 3/4/1
f 5/4/1 2/4/1 4/4/1
f 6/4/1 2/4/1 5/4/1
f 7/4/1 2/4/1 6/4/1
f 8/4/1 2/4/1 7/4/1
f 9/2/1 5/2/1 4/2/1
f 10/1/1 6/1/1 5/1/1
f 10/2/1 5/2/1 9/2/1
f 11/2/1 7/2/1 6/2/1
f 11/1/1 6/1/1 10/1/1
f 12/2/1 7/2/1 11/2/1
f 17/3/1 14/3/1 13/3/1
f 18/3/1 14/3/1 17/3/1
f 19/3/1 16/3/1 15/3/1
f 20/3/1 16/3/1 19/3/1
f 21/3/2 22/3/2 23/3/2
f 23/3/2 22/3/2 24/3/2
f 25/4/2 26/4/2 27/4/2
f 27/4/2 26/4/2 28/4/2
f 31/4/3 30/4/3 29/4/3
f 32/4/3 30/4/3 31/4/3
f 35/3/3 34/3/3 33/3/3
f 36/3/3 34/3/3 35/3/3
f 39/2/3 38/2/3 37/2/3
f 40/2/3 38/2/3 39/2/3
f 41/2/4 42/2/4 43/2/4
f 43/2/4 42/2/4 44/2/4
f 45/3/4 46/3/4 47/3/4
f 47/3/4 46/3/4 48/3/4
f 49/4/4 50/4/4 51/4/4
f 51/4/4 50/4/4 52/4/4
f 55/4/5 54/4/5 53/4/5
f 56/4/5 54/4/5 55/4/5
f 57/4/6 58/4/6 59/4/6
f 59/4/6 58/4/6 60/4/6
f 57/4/6 59/4/6 61/4/6
f 61/4/6 59/4/6 62/4/6
f 63/4/6 64/4/6 65/4/6
f 60/4/6 58/4/6 66/4/6
f 63/4/6 65/4/6 67/4/6
f 65/4/6 66/4/6 67/4/6
f 66/4/6 58/4/6 68/4/6
f 67/4/6 66/4/6 68/4/6
f 69/3/6 70/3/6 72/3/6
f 72/3/6 70/3/6 73/3/6
f 71/2/6 72/2/6 74/2/6
f 72/2/6 73/2/6 74/2/6
f 73/3/6 70/3/6 75/3/6
f 74/2/6 73/2/6 75/2/6
f 75/3/6 70/3/6 76/3/6
f 74/1/6 75/1/6 77/1/6
f 75/2/6 76/2/6 78/2/6
f 77/1/6 75/1/6 78/1/6
f 76/3/6 70/3/6 79/3/6
f 78/2/6 76/2/6 79/2/6
f 77/2/6 78/2/6 80/2/6
f 80/2/6 78/2/6 81/2/6
f 78/3/6 79/3/6 82/3/6
f 81/2/6 78/2/6 82/2/6
f 81/3/6 82/3/6 83/3/6
f 79/3/6 70/3/6 84/3/6
f 83/3/6 82/3/6 84/3/6
f 82/3/6 79/3/6 84/3/6
