# MagicaVoxel @ Ephtracy

# material
mtllib pond.mtl
usemtl palette

# normals
vn -1 0 0
vn 1 0 0
vn 0 0 1
vn 0 0 -1
vn 0 -1 0
vn 0 1 0

# texcoords
vt 0.564453 0.5
vt 0.591797 0.5
vt 0.623047 0.5
vt 0.740234 0.5
vt 0.771484 0.5
vt 0.974609 0.5
vt 0.986328 0.5

# verts
v -10 0 10
v -10 0 -10
v -10 1 10
v -10 1 -10
v -9 1 9
v -9 1 -9
v -9 2 9
v -9 2 -9
v -7 2 -0
v -7 2 -1
v -7 3 -0
v -7 3 -1
v -5 2 7
v -5 2 6
v -5 3 7
v -5 3 6
v -4 2 -3
v -4 2 -4
v -4 3 -3
v -4 3 -4
v 0 1 6
v 0 1 5
v 0 2 6
v 0 2 5
v 0 2 -5
v 0 2 -6
v 0 3 -5
v 0 3 -6
v 1 1 -1
v 1 1 -2
v 1 2 -1
v 1 2 -2
v 2 1 5
v 2 1 4
v 2 2 5
v 2 2 4
v 2 3 5
v 2 3 4
v 4 1 4
v 4 1 3
v 4 1 -6
v 4 1 -7
v 4 2 4
v 4 2 3
v 4 2 -6
v 4 2 -7
v 4 3 4
v 4 3 3
v 4 3 -6
v 4 3 -7
v 5 1 -5
v 5 1 -6
v 5 2 -5
v 5 2 -6
v 6 1 3
v 6 1 1
v 6 1 -2
v 6 1 -5
v 6 2 3
v 6 2 1
v 6 2 -2
v 6 2 -3
v 6 2 -4
v 6 2 -5
v 6 3 -3
v 6 3 -4
v 7 1 1
v 7 1 -2
v 7 2 1
v 7 2 -2
v -7 1 5
v -7 1 -0
v -7 2 5
v -7 2 -0
v -6 1 6
v -6 1 5
v -6 1 -0
v -6 1 -2
v -6 2 6
v -6 2 5
v -6 2 -0
v -6 2 -1
v -6 2 -2
v -6 3 -0
v -6 3 -1
v -5 1 -2
v -5 1 -3
v -5 2 -2
v -5 2 -3
v -4 2 7
v -4 2 6
v -4 3 7
v -4 3 6
v -3 1 -3
v -3 1 -4
v -3 2 -3
v -3 2 -4
v -3 3 -3
v -3 3 -4
v -1 1 -4
v -1 1 -5
v -1 2 -4
v -1 2 -5
v 1 1 -5
v 1 1 -7
v 1 2 -5
v 1 2 -6
v 1 2 -7
v 1 3 -5
v 1 3 -6
v 2 1 -1
v 2 1 -2
v 2 2 -1
v 2 2 -2
v 3 2 5
v 3 2 4
v 3 3 5
v 3 3 4
v 5 2 4
v 5 2 3
v 5 2 -6
v 5 2 -7
v 5 3 4
v 5 3 3
v 5 3 -6
v 5 3 -7
v 7 2 -3
v 7 2 -4
v 7 3 -3
v 7 3 -4
v 9 1 9
v 9 1 -9
v 9 2 9
v 9 2 -9
v 10 0 10
v 10 0 -10
v 10 1 10
v 10 1 -10
v -10 0 10
v -10 1 10
v 10 0 10
v 10 1 10
v -9 1 9
v -9 2 9
v 9 1 9
v 9 2 9
v -5 2 7
v -5 3 7
v -4 2 7
v -4 3 7
v 2 2 5
v 2 3 5
v 3 2 5
v 3 3 5
v 4 2 4
v 4 3 4
v 5 2 4
v 5 3 4
v -7 1 -0
v -7 2 -0
v -7 3 -0
v -6 1 -0
v -6 2 -0
v -6 3 -0
v 1 1 -1
v 1 2 -1
v 2 1 -1
v 2 2 -1
v -6 1 -2
v -6 2 -2
v -5 1 -2
v -5 2 -2
v 6 1 -2
v 6 2 -2
v 7 1 -2
v 7 2 -2
v -5 1 -3
v -5 2 -3
v -4 2 -3
v -4 3 -3
v -3 1 -3
v -3 2 -3
v -3 3 -3
v 6 2 -3
v 6 3 -3
v 7 2 -3
v 7 3 -3
v -3 1 -4
v -3 2 -4
v -1 1 -4
v -1 2 -4
v -1 1 -5
v -1 2 -5
v 0 1 -5
v 0 2 -5
v 0 3 -5
v 1 1 -5
v 1 2 -5
v 1 3 -5
v 5 1 -5
v 5 2 -5
v 6 1 -5
v 6 2 -5
v 4 1 -6
v 4 2 -6
v 4 3 -6
v 5 1 -6
v 5 2 -6
v 5 3 -6
v 1 1 -7
v 1 2 -7
v 4 1 -7
v 4 2 -7
v -6 1 6
v -6 2 6
v -5 2 6
v -5 3 6
v -4 2 6
v -4 3 6
v -3 1 6
v -3 2 6
v 0 1 6
v 0 2 6
v -7 1 5
v -7 2 5
v -6 1 5
v -6 2 5
v 0 1 5
v 0 2 5
v 1 1 5
v 1 2 5
v 2 1 5
v 2 2 5
v 2 1 4
v 2 2 4
v 2 3 4
v 3 2 4
v 3 3 4
v 4 1 4
v 4 2 4
v 4 1 3
v 4 2 3
v 4 3 3
v 5 2 3
v 5 3 3
v 6 1 3
v 6 2 3
v 6 1 1
v 6 2 1
v 7 1 1
v 7 2 1
v -7 2 -1
v -7 3 -1
v -6 2 -1
v -6 3 -1
v 1 1 -2
v 1 2 -2
v 2 1 -2
v 2 2 -2
v -4 2 -4
v -4 3 -4
v -3 2 -4
v -3 3 -4
v 6 2 -4
v 6 3 -4
v 7 2 -4
v 7 3 -4
v 0 2 -6
v 0 3 -6
v 1 2 -6
v 1 3 -6
v 4 2 -7
v 4 3 -7
v 5 2 -7
v 5 3 -7
v -9 1 -9
v -9 2 -9
v 9 1 -9
v 9 2 -9
v -10 0 -10
v -10 1 -10
v 10 0 -10
v 10 1 -10
v -10 0 10
v 10 0 10
v -6 0 6
v 0 0 6
v -7 0 5
v -6 0 5
v 0 0 5
v 2 0 5
v -4 0 4
v -3 0 4
v 2 0 4
v 4 0 4
v -4 0 3
v -3 0 3
v -2 0 3
v -1 0 3
v 4 0 3
v 6 0 3
v -6 0 2
v -5 0 2
v -2 0 2
v -1 0 2
v -6 0 1
v -5 0 1
v 1 0 1
v 2 0 1
v 6 0 1
v 7 0 1
v -7 0 -0
v -6 0 -0
v 1 0 -0
v 2 0 -0
v 4 0 -0
v 5 0 -0
v -2 0 -1
v -1 0 -1
v 0 0 -1
v 1 0 -1
v 4 0 -1
v 5 0 -1
v -6 0 -2
v -5 0 -2
v -2 0 -2
v -1 0 -2
v 0 0 -2
v 2 0 -2
v 6 0 -2
v 7 0 -2
v -5 0 -3
v -3 0 -3
v 1 0 -3
v 2 0 -3
v 4 0 -3
v 5 0 -3
v -3 0 -4
v -1 0 -4
v 1 0 -4
v 2 0 -4
v 4 0 -4
v 5 0 -4
v -1 0 -5
v 1 0 -5
v 5 0 -5
v 6 0 -5
v 4 0 -6
v 5 0 -6
v 1 0 -7
v 4 0 -7
v -10 0 -10
v 10 0 -10
v -10 1 10
v 10 1 10
v -9 1 9
v 9 1 9
v -6 1 6
v -3 1 6
v 0 1 6
v -7 1 5
v -6 1 5
v 0 1 5
v 1 1 5
v 2 1 5
v -4 1 4
v -3 1 4
v 2 1 4
v 4 1 4
v -4 1 3
v -3 1 3
v -2 1 3
v -1 1 3
v 4 1 3
v 6 1 3
v -6 1 2
v -5 1 2
v -2 1 2
v -1 1 2
v -6 1 1
v -5 1 1
v 1 1 1
v 2 1 1
v 6 1 1
v 7 1 1
v -7 1 -0
v -6 1 -0
v 1 1 -0
v 2 1 -0
v 4 1 -0
v 5 1 -0
v -2 1 -1
v -1 1 -1
v 0 1 -1
v 1 1 -1
v 2 1 -1
v 4 1 -1
v 5 1 -1
v -6 1 -2
v -5 1 -2
v -2 1 -2
v -1 1 -2
v 0 1 -2
v 1 1 -2
v 2 1 -2
v 6 1 -2
v 7 1 -2
v -5 1 -3
v -3 1 -3
v 1 1 -3
v 2 1 -3
v 4 1 -3
v 5 1 -3
v -3 1 -4
v -1 1 -4
v 1 1 -4
v 2 1 -4
v 4 1 -4
v 5 1 -4
v -1 1 -5
v 0 1 -5
v 1 1 -5
v 5 1 -5
v 6 1 -5
v 4 1 -6
v 5 1 -6
v 1 1 -7
v 4 1 -7
v -9 1 -9
v 9 1 -9
v -10 1 -10
v 10 1 -10
v -9 2 9
v 9 2 9
v -5 2 7
v -4 2 7
v -3 2 7
v 0 2 7
v -6 2 6
v -5 2 6
v -4 2 6
v -3 2 6
v 0 2 6
v 1 2 6
v -7 2 5
v -6 2 5
v 0 2 5
v 1 2 5
v 2 2 5
v 3 2 5
v 3 2 4
v 4 2 4
v 5 2 4
v 5 2 3
v 6 2 3
v 6 2 1
v 7 2 1
v -7 2 -0
v -7 2 -1
v -6 2 -1
v 1 2 -1
v 2 2 -1
v -6 2 -2
v -5 2 -2
v 1 2 -2
v 2 2 -2
v 6 2 -2
v 7 2 -2
v -5 2 -3
v -4 2 -3
v 6 2 -3
v 7 2 -3
v -4 2 -4
v -3 2 -4
v -1 2 -4
v 6 2 -4
v 7 2 -4
v -3 2 -5
v -1 2 -5
v 0 2 -5
v 5 2 -5
v 6 2 -5
v -1 2 -6
v 0 2 -6
v 1 2 -6
v 5 2 -6
v 1 2 -7
v 4 2 -7
v 5 2 -7
v -9 2 -9
v 9 2 -9
v -5 3 7
v -4 3 7
v -5 3 6
v -4 3 6
v 2 3 5
v 3 3 5
v 2 3 4
v 3 3 4
v 4 3 4
v 5 3 4
v 4 3 3
v 5 3 3
v -7 3 -0
v -6 3 -0
v -7 3 -1
v -6 3 -1
v -4 3 -3
v -3 3 -3
v 6 3 -3
v 7 3 -3
v -4 3 -4
v -3 3 -4
v 6 3 -4
v 7 3 -4
v 0 3 -5
v 1 3 -5
v 0 3 -6
v 1 3 -6
v 4 3 -6
v 5 3 -6
v 4 3 -7
v 5 3 -7

# faces
f 3/7/1 2/7/1 1/7/1
f 4/7/1 2/7/1 3/7/1
f 7/3/1 6/3/1 5/3/1
f 8/3/1 6/3/1 7/3/1
f 11/5/1 10/5/1 9/5/1
f 12/5/1 10/5/1 11/5/1
f 15/4/1 14/4/1 13/4/1
f 16/4/1 14/4/1 15/4/1
f 19/4/1 18/4/1 17/4/1
f 20/4/1 18/4/1 19/4/1
f 23/6/1 22/6/1 21/6/1
f 24/6/1 22/6/1 23/6/1
f 27/5/1 26/5/1 25/5/1
f 28/5/1 26/5/1 27/5/1
f 31/6/1 30/6/1 29/6/1
f 32/6/1 30/6/1 31/6/1
f 35/3/1 34/3/1 33/3/1
f 36/3/1 34/3/1 35/3/1
f 37/4/1 36/4/1 35/4/1
f 38/4/1 36/4/1 37/4/1
f 43/3/1 40/3/1 39/3/1
f 44/3/1 40/3/1 43/3/1
f 45/3/1 42/3/1 41/3/1
f 46/3/1 42/3/1 45/3/1
f 47/4/1 44/4/1 43/4/1
f 48/4/1 44/4/1 47/4/1
f 49/4/1 46/4/1 45/4/1
f 50/4/1 46/4/1 49/4/1
f 53/3/1 52/3/1 51/3/1
f 54/3/1 52/3/1 53/3/1
f 59/3/1 56/3/1 55/3/1
f 60/3/1 56/3/1 59/3/1
f 61/3/1 58/3/1 57/3/1
f 62/3/1 58/3/1 61/3/1
f 63/3/1 58/3/1 62/3/1
f 64/3/1 58/3/1 63/3/1
f 65/5/1 63/5/1 62/5/1
f 66/5/1 63/5/1 65/5/1
f 69/3/1 68/3/1 67/3/1
f 70/3/1 68/3/1 69/3/1
f 71/3/2 72/3/2 73/3/2
f 73/3/2 72/3/2 74/3/2
f 75/3/2 76/3/2 79/3/2
f 79/3/2 76/3/2 80/3/2
f 77/3/2 78/3/2 81/3/2
f 81/3/2 78/3/2 82/3/2
f 82/3/2 78/3/2 83/3/2
f 81/5/2 82/5/2 84/5/2
f 84/5/2 82/5/2 85/5/2
f 86/3/2 87/3/2 88/3/2
f 88/3/2 87/3/2 89/3/2
f 90/4/2 91/4/2 92/4/2
f 92/4/2 91/4/2 93/4/2
f 94/3/2 95/3/2 96/3/2
f 96/3/2 95/3/2 97/3/2
f 96/4/2 97/4/2 98/4/2
f 98/4/2 97/4/2 99/4/2
f 100/6/2 101/6/2 102/6/2
f 102/6/2 101/6/2 103/6/2
f 104/3/2 105/3/2 106/3/2
f 106/3/2 105/3/2 107/3/2
f 107/3/2 105/3/2 108/3/2
f 106/5/2 107/5/2 109/5/2
f 109/5/2 107/5/2 110/5/2
f 111/6/2 112/6/2 113/6/2
f 113/6/2 112/6/2 114/6/2
f 115/4/2 116/4/2 117/4/2
f 117/4/2 116/4/2 118/4/2
f 119/4/2 120/4/2 123/4/2
f 123/4/2 120/4/2 124/4/2
f 121/4/2 122/4/2 125/4/2
f 125/4/2 122/4/2 126/4/2
f 127/5/2 128/5/2 129/5/2
f 129/5/2 128/5/2 130/5/2
f 131/3/2 132/3/2 133/3/2
f 133/3/2 132/3/2 134/3/2
f 135/7/2 136/7/2 137/7/2
f 137/7/2 136/7/2 138/7/2
f 141/7/3 140/7/3 139/7/3
f 142/7/3 140/7/3 141/7/3
f 145/3/3 144/3/3 143/3/3
f 146/3/3 144/3/3 145/3/3
f 149/4/3 148/4/3 147/4/3
f 150/4/3 148/4/3 149/4/3
f 153/4/3 152/4/3 151/4/3
f 154/4/3 152/4/3 153/4/3
f 157/4/3 156/4/3 155/4/3
f 158/4/3 156/4/3 157/4/3
f 162/3/3 160/3/3 159/3/3
f 163/5/3 161/5/3 160/5/3
f 163/3/3 160/3/3 162/3/3
f 164/5/3 161/5/3 163/5/3
f 167/6/3 166/6/3 165/6/3
f 168/6/3 166/6/3 167/6/3
f 171/3/3 170/3/3 169/3/3
f 172/3/3 170/3/3 171/3/3
f 175/3/3 174/3/3 173/3/3
f 176/3/3 174/3/3 175/3/3
f 179/3/3 178/3/3 177/3/3
f 181/3/3 179/3/3 177/3/3
f 182/4/3 180/4/3 179/4/3
f 182/3/3 179/3/3 181/3/3
f 183/4/3 180/4/3 182/4/3
f 186/5/3 185/5/3 184/5/3
f 187/5/3 185/5/3 186/5/3
f 190/6/3 189/6/3 188/6/3
f 191/6/3 189/6/3 190/6/3
f 194/6/3 193/6/3 192/6/3
f 195/6/3 193/6/3 194/6/3
f 197/3/3 195/3/3 194/3/3
f 198/5/3 196/5/3 195/5/3
f 198/3/3 195/3/3 197/3/3
f 199/5/3 196/5/3 198/5/3
f 202/3/3 201/3/3 200/3/3
f 203/3/3 201/3/3 202/3/3
f 207/3/3 205/3/3 204/3/3
f 208/4/3 206/4/3 205/4/3
f 208/3/3 205/3/3 207/3/3
f 209/4/3 206/4/3 208/4/3
f 212/3/3 211/3/3 210/3/3
f 213/3/3 211/3/3 212/3/3
f 214/3/4 215/3/4 216/3/4
f 214/3/4 216/3/4 218/3/4
f 216/4/4 217/4/4 218/4/4
f 218/4/4 217/4/4 219/4/4
f 214/3/4 218/3/4 220/3/4
f 220/3/4 218/3/4 221/3/4
f 220/6/4 221/6/4 222/6/4
f 222/6/4 221/6/4 223/6/4
f 224/3/4 225/3/4 226/3/4
f 226/3/4 225/3/4 227/3/4
f 228/6/4 229/6/4 230/6/4
f 230/6/4 229/6/4 231/6/4
f 230/3/4 231/3/4 232/3/4
f 232/3/4 231/3/4 233/3/4
f 234/3/4 235/3/4 237/3/4
f 235/4/4 236/4/4 237/4/4
f 237/4/4 236/4/4 238/4/4
f 234/3/4 237/3/4 239/3/4
f 239/3/4 237/3/4 240/3/4
f 241/3/4 242/3/4 244/3/4
f 242/4/4 243/4/4 244/4/4
f 244/4/4 243/4/4 245/4/4
f 241/3/4 244/3/4 246/3/4
f 246/3/4 244/3/4 247/3/4
f 248/3/4 249/3/4 250/3/4
f 250/3/4 249/3/4 251/3/4
f 252/5/4 253/5/4 254/5/4
f 254/5/4 253/5/4 255/5/4
f 256/6/4 257/6/4 258/6/4
f 258/6/4 257/6/4 259/6/4
f 260/4/4 261/4/4 262/4/4
f 262/4/4 261/4/4 263/4/4
f 264/5/4 265/5/4 266/5/4
f 266/5/4 265/5/4 267/5/4
f 268/5/4 269/5/4 270/5/4
f 270/5/4 269/5/4 271/5/4
f 272/4/4 273/4/4 274/4/4
f 274/4/4 273/4/4 275/4/4
f 276/3/4 277/3/4 278/3/4
f 278/3/4 277/3/4 279/3/4
f 280/7/4 281/7/4 282/7/4
f 282/7/4 281/7/4 283/7/4
f 286/7/5 285/7/5 284/7/5
f 287/7/5 285/7/5 286/7/5
f 288/7/5 286/7/5 284/7/5
f 289/2/5 287/2/5 286/2/5
f 289/7/5 286/7/5 288/7/5
f 290/7/5 285/7/5 287/7/5
f 290/2/5 287/2/5 289/2/5
f 291/7/5 285/7/5 290/7/5
f 292/2/5 289/2/5 288/2/5
f 292/2/5 290/2/5 289/2/5
f 292/2/5 291/2/5 290/2/5
f 293/2/5 291/2/5 292/2/5
f 294/7/5 285/7/5 291/7/5
f 294/2/5 291/2/5 293/2/5
f 295/7/5 285/7/5 294/7/5
f 296/1/5 293/1/5 292/1/5
f 296/2/5 292/2/5 288/2/5
f 297/2/5 295/2/5 294/2/5
f 297/1/5 293/1/5 296/1/5
f 297/2/5 294/2/5 293/2/5
f 298/2/5 295/2/5 297/2/5
f 299/2/5 295/2/5 298/2/5
f 300/7/5 285/7/5 295/7/5
f 300/2/5 295/2/5 299/2/5
f 301/7/5 285/7/5 300/7/5
f 302/2/5 296/2/5 288/2/5
f 302/2/5 297/2/5 296/2/5
f 302/2/5 298/2/5 297/2/5
f 303/2/5 298/2/5 302/2/5
f 304/5/5 299/5/5 298/5/5
f 304/2/5 298/2/5 303/2/5
f 305/2/5 301/2/5 300/2/5
f 305/5/5 299/5/5 304/5/5
f 305/2/5 300/2/5 299/2/5
f 306/1/5 303/1/5 302/1/5
f 306/2/5 302/2/5 288/2/5
f 307/2/5 304/2/5 303/2/5
f 307/1/5 303/1/5 306/1/5
f 307/2/5 305/2/5 304/2/5
f 308/2/5 301/2/5 305/2/5
f 308/2/5 305/2/5 307/2/5
f 309/2/5 301/2/5 308/2/5
f 310/7/5 285/7/5 301/7/5
f 310/2/5 301/2/5 309/2/5
f 311/7/5 285/7/5 310/7/5
f 312/2/5 307/2/5 306/2/5
f 312/7/5 288/7/5 284/7/5
f 312/2/5 306/2/5 288/2/5
f 312/2/5 308/2/5 307/2/5
f 313/2/5 308/2/5 312/2/5
f 314/1/5 309/1/5 308/1/5
f 314/2/5 308/2/5 313/2/5
f 315/2/5 311/2/5 310/2/5
f 315/1/5 309/1/5 314/1/5
f 315/2/5 310/2/5 309/2/5
f 316/2/5 311/2/5 315/2/5
f 317/2/5 311/2/5 316/2/5
f 318/2/5 314/2/5 313/2/5
f 319/2/5 314/2/5 318/2/5
f 320/2/5 314/2/5 319/2/5
f 321/6/5 315/6/5 314/6/5
f 321/2/5 314/2/5 320/2/5
f 322/2/5 316/2/5 315/2/5
f 322/5/5 317/5/5 316/5/5
f 323/2/5 311/2/5 317/2/5
f 323/5/5 317/5/5 322/5/5
f 324/7/5 313/7/5 312/7/5
f 324/2/5 318/2/5 313/2/5
f 325/2/5 318/2/5 324/2/5
f 326/1/5 319/1/5 318/1/5
f 326/2/5 318/2/5 325/2/5
f 327/2/5 320/2/5 319/2/5
f 327/1/5 319/1/5 326/1/5
f 328/6/5 321/6/5 320/6/5
f 328/2/5 320/2/5 327/2/5
f 329/2/5 322/2/5 315/2/5
f 329/6/5 321/6/5 328/6/5
f 329/6/5 315/6/5 321/6/5
f 329/2/5 323/2/5 322/2/5
f 330/2/5 311/2/5 323/2/5
f 330/2/5 323/2/5 329/2/5
f 331/7/5 285/7/5 311/7/5
f 331/2/5 311/2/5 330/2/5
f 332/2/5 330/2/5 329/2/5
f 332/2/5 328/2/5 327/2/5
f 332/2/5 329/2/5 328/2/5
f 332/7/5 325/7/5 324/7/5
f 332/2/5 327/2/5 326/2/5
f 332/2/5 326/2/5 325/2/5
f 333/2/5 330/2/5 332/2/5
f 334/2/5 330/2/5 333/2/5
f 335/2/5 330/2/5 334/2/5
f 336/2/5 330/2/5 335/2/5
f 337/2/5 330/2/5 336/2/5
f 338/7/5 333/7/5 332/7/5
f 338/2/5 334/2/5 333/2/5
f 339/2/5 334/2/5 338/2/5
f 340/5/5 335/5/5 334/5/5
f 340/2/5 334/2/5 339/2/5
f 341/2/5 336/2/5 335/2/5
f 341/5/5 335/5/5 340/5/5
f 342/1/5 337/1/5 336/1/5
f 342/2/5 336/2/5 341/2/5
f 343/2/5 330/2/5 337/2/5
f 343/1/5 337/1/5 342/1/5
f 344/2/5 342/2/5 341/2/5
f 344/2/5 341/2/5 340/2/5
f 344/2/5 343/2/5 342/2/5
f 344/7/5 339/7/5 338/7/5
f 344/2/5 340/2/5 339/2/5
f 345/2/5 343/2/5 344/2/5
f 346/2/5 330/2/5 343/2/5
f 346/2/5 343/2/5 345/2/5
f 347/7/5 331/7/5 330/7/5
f 347/2/5 330/2/5 346/2/5
f 348/2/5 346/2/5 345/2/5
f 349/7/5 347/7/5 346/7/5
f 349/2/5 346/2/5 348/2/5
f 350/7/5 345/7/5 344/7/5
f 350/2/5 348/2/5 345/2/5
f 351/7/5 349/7/5 348/7/5
f 351/2/5 348/2/5 350/2/5
f 352/7/5 324/7/5 312/7/5
f 352/7/5 312/7/5 284/7/5
f 352/7/5 351/7/5 350/7/5
f 352/7/5 350/7/5 344/7/5
f 352/7/5 344/7/5 338/7/5
f 352/7/5 338/7/5 332/7/5
f 352/7/5 332/7/5 324/7/5
f 353/7/5 285/7/5 331/7/5
f 353/7/5 351/7/5 352/7/5
f 353/7/5 331/7/5 347/7/5
f 353/7/5 347/7/5 349/7/5
f 353/7/5 349/7/5 351/7/5
f 354/7/6 355/7/6 356/7/6
f 356/7/6 355/7/6 357/7/6
f 358/2/6 359/2/6 362/2/6
f 359/2/6 360/2/6 362/2/6
f 362/2/6 360/2/6 363/2/6
f 361/2/6 362/2/6 366/2/6
f 364/2/6 365/2/6 366/2/6
f 363/2/6 364/2/6 366/2/6
f 362/2/6 363/2/6 366/2/6
f 366/2/6 365/2/6 367/2/6
f 367/2/6 365/2/6 368/2/6
f 361/2/6 366/2/6 370/2/6
f 366/1/6 367/1/6 370/1/6
f 368/2/6 369/2/6 371/2/6
f 370/1/6 367/1/6 371/1/6
f 367/2/6 368/2/6 371/2/6
f 371/2/6 369/2/6 372/2/6
f 372/2/6 369/2/6 373/2/6
f 373/2/6 369/2/6 374/2/6
f 361/2/6 370/2/6 376/2/6
f 370/2/6 371/2/6 376/2/6
f 371/2/6 372/2/6 376/2/6
f 376/2/6 372/2/6 377/2/6
f 372/5/6 373/5/6 378/5/6
f 377/2/6 372/2/6 378/2/6
f 374/2/6 375/2/6 379/2/6
f 378/5/6 373/5/6 379/5/6
f 373/2/6 374/2/6 379/2/6
f 361/2/6 376/2/6 380/2/6
f 376/1/6 377/1/6 380/1/6
f 377/2/6 378/2/6 381/2/6
f 380/1/6 377/1/6 381/1/6
f 378/2/6 379/2/6 381/2/6
f 379/2/6 375/2/6 382/2/6
f 381/2/6 379/2/6 382/2/6
f 382/2/6 375/2/6 383/2/6
f 383/2/6 375/2/6 384/2/6
f 361/2/6 380/2/6 386/2/6
f 380/2/6 381/2/6 386/2/6
f 381/2/6 382/2/6 386/2/6
f 386/2/6 382/2/6 387/2/6
f 382/1/6 383/1/6 388/1/6
f 387/2/6 382/2/6 388/2/6
f 384/2/6 385/2/6 389/2/6
f 388/1/6 383/1/6 389/1/6
f 383/2/6 384/2/6 389/2/6
f 389/2/6 385/2/6 390/2/6
f 390/2/6 385/2/6 391/2/6
f 387/2/6 388/2/6 392/2/6
f 392/2/6 388/2/6 393/2/6
f 393/2/6 388/2/6 394/2/6
f 388/6/6 389/6/6 395/6/6
f 394/2/6 388/2/6 395/2/6
f 389/2/6 390/2/6 396/2/6
f 395/6/6 389/6/6 396/6/6
f 390/5/6 391/5/6 397/5/6
f 396/2/6 390/2/6 397/2/6
f 391/2/6 385/2/6 398/2/6
f 397/5/6 391/5/6 398/5/6
f 387/2/6 392/2/6 399/2/6
f 399/2/6 392/2/6 400/2/6
f 392/1/6 393/1/6 401/1/6
f 400/2/6 392/2/6 401/2/6
f 393/2/6 394/2/6 402/2/6
f 401/1/6 393/1/6 402/1/6
f 394/6/6 395/6/6 403/6/6
f 402/2/6 394/2/6 403/2/6
f 403/6/6 395/6/6 404/6/6
f 396/2/6 397/2/6 405/2/6
f 397/2/6 398/2/6 405/2/6
f 398/2/6 385/2/6 406/2/6
f 405/2/6 398/2/6 406/2/6
f 406/2/6 385/2/6 407/2/6
f 403/2/6 404/2/6 408/2/6
f 404/2/6 405/2/6 408/2/6
f 405/2/6 406/2/6 408/2/6
f 400/2/6 401/2/6 408/2/6
f 401/2/6 402/2/6 408/2/6
f 402/2/6 403/2/6 408/2/6
f 408/2/6 406/2/6 409/2/6
f 409/2/6 406/2/6 410/2/6
f 410/2/6 406/2/6 411/2/6
f 411/2/6 406/2/6 412/2/6
f 412/2/6 406/2/6 413/2/6
f 409/2/6 410/2/6 414/2/6
f 414/2/6 410/2/6 415/2/6
f 410/5/6 411/5/6 416/5/6
f 415/2/6 410/2/6 416/2/6
f 411/2/6 412/2/6 417/2/6
f 416/5/6 411/5/6 417/5/6
f 412/1/6 413/1/6 418/1/6
f 417/2/6 412/2/6 418/2/6
f 413/2/6 406/2/6 419/2/6
f 418/1/6 413/1/6 419/1/6
f 417/2/6 418/2/6 420/2/6
f 416/2/6 417/2/6 420/2/6
f 418/2/6 419/2/6 420/2/6
f 415/2/6 416/2/6 420/2/6
f 420/2/6 419/2/6 421/2/6
f 421/2/6 419/2/6 422/2/6
f 419/2/6 406/2/6 423/2/6
f 422/2/6 419/2/6 423/2/6
f 423/2/6 406/2/6 424/2/6
f 422/2/6 423/2/6 425/2/6
f 425/2/6 423/2/6 426/2/6
f 422/2/6 425/2/6 427/2/6
f 427/2/6 425/2/6 428/2/6
f 354/7/6 356/7/6 429/7/6
f 357/7/6 355/7/6 430/7/6
f 354/7/6 429/7/6 431/7/6
f 429/7/6 430/7/6 431/7/6
f 430/7/6 355/7/6 432/7/6
f 431/7/6 430/7/6 432/7/6
f 433/3/6 434/3/6 435/3/6
f 435/3/6 434/3/6 436/3/6
f 436/3/6 434/3/6 437/3/6
f 437/3/6 434/3/6 438/3/6
f 433/3/6 435/3/6 439/3/6
f 439/3/6 435/3/6 440/3/6
f 436/3/6 437/3/6 441/3/6
f 437/6/6 438/6/6 442/6/6
f 441/3/6 437/3/6 442/3/6
f 438/3/6 434/3/6 443/3/6
f 442/6/6 438/6/6 443/6/6
f 443/3/6 434/3/6 444/3/6
f 433/3/6 439/3/6 445/3/6
f 445/3/6 439/3/6 446/3/6
f 443/6/6 444/6/6 447/6/6
f 444/3/6 434/3/6 448/3/6
f 447/6/6 444/6/6 448/6/6
f 448/3/6 434/3/6 449/3/6
f 449/3/6 434/3/6 450/3/6
f 450/3/6 434/3/6 451/3/6
f 451/3/6 434/3/6 452/3/6
f 452/3/6 434/3/6 453/3/6
f 453/3/6 434/3/6 454/3/6
f 454/3/6 434/3/6 455/3/6
f 455/3/6 434/3/6 456/3/6
f 456/3/6 434/3/6 457/3/6
f 433/3/6 445/3/6 458/3/6
f 433/3/6 458/3/6 459/3/6
f 459/3/6 460/3/6 463/3/6
f 461/6/6 462/6/6 465/6/6
f 465/6/6 462/6/6 466/6/6
f 457/3/6 434/3/6 468/3/6
f 463/3/6 464/3/6 469/3/6
f 467/3/6 468/3/6 471/3/6
f 468/3/6 434/3/6 472/3/6
f 471/3/6 468/3/6 472/3/6
f 469/3/6 470/3/6 473/3/6
f 472/3/6 434/3/6 477/3/6
f 474/6/6 475/6/6 478/6/6
f 473/3/6 474/3/6 478/3/6
f 478/6/6 475/6/6 479/6/6
f 476/3/6 477/3/6 482/3/6
f 479/6/6 480/6/6 483/6/6
f 478/3/6 479/3/6 483/3/6
f 483/6/6 480/6/6 484/6/6
f 481/3/6 482/3/6 486/3/6
f 484/3/6 485/3/6 487/3/6
f 483/3/6 484/3/6 487/3/6
f 486/3/6 482/3/6 489/3/6
f 487/3/6 488/3/6 490/3/6
f 488/3/6 489/3/6 490/3/6
f 433/3/6 459/3/6 490/3/6
f 459/3/6 463/3/6 490/3/6
f 483/3/6 487/3/6 490/3/6
f 463/3/6 469/3/6 490/3/6
f 478/3/6 483/3/6 490/3/6
f 469/3/6 473/3/6 490/3/6
f 473/3/6 478/3/6 490/3/6
f 489/3/6 482/3/6 491/3/6
f 490/3/6 489/3/6 491/3/6
f 482/3/6 477/3/6 491/3/6
f 477/3/6 434/3/6 491/3/6
f 492/4/6 493/4/6 494/4/6
f 494/4/6 493/4/6 495/4/6
f 496/4/6 497/4/6 498/4/6
f 498/4/6 497/4/6 499/4/6
f 500/4/6 501/4/6 502/4/6
f 502/4/6 501/4/6 503/4/6
f 504/5/6 505/5/6 506/5/6
f 506/5/6 505/5/6 507/5/6
f 508/4/6 509/4/6 512/4/6
f 512/4/6 509/4/6 513/4/6
f 510/5/6 511/5/6 514/5/6
f 514/5/6 511/5/6 515/5/6
f 516/5/6 517/5/6 518/5/6
f 518/5/6 517/5/6 519/5/6
f 520/4/6 521/4/6 522/4/6
f 522/4/6 521/4/6 523/4/6
