# MagicaVoxel @ Ephtracy

# material
mtllib straightfarm.mtl
usemtl palette

# normals
vn -1 0 0
vn 1 0 0
vn 0 0 1
vn 0 0 -1
vn 0 -1 0
vn 0 1 0

# texcoords
vt 0.154297 0.5
vt 0.177734 0.5
vt 0.341797 0.5
vt 0.373047 0.5
vt 0.623047 0.5
vt 0.986328 0.5

# verts
v -10 0 10
v -10 0 -10
v -10 1 10
v -10 1 -10
v -9 1 9
v -9 1 8
v -9 1 1
v -9 1 -1
v -9 1 -8
v -9 1 -9
v -9 2 9
v -9 2 8
v -9 2 1
v -9 2 -1
v -9 2 -8
v -9 2 -9
v -8 2 7
v -8 2 6
v -8 2 5
v -8 2 4
v -8 2 3
v -8 2 2
v -8 2 -2
v -8 2 -3
v -8 2 -4
v -8 2 -5
v -8 2 -6
v -8 2 -7
v -8 3 7
v -8 3 6
v -8 3 5
v -8 3 4
v -8 3 3
v -8 3 2
v -8 3 -2
v -8 3 -3
v -8 3 -4
v -8 3 -5
v -8 3 -6
v -8 3 -7
v -3 1 10
v -3 1 9
v -3 1 -9
v -3 1 -10
v -3 2 10
v -3 2 9
v -3 2 -9
v -3 2 -10
v 4 2 7
v 4 2 6
v 4 2 5
v 4 2 4
v 4 2 3
v 4 2 2
v 4 2 -2
v 4 2 -3
v 4 2 -4
v 4 2 -5
v 4 2 -6
v 4 2 -7
v 4 3 7
v 4 3 6
v 4 3 5
v 4 3 4
v 4 3 3
v 4 3 2
v 4 3 -2
v 4 3 -3
v 4 3 -4
v 4 3 -5
v 4 3 -6
v 4 3 -7
v -4 2 7
v -4 2 6
v -4 2 5
v -4 2 4
v -4 2 3
v -4 2 2
v -4 2 -2
v -4 2 -3
v -4 2 -4
v -4 2 -5
v -4 2 -6
v -4 2 -7
v -4 3 7
v -4 3 6
v -4 3 5
v -4 3 4
v -4 3 3
v -4 3 2
v -4 3 -2
v -4 3 -3
v -4 3 -4
v -4 3 -5
v -4 3 -6
v -4 3 -7
v 3 1 10
v 3 1 9
v 3 1 -9
v 3 1 -10
v 3 2 10
v 3 2 9
v 3 2 -9
v 3 2 -10
v 8 2 7
v 8 2 6
v 8 2 5
v 8 2 4
v 8 2 3
v 8 2 2
v 8 2 -2
v 8 2 -3
v 8 2 -4
v 8 2 -5
v 8 2 -6
v 8 2 -7
v 8 3 7
v 8 3 6
v 8 3 5
v 8 3 4
v 8 3 3
v 8 3 2
v 8 3 -2
v 8 3 -3
v 8 3 -4
v 8 3 -5
v 8 3 -6
v 8 3 -7
v 9 1 9
v 9 1 8
v 9 1 1
v 9 1 -1
v 9 1 -8
v 9 1 -9
v 9 2 9
v 9 2 8
v 9 2 1
v 9 2 -1
v 9 2 -8
v 9 2 -9
v 10 0 10
v 10 0 -10
v 10 1 10
v 10 1 -10
v -10 0 10
v -10 1 10
v -3 1 10
v -3 2 10
v -2 1 10
v -2 2 10
v 2 1 10
v 2 2 10
v 3 1 10
v 3 2 10
v 10 0 10
v 10 1 10
v -9 1 9
v -9 2 9
v -3 1 9
v -3 2 9
v 3 1 9
v 3 2 9
v 9 1 9
v 9 2 9
v -8 2 7
v -8 3 7
v -4 2 7
v -4 3 7
v 4 2 7
v 4 3 7
v 8 2 7
v 8 3 7
v -8 2 5
v -8 3 5
v -4 2 5
v -4 3 5
v 4 2 5
v 4 3 5
v 8 2 5
v 8 3 5
v -8 2 3
v -8 3 3
v -4 2 3
v -4 3 3
v 4 2 3
v 4 3 3
v 8 2 3
v 8 3 3
v -8 2 -2
v -8 3 -2
v -4 2 -2
v -4 3 -2
v 4 2 -2
v 4 3 -2
v 8 2 -2
v 8 3 -2
v -8 2 -4
v -8 3 -4
v -4 2 -4
v -4 3 -4
v 4 2 -4
v 4 3 -4
v 8 2 -4
v 8 3 -4
v -8 2 -6
v -8 3 -6
v -4 2 -6
v -4 3 -6
v 4 2 -6
v 4 3 -6
v 8 2 -6
v 8 3 -6
v -8 2 6
v -8 3 6
v -4 2 6
v -4 3 6
v 4 2 6
v 4 3 6
v 8 2 6
v 8 3 6
v -8 2 4
v -8 3 4
v -4 2 4
v -4 3 4
v 4 2 4
v 4 3 4
v 8 2 4
v 8 3 4
v -8 2 2
v -8 3 2
v -4 2 2
v -4 3 2
v 4 2 2
v 4 3 2
v 8 2 2
v 8 3 2
v -8 2 -3
v -8 3 -3
v -4 2 -3
v -4 3 -3
v 4 2 -3
v 4 3 -3
v 8 2 -3
v 8 3 -3
v -8 2 -5
v -8 3 -5
v -4 2 -5
v -4 3 -5
v 4 2 -5
v 4 3 -5
v 8 2 -5
v 8 3 -5
v -8 2 -7
v -8 3 -7
v -4 2 -7
v -4 3 -7
v 4 2 -7
v 4 3 -7
v 8 2 -7
v 8 3 -7
v -9 1 -9
v -9 2 -9
v -3 1 -9
v -3 2 -9
v 3 1 -9
v 3 2 -9
v 9 1 -9
v 9 2 -9
v -10 0 -10
v -10 1 -10
v -3 1 -10
v -3 2 -10
v -2 1 -10
v -2 2 -10
v 2 1 -10
v 2 2 -10
v 3 1 -10
v 3 2 -10
v 10 0 -10
v 10 1 -10
v -10 0 10
v 10 0 10
v -10 0 -10
v 10 0 -10
v -10 1 10
v -3 1 10
v 3 1 10
v 10 1 10
v -9 1 9
v -3 1 9
v 3 1 9
v 9 1 9
v -9 1 8
v 9 1 8
v -9 1 1
v 9 1 1
v -9 1 -1
v 9 1 -1
v -9 1 -8
v 9 1 -8
v -9 1 -9
v -3 1 -9
v 3 1 -9
v 9 1 -9
v -10 1 -10
v -3 1 -10
v 3 1 -10
v 10 1 -10
v -3 2 10
v -2 2 10
v 2 2 10
v 3 2 10
v -9 2 9
v -3 2 9
v 3 2 9
v 9 2 9
v -9 2 8
v -3 2 8
v 3 2 8
v 9 2 8
v -8 2 7
v -4 2 7
v 4 2 7
v 8 2 7
v -8 2 6
v -4 2 6
v 4 2 6
v 8 2 6
v -8 2 5
v -4 2 5
v 4 2 5
v 8 2 5
v -8 2 4
v -4 2 4
v 4 2 4
v 8 2 4
v -8 2 3
v -4 2 3
v 4 2 3
v 8 2 3
v -8 2 2
v -4 2 2
v 4 2 2
v 8 2 2
v -9 2 1
v -3 2 1
v 3 2 1
v 9 2 1
v -9 2 -1
v -3 2 -1
v 3 2 -1
v 9 2 -1
v -8 2 -2
v -4 2 -2
v 4 2 -2
v 8 2 -2
v -8 2 -3
v -4 2 -3
v 4 2 -3
v 8 2 -3
v -8 2 -4
v -4 2 -4
v 4 2 -4
v 8 2 -4
v -8 2 -5
v -4 2 -5
v 4 2 -5
v 8 2 -5
v -8 2 -6
v -4 2 -6
v 4 2 -6
v 8 2 -6
v -8 2 -7
v -4 2 -7
v 4 2 -7
v 8 2 -7
v -9 2 -8
v -3 2 -8
v 3 2 -8
v 9 2 -8
v -9 2 -9
v -3 2 -9
v 3 2 -9
v 9 2 -9
v -3 2 -10
v -2 2 -10
v 2 2 -10
v 3 2 -10
v -8 3 7
v -4 3 7
v 4 3 7
v 8 3 7
v -8 3 6
v -4 3 6
v 4 3 6
v 8 3 6
v -8 3 5
v -4 3 5
v 4 3 5
v 8 3 5
v -8 3 4
v -4 3 4
v 4 3 4
v 8 3 4
v -8 3 3
v -4 3 3
v 4 3 3
v 8 3 3
v -8 3 2
v -4 3 2
v 4 3 2
v 8 3 2
v -8 3 -2
v -4 3 -2
v 4 3 -2
v 8 3 -2
v -8 3 -3
v -4 3 -3
v 4 3 -3
v 8 3 -3
v -8 3 -4
v -4 3 -4
v 4 3 -4
v 8 3 -4
v -8 3 -5
v -4 3 -5
v 4 3 -5
v 8 3 -5
v -8 3 -6
v -4 3 -6
v 4 3 -6
v 8 3 -6
v -8 3 -7
v -4 3 -7
v 4 3 -7
v 8 3 -7

# faces
f 3/6/1 2/6/1 1/6/1
f 4/6/1 2/6/1 3/6/1
f 11/5/1 6/5/1 5/5/1
f 12/4/1 7/4/1 6/4/1
f 12/5/1 6/5/1 11/5/1
f 13/5/1 8/5/1 7/5/1
f 13/4/1 7/4/1 12/4/1
f 14/4/1 9/4/1 8/4/1
f 14/5/1 8/5/1 13/5/1
f 15/5/1 10/5/1 9/5/1
f 15/4/1 9/4/1 14/4/1
f 16/5/1 10/5/1 15/5/1
f 29/1/1 18/1/1 17/1/1
f 30/1/1 18/1/1 29/1/1
f 31/1/1 20/1/1 19/1/1
f 32/1/1 20/1/1 31/1/1
f 33/1/1 22/1/1 21/1/1
f 34/1/1 22/1/1 33/1/1
f 35/1/1 24/1/1 23/1/1
f 36/1/1 24/1/1 35/1/1
f 37/1/1 26/1/1 25/1/1
f 38/1/1 26/1/1 37/1/1
f 39/1/1 28/1/1 27/1/1
f 40/1/1 28/1/1 39/1/1
f 45/3/1 42/3/1 41/3/1
f 46/3/1 42/3/1 45/3/1
f 47/3/1 44/3/1 43/3/1
f 48/3/1 44/3/1 47/3/1
f 61/1/1 50/1/1 49/1/1
f 62/1/1 50/1/1 61/1/1
f 63/1/1 52/1/1 51/1/1
f 64/1/1 52/1/1 63/1/1
f 65/1/1 54/1/1 53/1/1
f 66/1/1 54/1/1 65/1/1
f 67/1/1 56/1/1 55/1/1
f 68/1/1 56/1/1 67/1/1
f 69/1/1 58/1/1 57/1/1
f 70/1/1 58/1/1 69/1/1
f 71/1/1 60/1/1 59/1/1
f 72/1/1 60/1/1 71/1/1
f 73/1/2 74/1/2 85/1/2
f 85/1/2 74/1/2 86/1/2
f 75/1/2 76/1/2 87/1/2
f 87/1/2 76/1/2 88/1/2
f 77/1/2 78/1/2 89/1/2
f 89/1/2 78/1/2 90/1/2
f 79/1/2 80/1/2 91/1/2
f 91/1/2 80/1/2 92/1/2
f 81/1/2 82/1/2 93/1/2
f 93/1/2 82/1/2 94/1/2
f 83/1/2 84/1/2 95/1/2
f 95/1/2 84/1/2 96/1/2
f 97/3/2 98/3/2 101/3/2
f 101/3/2 98/3/2 102/3/2
f 99/3/2 100/3/2 103/3/2
f 103/3/2 100/3/2 104/3/2
f 105/1/2 106/1/2 117/1/2
f 117/1/2 106/1/2 118/1/2
f 107/1/2 108/1/2 119/1/2
f 119/1/2 108/1/2 120/1/2
f 109/1/2 110/1/2 121/1/2
f 121/1/2 110/1/2 122/1/2
f 111/1/2 112/1/2 123/1/2
f 123/1/2 112/1/2 124/1/2
f 113/1/2 114/1/2 125/1/2
f 125/1/2 114/1/2 126/1/2
f 115/1/2 116/1/2 127/1/2
f 127/1/2 116/1/2 128/1/2
f 129/5/2 130/5/2 135/5/2
f 130/4/2 131/4/2 136/4/2
f 135/5/2 130/5/2 136/5/2
f 131/5/2 132/5/2 137/5/2
f 136/4/2 131/4/2 137/4/2
f 132/4/2 133/4/2 138/4/2
f 137/5/2 132/5/2 138/5/2
f 133/5/2 134/5/2 139/5/2
f 138/4/2 133/4/2 139/4/2
f 139/5/2 134/5/2 140/5/2
f 141/6/2 142/6/2 143/6/2
f 143/6/2 142/6/2 144/6/2
f 147/6/3 146/6/3 145/6/3
f 149/6/3 147/6/3 145/6/3
f 149/3/3 148/3/3 147/3/3
f 150/3/3 148/3/3 149/3/3
f 151/6/3 149/6/3 145/6/3
f 151/2/3 150/2/3 149/2/3
f 152/2/3 150/2/3 151/2/3
f 153/6/3 151/6/3 145/6/3
f 153/3/3 152/3/3 151/3/3
f 154/3/3 152/3/3 153/3/3
f 155/6/3 153/6/3 145/6/3
f 156/6/3 153/6/3 155/6/3
f 159/5/3 158/5/3 157/5/3
f 160/5/3 158/5/3 159/5/3
f 163/5/3 162/5/3 161/5/3
f 164/5/3 162/5/3 163/5/3
f 167/1/3 166/1/3 165/1/3
f 168/1/3 166/1/3 167/1/3
f 171/1/3 170/1/3 169/1/3
f 172/1/3 170/1/3 171/1/3
f 175/1/3 174/1/3 173/1/3
f 176/1/3 174/1/3 175/1/3
f 179/1/3 178/1/3 177/1/3
f 180/1/3 178/1/3 179/1/3
f 183/1/3 182/1/3 181/1/3
f 184/1/3 182/1/3 183/1/3
f 187/1/3 186/1/3 185/1/3
f 188/1/3 186/1/3 187/1/3
f 191/1/3 190/1/3 189/1/3
f 192/1/3 190/1/3 191/1/3
f 195/1/3 194/1/3 193/1/3
f 196/1/3 194/1/3 195/1/3
f 199/1/3 198/1/3 197/1/3
f 200/1/3 198/1/3 199/1/3
f 203/1/3 202/1/3 201/1/3
f 204/1/3 202/1/3 203/1/3
f 207/1/3 206/1/3 205/1/3
f 208/1/3 206/1/3 207/1/3
f 211/1/3 210/1/3 209/1/3
f 212/1/3 210/1/3 211/1/3
f 213/1/4 214/1/4 215/1/4
f 215/1/4 214/1/4 216/1/4
f 217/1/4 218/1/4 219/1/4
f 219/1/4 218/1/4 220/1/4
f 221/1/4 222/1/4 223/1/4
f 223/1/4 222/1/4 224/1/4
f 225/1/4 226/1/4 227/1/4
f 227/1/4 226/1/4 228/1/4
f 229/1/4 230/1/4 231/1/4
f 231/1/4 230/1/4 232/1/4
f 233/1/4 234/1/4 235/1/4
f 235/1/4 234/1/4 236/1/4
f 237/1/4 238/1/4 239/1/4
f 239/1/4 238/1/4 240/1/4
f 241/1/4 242/1/4 243/1/4
f 243/1/4 242/1/4 244/1/4
f 245/1/4 246/1/4 247/1/4
f 247/1/4 246/1/4 248/1/4
f 249/1/4 250/1/4 251/1/4
f 251/1/4 250/1/4 252/1/4
f 253/1/4 254/1/4 255/1/4
f 255/1/4 254/1/4 256/1/4
f 257/1/4 258/1/4 259/1/4
f 259/1/4 258/1/4 260/1/4
f 261/5/4 262/5/4 263/5/4
f 263/5/4 262/5/4 264/5/4
f 265/5/4 266/5/4 267/5/4
f 267/5/4 266/5/4 268/5/4
f 269/6/4 270/6/4 271/6/4
f 269/6/4 271/6/4 273/6/4
f 271/3/4 272/3/4 273/3/4
f 273/3/4 272/3/4 274/3/4
f 269/6/4 273/6/4 275/6/4
f 273/2/4 274/2/4 275/2/4
f 275/2/4 274/2/4 276/2/4
f 269/6/4 275/6/4 277/6/4
f 275/3/4 276/3/4 277/3/4
f 277/3/4 276/3/4 278/3/4
f 269/6/4 277/6/4 279/6/4
f 279/6/4 277/6/4 280/6/4
f 283/6/5 282/6/5 281/6/5
f 284/6/5 282/6/5 283/6/5
f 285/6/6 286/6/6 289/6/6
f 289/6/6 286/6/6 290/6/6
f 287/6/6 288/6/6 291/6/6
f 291/6/6 288/6/6 292/6/6
f 285/6/6 289/6/6 293/6/6
f 292/6/6 288/6/6 294/6/6
f 285/6/6 293/6/6 295/6/6
f 294/6/6 288/6/6 296/6/6
f 285/6/6 295/6/6 297/6/6
f 296/6/6 288/6/6 298/6/6
f 285/6/6 297/6/6 299/6/6
f 298/6/6 288/6/6 300/6/6
f 285/6/6 299/6/6 301/6/6
f 300/6/6 288/6/6 304/6/6
f 301/6/6 302/6/6 305/6/6
f 285/6/6 301/6/6 305/6/6
f 305/6/6 302/6/6 306/6/6
f 303/6/6 304/6/6 307/6/6
f 304/6/6 288/6/6 308/6/6
f 307/6/6 304/6/6 308/6/6
f 309/3/6 310/3/6 314/3/6
f 311/3/6 312/3/6 315/3/6
f 313/5/6 314/5/6 317/5/6
f 314/3/6 310/3/6 318/3/6
f 317/5/6 314/5/6 318/5/6
f 315/5/6 316/5/6 319/5/6
f 311/3/6 315/3/6 319/3/6
f 319/5/6 316/5/6 320/5/6
f 317/4/6 318/4/6 321/4/6
f 321/4/6 318/4/6 322/4/6
f 319/4/6 320/4/6 323/4/6
f 323/4/6 320/4/6 324/4/6
f 317/4/6 321/4/6 325/4/6
f 322/4/6 318/4/6 326/4/6
f 319/4/6 323/4/6 327/4/6
f 324/4/6 320/4/6 328/4/6
f 317/4/6 325/4/6 329/4/6
f 325/4/6 326/4/6 329/4/6
f 326/4/6 318/4/6 330/4/6
f 329/4/6 326/4/6 330/4/6
f 327/4/6 328/4/6 331/4/6
f 319/4/6 327/4/6 331/4/6
f 328/4/6 320/4/6 332/4/6
f 331/4/6 328/4/6 332/4/6
f 317/4/6 329/4/6 333/4/6
f 330/4/6 318/4/6 334/4/6
f 319/4/6 331/4/6 335/4/6
f 332/4/6 320/4/6 336/4/6
f 317/4/6 333/4/6 337/4/6
f 333/4/6 334/4/6 337/4/6
f 334/4/6 318/4/6 338/4/6
f 337/4/6 334/4/6 338/4/6
f 335/4/6 336/4/6 339/4/6
f 319/4/6 335/4/6 339/4/6
f 336/4/6 320/4/6 340/4/6
f 339/4/6 336/4/6 340/4/6
f 317/4/6 337/4/6 341/4/6
f 338/4/6 318/4/6 342/4/6
f 319/4/6 339/4/6 343/4/6
f 340/4/6 320/4/6 344/4/6
f 317/4/6 341/4/6 345/4/6
f 341/4/6 342/4/6 345/4/6
f 318/3/6 310/3/6 346/3/6
f 345/4/6 342/4/6 346/4/6
f 342/4/6 318/4/6 346/4/6
f 311/3/6 319/3/6 347/3/6
f 343/4/6 344/4/6 347/4/6
f 319/4/6 343/4/6 347/4/6
f 344/4/6 320/4/6 348/4/6
f 347/4/6 344/4/6 348/4/6
f 345/5/6 346/5/6 349/5/6
f 346/3/6 310/3/6 350/3/6
f 349/5/6 346/5/6 350/5/6
f 311/3/6 347/3/6 351/3/6
f 347/5/6 348/5/6 351/5/6
f 351/5/6 348/5/6 352/5/6
f 349/4/6 350/4/6 353/4/6
f 353/4/6 350/4/6 354/4/6
f 351/4/6 352/4/6 355/4/6
f 355/4/6 352/4/6 356/4/6
f 349/4/6 353/4/6 357/4/6
f 354/4/6 350/4/6 358/4/6
f 351/4/6 355/4/6 359/4/6
f 356/4/6 352/4/6 360/4/6
f 349/4/6 357/4/6 361/4/6
f 357/4/6 358/4/6 361/4/6
f 358/4/6 350/4/6 362/4/6
f 361/4/6 358/4/6 362/4/6
f 359/4/6 360/4/6 363/4/6
f 351/4/6 359/4/6 363/4/6
f 360/4/6 352/4/6 364/4/6
f 363/4/6 360/4/6 364/4/6
f 349/4/6 361/4/6 365/4/6
f 362/4/6 350/4/6 366/4/6
f 351/4/6 363/4/6 367/4/6
f 364/4/6 352/4/6 368/4/6
f 349/4/6 365/4/6 369/4/6
f 365/4/6 366/4/6 369/4/6
f 366/4/6 350/4/6 370/4/6
f 369/4/6 366/4/6 370/4/6
f 367/4/6 368/4/6 371/4/6
f 351/4/6 367/4/6 371/4/6
f 368/4/6 352/4/6 372/4/6
f 371/4/6 368/4/6 372/4/6
f 349/4/6 369/4/6 373/4/6
f 370/4/6 350/4/6 374/4/6
f 351/4/6 371/4/6 375/4/6
f 372/4/6 352/4/6 376/4/6
f 349/4/6 373/4/6 377/4/6
f 373/4/6 374/4/6 377/4/6
f 350/3/6 310/3/6 378/3/6
f 377/4/6 374/4/6 378/4/6
f 374/4/6 350/4/6 378/4/6
f 311/3/6 351/3/6 379/3/6
f 375/4/6 376/4/6 379/4/6
f 351/4/6 375/4/6 379/4/6
f 376/4/6 352/4/6 380/4/6
f 379/4/6 376/4/6 380/4/6
f 377/5/6 378/5/6 381/5/6
f 378/3/6 310/3/6 382/3/6
f 381/5/6 378/5/6 382/5/6
f 311/3/6 379/3/6 383/3/6
f 379/5/6 380/5/6 383/5/6
f 383/5/6 380/5/6 384/5/6
f 382/3/6 310/3/6 385/3/6
f 310/2/6 311/2/6 386/2/6
f 385/3/6 310/3/6 386/3/6
f 311/3/6 383/3/6 387/3/6
f 386/2/6 311/2/6 387/2/6
f 387/3/6 383/3/6 388/3/6
f 389/1/6 390/1/6 393/1/6
f 393/1/6 390/1/6 394/1/6
f 391/1/6 392/1/6 395/1/6
f 395/1/6 392/1/6 396/1/6
f 397/1/6 398/1/6 401/1/6
f 401/1/6 398/1/6 402/1/6
f 399/1/6 400/1/6 403/1/6
f 403/1/6 400/1/6 404/1/6
f 405/1/6 406/1/6 409/1/6
f 409/1/6 406/1/6 410/1/6
f 407/1/6 408/1/6 411/1/6
f 411/1/6 408/1/6 412/1/6
f 413/1/6 414/1/6 417/1/6
f 417/1/6 414/1/6 418/1/6
f 415/1/6 416/1/6 419/1/6
f 419/1/6 416/1/6 420/1/6
f 421/1/6 422/1/6 425/1/6
f 425/1/6 422/1/6 426/1/6
f 423/1/6 424/1/6 427/1/6
f 427/1/6 424/1/6 428/1/6
f 429/1/6 430/1/6 433/1/6
f 433/1/6 430/1/6 434/1/6
f 431/1/6 432/1/6 435/1/6
f 435/1/6 432/1/6 436/1/6
